G04 DipTrace 3.3.0.0*
G04 pachinko.GBO*
%MOIN*%
G04 #@! TF.FileFunction,Legend,Bot*
G04 #@! TF.Part,Single*
%ADD10C,0.009843*%
%ADD20C,0.008*%
%ADD21C,0.006*%
%ADD23C,0.005984*%
%ADD36C,0.005*%
%ADD57C,0.000013*%
%ADD128C,0.004632*%
%ADD131C,0.00772*%
%FSLAX26Y26*%
G04*
G70*
G90*
G75*
G01*
G04 BotSilk*
%LPD*%
X2381563Y1654219D2*
D21*
Y1584184D1*
X2416510Y1619184D2*
X2346566D1*
X2206679Y1569169D2*
Y1444184D1*
Y1669199D2*
Y1794184D1*
X2606689Y1669199D2*
Y1794184D1*
Y1569169D2*
Y1444184D1*
X2206679D1*
Y1794184D2*
X2606689D1*
X2206679Y1669199D2*
D23*
X2194205D1*
Y1569169D1*
X2206679D1*
X781805Y1584149D2*
D21*
Y1654184D1*
X746858Y1619184D2*
X816801D1*
X956688Y1669199D2*
Y1794184D1*
Y1569169D2*
Y1444184D1*
X556679Y1569169D2*
Y1444184D1*
Y1669199D2*
Y1794184D1*
X956688D1*
Y1444184D2*
X556679D1*
X956688Y1569169D2*
D23*
X969162D1*
Y1669199D1*
X956688D1*
X2146649Y1194063D2*
D21*
X2216684D1*
X2181684Y1229010D2*
Y1159066D1*
X2231699Y1019179D2*
X2356684D1*
X2131669D2*
X2006684D1*
X2131669Y1419189D2*
X2006684D1*
X2231699D2*
X2356684D1*
Y1019179D1*
X2006684D2*
Y1419189D1*
X2131669Y1019179D2*
D23*
Y1006705D1*
X2231699D1*
Y1019179D1*
X1746649Y1194063D2*
D21*
X1816684D1*
X1781684Y1229010D2*
Y1159066D1*
X1831699Y1019179D2*
X1956684D1*
X1731669D2*
X1606684D1*
X1731669Y1419189D2*
X1606684D1*
X1831699D2*
X1956684D1*
Y1019179D1*
X1606684D2*
Y1419189D1*
X1731669Y1019179D2*
D23*
Y1006705D1*
X1831699D1*
Y1019179D1*
X1906805Y1584149D2*
D21*
Y1654184D1*
X1871858Y1619184D2*
X1941801D1*
X2081688Y1669199D2*
Y1794184D1*
Y1569169D2*
Y1444184D1*
X1681679Y1569169D2*
Y1444184D1*
Y1669199D2*
Y1794184D1*
X2081688D1*
Y1444184D2*
X1681679D1*
X2081688Y1569169D2*
D23*
X2094162D1*
Y1669199D1*
X2081688D1*
X2546649Y1194063D2*
D21*
X2616684D1*
X2581684Y1229010D2*
Y1159066D1*
X2631699Y1019179D2*
X2756684D1*
X2531669D2*
X2406684D1*
X2531669Y1419189D2*
X2406684D1*
X2631699D2*
X2756684D1*
Y1019179D1*
X2406684D2*
Y1419189D1*
X2531669Y1019179D2*
D23*
Y1006705D1*
X2631699D1*
Y1019179D1*
X1256563Y1654219D2*
D21*
Y1584184D1*
X1291510Y1619184D2*
X1221566D1*
X1081679Y1569169D2*
Y1444184D1*
Y1669199D2*
Y1794184D1*
X1481689Y1669199D2*
Y1794184D1*
Y1569169D2*
Y1444184D1*
X1081679D1*
Y1794184D2*
X1481689D1*
X1081679Y1669199D2*
D23*
X1069205D1*
Y1569169D1*
X1081679D1*
X1346649Y1194063D2*
D21*
X1416684D1*
X1381684Y1229010D2*
Y1159066D1*
X1431699Y1019179D2*
X1556684D1*
X1331669D2*
X1206684D1*
X1331669Y1419189D2*
X1206684D1*
X1431699D2*
X1556684D1*
Y1019179D1*
X1206684D2*
Y1419189D1*
X1331669Y1019179D2*
D23*
Y1006705D1*
X1431699D1*
Y1019179D1*
X946649Y1194063D2*
D21*
X1016684D1*
X981684Y1229010D2*
Y1159066D1*
X1031699Y1019179D2*
X1156684D1*
X931669D2*
X806684D1*
X931669Y1419189D2*
X806684D1*
X1031699D2*
X1156684D1*
Y1019179D1*
X806684D2*
Y1419189D1*
X931669Y1019179D2*
D23*
Y1006705D1*
X1031699D1*
Y1019179D1*
X2616719Y644305D2*
D21*
X2546684D1*
X2581684Y609358D2*
Y679301D1*
X2531669Y819188D2*
X2406684D1*
X2631699D2*
X2756684D1*
X2631699Y419179D2*
X2756684D1*
X2531669D2*
X2406684D1*
Y819188D1*
X2756684D2*
Y419179D1*
X2631699Y819188D2*
D23*
Y831662D1*
X2531669D1*
Y819188D1*
X2216719Y644305D2*
D21*
X2146684D1*
X2181684Y609358D2*
Y679301D1*
X2131669Y819188D2*
X2006684D1*
X2231699D2*
X2356684D1*
X2231699Y419179D2*
X2356684D1*
X2131669D2*
X2006684D1*
Y819188D1*
X2356684D2*
Y419179D1*
X2231699Y819188D2*
D23*
Y831662D1*
X2131669D1*
Y819188D1*
X1816719Y644305D2*
D21*
X1746684D1*
X1781684Y609358D2*
Y679301D1*
X1731669Y819188D2*
X1606684D1*
X1831699D2*
X1956684D1*
X1831699Y419179D2*
X1956684D1*
X1731669D2*
X1606684D1*
Y819188D1*
X1956684D2*
Y419179D1*
X1831699Y819188D2*
D23*
Y831662D1*
X1731669D1*
Y819188D1*
X1416719Y644305D2*
D21*
X1346684D1*
X1381684Y609358D2*
Y679301D1*
X1331669Y819188D2*
X1206684D1*
X1431699D2*
X1556684D1*
X1431699Y419179D2*
X1556684D1*
X1331669D2*
X1206684D1*
Y819188D1*
X1556684D2*
Y419179D1*
X1431699Y819188D2*
D23*
Y831662D1*
X1331669D1*
Y819188D1*
X1016719Y644305D2*
D21*
X946684D1*
X981684Y609358D2*
Y679301D1*
X931669Y819188D2*
X806684D1*
X1031699D2*
X1156684D1*
X1031699Y419179D2*
X1156684D1*
X931669D2*
X806684D1*
Y819188D1*
X1156684D2*
Y419179D1*
X1031699Y819188D2*
D23*
Y831662D1*
X931669D1*
Y819188D1*
X616719Y644305D2*
D21*
X546684D1*
X581684Y609358D2*
Y679301D1*
X531669Y819188D2*
X406684D1*
X631699D2*
X756684D1*
X631699Y419179D2*
X756684D1*
X531669D2*
X406684D1*
Y819188D1*
X756684D2*
Y419179D1*
X631699Y819188D2*
D23*
Y831662D1*
X531669D1*
Y819188D1*
X546649Y1194063D2*
D21*
X616684D1*
X581684Y1229010D2*
Y1159066D1*
X631699Y1019179D2*
X756684D1*
X531669D2*
X406684D1*
X531669Y1419189D2*
X406684D1*
X631699D2*
X756684D1*
Y1019179D1*
X406684D2*
Y1419189D1*
X531669Y1019179D2*
D23*
Y1006705D1*
X631699D1*
Y1019179D1*
X2631682Y4219191D2*
D36*
G03X2631682Y4119177I-49997J-50007D01*
G01*
Y4219191D2*
Y4119177D1*
X2530500Y4169184D2*
G02X2530500Y4169184I51183J0D01*
G01*
X631682Y4219191D2*
G03X631682Y4119177I-49997J-50007D01*
G01*
Y4219191D2*
Y4119177D1*
X530500Y4169184D2*
G02X530500Y4169184I51183J0D01*
G01*
X2631682Y3219191D2*
G03X2631682Y3119177I-49997J-50007D01*
G01*
Y3219191D2*
Y3119177D1*
X2530500Y3169184D2*
G02X2530500Y3169184I51183J0D01*
G01*
X631682Y3219191D2*
G03X631682Y3119177I-49997J-50007D01*
G01*
Y3219191D2*
Y3119177D1*
X530500Y3169184D2*
G02X530500Y3169184I51183J0D01*
G01*
X1531677Y2419182D2*
G03X1631691Y2419182I50007J-49997D01*
G01*
X1531677D2*
X1631691D1*
X1530513Y2369182D2*
G02X1530513Y2369182I51170J0D01*
G01*
X2630499Y970362D2*
X2579321D1*
X2630499Y868005D2*
X2604918D1*
X2618692Y919184D2*
G02X2618692Y919184I62992J0D01*
G01*
X2230499Y970362D2*
X2179321D1*
X2230499Y868005D2*
X2204918D1*
X2218692Y919184D2*
G02X2218692Y919184I62992J0D01*
G01*
X1830499Y970362D2*
X1779321D1*
X1830499Y868005D2*
X1804918D1*
X1818692Y919184D2*
G02X1818692Y919184I62992J0D01*
G01*
X1332050Y868005D2*
X1383227D1*
X1332050Y970362D2*
X1357630D1*
X1217873Y919184D2*
G02X1217873Y919184I62992J0D01*
G01*
X932050Y868005D2*
X983227D1*
X932050Y970362D2*
X957630D1*
X817873Y919184D2*
G02X817873Y919184I62992J0D01*
G01*
X532869Y868005D2*
X584046D1*
X532869Y970362D2*
X558449D1*
X418692Y919184D2*
G02X418692Y919184I62992J0D01*
G01*
X532869Y1443005D2*
X584046D1*
X532869Y1545362D2*
X558449D1*
X418692Y1494184D2*
G02X418692Y1494184I62992J0D01*
G01*
X1481698Y3994194D2*
D57*
G02X1481698Y3994194I99986J0D01*
G01*
X1750762Y4209144D2*
D36*
X1412605D1*
Y3823715D1*
X1750762D1*
Y4209144D1*
X1538380Y3969583D2*
D20*
G02X1624987Y3969583I43304J24588D01*
G01*
X1538380D2*
X1624987D1*
X1485218D2*
X1677137D1*
X2181698Y4394194D2*
D57*
G02X2181698Y4394194I99986J0D01*
G01*
X2450762Y4609144D2*
D36*
X2112605D1*
Y4223715D1*
X2450762D1*
Y4609144D1*
X2238380Y4369583D2*
D20*
G02X2324987Y4369583I43304J24588D01*
G01*
X2238380D2*
X2324987D1*
X2185218D2*
X2377137D1*
X781698Y4394194D2*
D57*
G02X781698Y4394194I99986J0D01*
G01*
X1050762Y4609144D2*
D36*
X712605D1*
Y4223715D1*
X1050762D1*
Y4609144D1*
X838380Y4369583D2*
D20*
G02X924987Y4369583I43304J24588D01*
G01*
X838380D2*
X924987D1*
X785218D2*
X977137D1*
X1481698Y2794194D2*
D57*
G02X1481698Y2794194I99986J0D01*
G01*
X1750762Y3009144D2*
D36*
X1412605D1*
Y2623715D1*
X1750762D1*
Y3009144D1*
X1538380Y2769583D2*
D20*
G02X1624987Y2769583I43304J24588D01*
G01*
X1538380D2*
X1624987D1*
X1485218D2*
X1677137D1*
X2181698Y3394194D2*
D57*
G02X2181698Y3394194I99986J0D01*
G01*
X2450762Y3609144D2*
D36*
X2112605D1*
Y3223715D1*
X2450762D1*
Y3609144D1*
X2238380Y3369583D2*
D20*
G02X2324987Y3369583I43304J24588D01*
G01*
X2238380D2*
X2324987D1*
X2185218D2*
X2377137D1*
X781698Y3394194D2*
D57*
G02X781698Y3394194I99986J0D01*
G01*
X1050762Y3609144D2*
D36*
X712605D1*
Y3223715D1*
X1050762D1*
Y3609144D1*
X838380Y3369583D2*
D20*
G02X924987Y3369583I43304J24588D01*
G01*
X838380D2*
X924987D1*
X785218D2*
X977137D1*
X2181698Y2394194D2*
D57*
G02X2181698Y2394194I99986J0D01*
G01*
X2450762Y2609144D2*
D36*
X2112605D1*
Y2223715D1*
X2450762D1*
Y2609144D1*
X2238380Y2369583D2*
D20*
G02X2324987Y2369583I43304J24588D01*
G01*
X2238380D2*
X2324987D1*
X2185218D2*
X2377137D1*
X781698Y2394194D2*
D57*
G02X781698Y2394194I99986J0D01*
G01*
X1050762Y2609144D2*
D36*
X712605D1*
Y2223715D1*
X1050762D1*
Y2609144D1*
X838380Y2369583D2*
D20*
G02X924987Y2369583I43304J24588D01*
G01*
X838380D2*
X924987D1*
X785218D2*
X977137D1*
X2461681Y3834176D2*
Y4004192D1*
X2701686D2*
Y3834176D1*
X2542397Y3799196D2*
X2621676D1*
X2541212Y4039172D2*
X2621676D1*
X2511678Y3919184D2*
G02X2511678Y3919184I70006J0D01*
G01*
X701686Y4004192D2*
Y3834176D1*
X461681D2*
Y4004192D1*
X620970Y4039172D2*
X541691D1*
X622155Y3799196D2*
X541691D1*
X511678Y3919184D2*
G02X511678Y3919184I70006J0D01*
G01*
X2461681Y2809176D2*
Y2979192D1*
X2701686D2*
Y2809176D1*
X2542397Y2774196D2*
X2621676D1*
X2541212Y3014172D2*
X2621676D1*
X2511678Y2894184D2*
G02X2511678Y2894184I70006J0D01*
G01*
X701686Y2979192D2*
Y2809176D1*
X461681D2*
Y2979192D1*
X620970Y3014172D2*
X541691D1*
X622155Y2774196D2*
X541691D1*
X511678Y2894184D2*
G02X511678Y2894184I70006J0D01*
G01*
X1701686Y2207192D2*
Y2037176D1*
X1461681D2*
Y2207192D1*
X1620970Y2242172D2*
X1541691D1*
X1622155Y2002196D2*
X1541691D1*
X1511678Y2122184D2*
G02X1511678Y2122184I70006J0D01*
G01*
X1213576Y4637516D2*
D10*
Y4401277D1*
Y4637516D2*
X1449809D1*
Y4401277D1*
X1213576D1*
X1949792Y4401064D2*
Y4637303D1*
Y4401064D2*
X1713558D1*
Y4637303D1*
X1949792D1*
G36*
X413972Y1568455D2*
X550803D1*
Y1516289D1*
X413972D1*
Y1568455D1*
G37*
G36*
X418253Y1006896D2*
X547387D1*
Y941046D1*
X418253D1*
Y1006896D1*
G37*
G36*
X825324Y1000054D2*
X941630D1*
Y941902D1*
X825324D1*
Y1000054D1*
G37*
G36*
X1214436Y996634D2*
X1339293D1*
Y942757D1*
X1214436D1*
Y996634D1*
G37*
G36*
X1823852Y891667D2*
X1948025D1*
Y836165D1*
X1823852D1*
Y891667D1*
G37*
G36*
X2232119D2*
X2346886D1*
Y840869D1*
X2232119D1*
Y891667D1*
G37*
G36*
X2633488Y894846D2*
X2740472D1*
Y839858D1*
X2633488D1*
Y894846D1*
G37*
X2185489Y1772356D2*
D128*
Y1749408D1*
X2186915Y1745097D1*
X2188374Y1743671D1*
X2191226Y1742212D1*
X2194111D1*
X2196963Y1743671D1*
X2198388Y1745097D1*
X2199848Y1749408D1*
Y1752260D1*
X2176225Y1766586D2*
X2173340Y1768045D1*
X2169029Y1772323D1*
Y1742212D1*
X1003866Y1781289D2*
Y1758342D1*
X1005292Y1754030D1*
X1006751Y1752605D1*
X1009603Y1751145D1*
X1012488D1*
X1015340Y1752605D1*
X1016766Y1754030D1*
X1018225Y1758342D1*
Y1761193D1*
X993144Y1774093D2*
Y1775519D1*
X991718Y1778404D1*
X990292Y1779830D1*
X987407Y1781256D1*
X981670D1*
X978818Y1779830D1*
X977392Y1778404D1*
X975933Y1775519D1*
Y1772667D1*
X977392Y1769782D1*
X980244Y1765504D1*
X994603Y1751145D1*
X974507D1*
X2051507Y1005599D2*
Y982651D1*
X2052933Y978340D1*
X2054392Y976914D1*
X2057244Y975455D1*
X2060129D1*
X2062981Y976914D1*
X2064407Y978340D1*
X2065866Y982651D1*
Y985503D1*
X2039358Y1005566D2*
X2023606D1*
X2032195Y994092D1*
X2027884D1*
X2025032Y992666D1*
X2023606Y991240D1*
X2022147Y986929D1*
Y984077D1*
X2023606Y979766D1*
X2026458Y976881D1*
X2030769Y975455D1*
X2035080D1*
X2039358Y976881D1*
X2040784Y978340D1*
X2042243Y981192D1*
X1650421Y997755D2*
Y974807D1*
X1651846Y970496D1*
X1653306Y969070D1*
X1656158Y967611D1*
X1659043D1*
X1661894Y969070D1*
X1663320Y970496D1*
X1664780Y974807D1*
Y977659D1*
X1626798Y967611D2*
Y997722D1*
X1641157Y977659D1*
X1619635D1*
X2126666Y1780190D2*
Y1757242D1*
X2128092Y1752931D1*
X2129551Y1751505D1*
X2132403Y1750046D1*
X2135288D1*
X2138140Y1751505D1*
X2139565Y1752931D1*
X2141025Y1757242D1*
Y1760094D1*
X2100191Y1780157D2*
X2114517D1*
X2115943Y1767257D1*
X2114517Y1768683D1*
X2110206Y1770142D1*
X2105928D1*
X2101617Y1768683D1*
X2098732Y1765831D1*
X2097306Y1761520D1*
Y1758668D1*
X2098732Y1754357D1*
X2101617Y1751472D1*
X2105928Y1750046D1*
X2110206D1*
X2114517Y1751472D1*
X2115943Y1752931D1*
X2117402Y1755783D1*
X2446903Y1000711D2*
Y977763D1*
X2448329Y973452D1*
X2449788Y972026D1*
X2452640Y970567D1*
X2455525D1*
X2458377Y972026D1*
X2459803Y973452D1*
X2461262Y977763D1*
Y980615D1*
X2420429Y996400D2*
X2421855Y999252D1*
X2426166Y1000678D1*
X2429018D1*
X2433329Y999252D1*
X2436214Y994941D1*
X2437640Y987778D1*
Y980615D1*
X2436214Y974878D1*
X2433329Y971993D1*
X2429018Y970567D1*
X2427592D1*
X2423314Y971993D1*
X2420429Y974878D1*
X2419003Y979189D1*
Y980615D1*
X2420429Y984926D1*
X2423314Y987778D1*
X2427592Y989204D1*
X2429018D1*
X2433329Y987778D1*
X2436214Y984926D1*
X2437640Y980615D1*
X1052222Y1792376D2*
Y1769428D1*
X1053648Y1765117D1*
X1055107Y1763691D1*
X1057959Y1762232D1*
X1060844D1*
X1063696Y1763691D1*
X1065122Y1765117D1*
X1066581Y1769428D1*
Y1772280D1*
X1037221Y1762232D2*
X1022862Y1792343D1*
X1042958D1*
X1523094Y1004628D2*
Y981680D1*
X1524520Y977369D1*
X1525979Y975943D1*
X1528831Y974484D1*
X1531716D1*
X1534568Y975943D1*
X1535994Y977369D1*
X1537453Y981680D1*
Y984532D1*
X1506667Y1004595D2*
X1510945Y1003169D1*
X1512404Y1000317D1*
Y997432D1*
X1510945Y994580D1*
X1508093Y993121D1*
X1502356Y991695D1*
X1498045Y990269D1*
X1495193Y987384D1*
X1493767Y984532D1*
Y980221D1*
X1495193Y977369D1*
X1496619Y975910D1*
X1500930Y974484D1*
X1506667D1*
X1510945Y975910D1*
X1512404Y977369D1*
X1513830Y980221D1*
Y984532D1*
X1512404Y987384D1*
X1509519Y990269D1*
X1505241Y991695D1*
X1499504Y993121D1*
X1496619Y994580D1*
X1495193Y997432D1*
Y1000317D1*
X1496619Y1003169D1*
X1500930Y1004595D1*
X1506667D1*
X1104798Y1001169D2*
Y978221D1*
X1106224Y973910D1*
X1107683Y972484D1*
X1110535Y971025D1*
X1113420D1*
X1116272Y972484D1*
X1117698Y973910D1*
X1119157Y978221D1*
Y981073D1*
X1076864Y991121D2*
X1078323Y986810D1*
X1081175Y983925D1*
X1085486Y982499D1*
X1086912D1*
X1091223Y983925D1*
X1094075Y986810D1*
X1095534Y991121D1*
Y992547D1*
X1094075Y996858D1*
X1091223Y999710D1*
X1086912Y1001136D1*
X1085486D1*
X1081175Y999710D1*
X1078323Y996858D1*
X1076864Y991121D1*
Y983925D1*
X1078323Y976762D1*
X1081175Y972451D1*
X1085486Y971025D1*
X1088338D1*
X1092649Y972451D1*
X1094075Y975336D1*
X2469679Y877745D2*
Y854797D1*
X2471105Y850486D1*
X2472564Y849060D1*
X2475416Y847601D1*
X2478301D1*
X2481153Y849060D1*
X2482579Y850486D1*
X2484038Y854797D1*
Y857649D1*
X2460415Y871975D2*
X2457530Y873434D1*
X2453219Y877712D1*
Y847601D1*
X2435334Y877712D2*
X2439645Y876286D1*
X2442530Y871975D1*
X2443956Y864812D1*
Y860501D1*
X2442530Y853338D1*
X2439645Y849027D1*
X2435334Y847601D1*
X2432482D1*
X2428171Y849027D1*
X2425319Y853338D1*
X2423860Y860501D1*
Y864812D1*
X2425319Y871975D1*
X2428171Y876286D1*
X2432482Y877712D1*
X2435334D1*
X2425319Y871975D2*
X2442530Y853338D1*
X2047700Y867023D2*
Y844075D1*
X2049126Y839764D1*
X2050585Y838338D1*
X2053437Y836879D1*
X2056322D1*
X2059174Y838338D1*
X2060600Y839764D1*
X2062059Y844075D1*
Y846927D1*
X2038436Y861253D2*
X2035551Y862712D1*
X2031240Y866990D1*
Y836879D1*
X2021977Y861253D2*
X2019092Y862712D1*
X2014781Y866990D1*
Y836879D1*
X1653898Y862867D2*
Y839919D1*
X1655324Y835608D1*
X1656783Y834182D1*
X1659635Y832723D1*
X1662520D1*
X1665372Y834182D1*
X1666798Y835608D1*
X1668257Y839919D1*
Y842771D1*
X1644634Y857097D2*
X1641749Y858556D1*
X1637438Y862834D1*
Y832723D1*
X1626716Y855671D2*
Y857097D1*
X1625290Y859982D1*
X1623864Y861408D1*
X1620979Y862834D1*
X1615242D1*
X1612390Y861408D1*
X1610964Y859982D1*
X1609505Y857097D1*
Y854245D1*
X1610964Y851360D1*
X1613816Y847082D1*
X1628175Y832723D1*
X1608079D1*
X1528432Y868963D2*
Y846015D1*
X1529858Y841704D1*
X1531317Y840278D1*
X1534169Y838819D1*
X1537054D1*
X1539906Y840278D1*
X1541332Y841704D1*
X1542791Y846015D1*
Y848867D1*
X1519169Y863193D2*
X1516284Y864652D1*
X1511972Y868929D1*
Y838819D1*
X1499824Y868929D2*
X1484072D1*
X1492661Y857456D1*
X1488350D1*
X1485498Y856030D1*
X1484072Y854604D1*
X1482613Y850293D1*
Y847441D1*
X1484072Y843130D1*
X1486924Y840245D1*
X1491235Y838819D1*
X1495546D1*
X1499824Y840245D1*
X1501250Y841704D1*
X1502709Y844556D1*
X1116629Y868963D2*
Y846015D1*
X1118055Y841704D1*
X1119514Y840278D1*
X1122366Y838819D1*
X1125251D1*
X1128103Y840278D1*
X1129529Y841704D1*
X1130988Y846015D1*
Y848867D1*
X1107366Y863193D2*
X1104481Y864652D1*
X1100170Y868929D1*
Y838819D1*
X1076547D2*
Y868929D1*
X1090906Y848867D1*
X1069384D1*
X727262Y863274D2*
Y840326D1*
X728687Y836015D1*
X730147Y834589D1*
X732998Y833130D1*
X735884D1*
X738735Y834589D1*
X740161Y836015D1*
X741621Y840326D1*
Y843178D1*
X717998Y857504D2*
X715113Y858963D1*
X710802Y863241D1*
Y833130D1*
X684327Y863241D2*
X698653D1*
X700079Y850341D1*
X698653Y851767D1*
X694342Y853226D1*
X690064D1*
X685753Y851767D1*
X682868Y848915D1*
X681442Y844604D1*
Y841752D1*
X682868Y837441D1*
X685753Y834556D1*
X690064Y833130D1*
X694342D1*
X698653Y834556D1*
X700079Y836015D1*
X701538Y838867D1*
X737470Y994388D2*
Y971440D1*
X738896Y967129D1*
X740355Y965703D1*
X743207Y964244D1*
X746092D1*
X748944Y965703D1*
X750370Y967129D1*
X751829Y971440D1*
Y974292D1*
X728207Y988618D2*
X725322Y990077D1*
X721011Y994355D1*
Y964244D1*
X694536Y990077D2*
X695962Y992929D1*
X700273Y994355D1*
X703125D1*
X707436Y992929D1*
X710321Y988618D1*
X711747Y981455D1*
Y974292D1*
X710321Y968555D1*
X707436Y965670D1*
X703125Y964244D1*
X701699D1*
X697421Y965670D1*
X694536Y968555D1*
X693110Y972866D1*
Y974292D1*
X694536Y978603D1*
X697421Y981455D1*
X701699Y982881D1*
X703125D1*
X707436Y981455D1*
X710321Y978603D1*
X711747Y974292D1*
X2467039Y4214649D2*
X2497183D1*
Y4197438D1*
X2467039Y4169538D2*
Y4188175D1*
X2497183Y4188174D1*
Y4169538D1*
X2481398Y4188174D2*
Y4176701D1*
X2467039Y4160274D2*
X2497183D1*
Y4150226D1*
X2495723Y4145915D1*
X2492872Y4143030D1*
X2489987Y4141604D1*
X2485709Y4140178D1*
X2478513D1*
X2474202Y4141604D1*
X2471350Y4143030D1*
X2468465Y4145915D1*
X2467039Y4150226D1*
Y4160274D1*
X2472809Y4130915D2*
X2471350Y4128030D1*
X2467072Y4123719D1*
X2497183D1*
X467039Y4221099D2*
X497183D1*
Y4203888D1*
X467039Y4175988D2*
Y4194624D1*
X497183D1*
Y4175988D1*
X481398Y4194624D2*
Y4183150D1*
X467039Y4166724D2*
X497183D1*
Y4156676D1*
X495723Y4152365D1*
X492872Y4149480D1*
X489987Y4148054D1*
X485709Y4146628D1*
X478513D1*
X474202Y4148054D1*
X471350Y4149480D1*
X468465Y4152365D1*
X467039Y4156676D1*
Y4166724D1*
X474235Y4135905D2*
X472809D1*
X469924Y4134479D1*
X468498Y4133054D1*
X467072Y4130168D1*
Y4124431D1*
X468498Y4121580D1*
X469924Y4120154D1*
X472809Y4118695D1*
X475661D1*
X478546Y4120154D1*
X482824Y4123006D1*
X497183Y4137364D1*
Y4117269D1*
X2467039Y3221099D2*
X2497183D1*
Y3203888D1*
X2467039Y3175988D2*
Y3194624D1*
X2497183D1*
Y3175988D1*
X2481398Y3194624D2*
Y3183150D1*
X2467039Y3166724D2*
X2497183D1*
Y3156676D1*
X2495723Y3152365D1*
X2492872Y3149480D1*
X2489987Y3148054D1*
X2485709Y3146628D1*
X2478513D1*
X2474202Y3148054D1*
X2471350Y3149480D1*
X2468465Y3152365D1*
X2467039Y3156676D1*
Y3166724D1*
X2467072Y3134479D2*
Y3118728D1*
X2478546Y3127317D1*
Y3123006D1*
X2479972Y3120154D1*
X2481398Y3118728D1*
X2485709Y3117269D1*
X2488560D1*
X2492872Y3118728D1*
X2495757Y3121580D1*
X2497183Y3125891D1*
Y3130202D1*
X2495757Y3134479D1*
X2494298Y3135905D1*
X2491446Y3137364D1*
X467039Y3221812D2*
X497183D1*
Y3204601D1*
X467039Y3176701D2*
Y3195337D1*
X497183D1*
Y3176701D1*
X481398Y3195337D2*
Y3183863D1*
X467039Y3167437D2*
X497183D1*
Y3157389D1*
X495723Y3153078D1*
X492872Y3150193D1*
X489987Y3148767D1*
X485709Y3147341D1*
X478513D1*
X474202Y3148767D1*
X471350Y3150193D1*
X468465Y3153078D1*
X467039Y3157389D1*
Y3167437D1*
X497183Y3123718D2*
X467072Y3123719D1*
X487135Y3138077D1*
Y3116556D1*
X1633599Y2464299D2*
Y2434155D1*
X1616388D1*
X1588488Y2464299D2*
X1607124D1*
Y2434155D1*
X1588488D1*
X1607124Y2449940D2*
X1595650D1*
X1579224Y2464299D2*
Y2434155D1*
X1569176D1*
X1564865Y2435614D1*
X1561980Y2438466D1*
X1560554Y2441351D1*
X1559128Y2445629D1*
Y2452825D1*
X1560554Y2457136D1*
X1561980Y2459988D1*
X1564865Y2462873D1*
X1569176Y2464299D1*
X1579224D1*
X1532654Y2464265D2*
X1546979D1*
X1548405Y2451366D1*
X1546979Y2452791D1*
X1542668Y2454251D1*
X1538390D1*
X1534079Y2452791D1*
X1531194Y2449940D1*
X1529768Y2445629D1*
Y2442777D1*
X1531194Y2438466D1*
X1534079Y2435581D1*
X1538390Y2434155D1*
X1542668D1*
X1546979Y2435581D1*
X1548405Y2437040D1*
X1549864Y2439892D1*
X2742195Y967754D2*
X2772339D1*
Y950543D1*
X2742195Y922643D2*
Y941279D1*
X2772339D1*
Y922642D1*
X2756554Y941279D2*
Y929805D1*
X2742195Y913379D2*
X2772339D1*
Y903331D1*
X2770880Y899020D1*
X2768028Y896135D1*
X2765143Y894709D1*
X2760865Y893283D1*
X2753669D1*
X2749358Y894709D1*
X2746506Y896135D1*
X2743621Y899020D1*
X2742195Y903331D1*
Y913379D1*
X2746506Y866809D2*
X2743654Y868235D1*
X2742228Y872546D1*
Y875397D1*
X2743654Y879708D1*
X2747965Y882594D1*
X2755128Y884019D1*
X2762291D1*
X2768028Y882593D1*
X2770913Y879708D1*
X2772339Y875397D1*
Y873971D1*
X2770913Y869694D1*
X2768028Y866809D1*
X2763717Y865383D1*
X2762291D1*
X2757980Y866809D1*
X2755128Y869694D1*
X2753702Y873972D1*
Y875397D1*
X2755128Y879708D1*
X2757980Y882594D1*
X2762291Y884019D1*
X2360814Y965380D2*
X2390958D1*
Y948169D1*
X2360814Y920268D2*
Y938905D1*
X2390958D1*
Y920268D1*
X2375173Y938905D2*
Y927431D1*
X2360814Y911005D2*
X2390958D1*
Y900957D1*
X2389499Y896646D1*
X2386647Y893761D1*
X2383762Y892335D1*
X2379484Y890909D1*
X2372288D1*
X2367977Y892335D1*
X2365125Y893761D1*
X2362240Y896646D1*
X2360814Y900957D1*
Y911005D1*
X2390958Y875908D2*
X2360847Y861549D1*
Y881645D1*
X1960297Y967431D2*
X1990441D1*
Y950220D1*
X1960297Y922320D2*
Y940957D1*
X1990441D1*
Y922320D1*
X1974656Y940957D2*
Y929483D1*
X1960297Y913057D2*
X1990441Y913056D1*
Y903008D1*
X1988982Y898697D1*
X1986130Y895812D1*
X1983245Y894386D1*
X1978967Y892961D1*
X1971771D1*
X1967460Y894387D1*
X1964608Y895812D1*
X1961723Y898698D1*
X1960297Y903009D1*
Y913057D1*
X1960330Y876534D2*
X1961756Y880812D1*
X1964608Y882271D1*
X1967493D1*
X1970345Y880812D1*
X1971804Y877960D1*
X1973230Y872223D1*
X1974656Y867912D1*
X1977541Y865060D1*
X1980393Y863634D1*
X1984704D1*
X1987556Y865060D1*
X1989015Y866486D1*
X1990441Y870797D1*
Y876534D1*
X1989015Y880812D1*
X1987556Y882271D1*
X1984704Y883697D1*
X1980393D1*
X1977541Y882271D1*
X1974656Y879386D1*
X1973230Y875108D1*
X1971804Y869371D1*
X1970345Y866486D1*
X1967493Y865060D1*
X1964608D1*
X1961756Y866486D1*
X1960330Y870797D1*
Y876534D1*
X1180380Y967874D2*
X1210524D1*
Y950663D1*
X1180380Y922763D2*
Y941400D1*
X1210524D1*
Y922763D1*
X1194739Y941400D2*
Y929926D1*
X1180380Y913499D2*
X1210524D1*
Y903451D1*
X1209065Y899140D1*
X1206213Y896255D1*
X1203328Y894829D1*
X1199050Y893403D1*
X1191854D1*
X1187543Y894829D1*
X1184691Y896255D1*
X1181806Y899140D1*
X1180380Y903451D1*
Y913499D1*
X1190428Y865470D2*
X1194739Y866929D1*
X1197624Y869781D1*
X1199050Y874092D1*
Y875518D1*
X1197624Y879829D1*
X1194739Y882681D1*
X1190428Y884140D1*
X1189002D1*
X1184691Y882681D1*
X1181839Y879829D1*
X1180413Y875518D1*
Y874092D1*
X1181839Y869781D1*
X1184691Y866929D1*
X1190428Y865470D1*
X1197624D1*
X1204787Y866929D1*
X1209098Y869781D1*
X1210524Y874092D1*
Y876944D1*
X1209098Y881255D1*
X1206213Y882681D1*
X767863Y981368D2*
X798007D1*
Y964157D1*
X767863Y936257D2*
Y954894D1*
X798007D1*
Y936257D1*
X782222Y954894D2*
Y943420D1*
X767863Y926993D2*
X798007D1*
Y916945D1*
X796548Y912634D1*
X793696Y909749D1*
X790811Y908323D1*
X786533Y906897D1*
X779337D1*
X775026Y908323D1*
X772174Y909749D1*
X769289Y912634D1*
X767863Y916945D1*
Y926993D1*
X773633Y897634D2*
X772174Y894749D1*
X767896Y890438D1*
X798007D1*
X767896Y872552D2*
X769322Y876863D1*
X773633Y879748D1*
X780796Y881174D1*
X785107D1*
X792270Y879748D1*
X796581Y876863D1*
X798007Y872552D1*
Y869700D1*
X796581Y865389D1*
X792270Y862537D1*
X785107Y861078D1*
X780796D1*
X773633Y862537D1*
X769322Y865389D1*
X767896Y869700D1*
Y872552D1*
X773633Y862537D2*
X792270Y879748D1*
X384612Y972643D2*
X414756D1*
Y955432D1*
X384612Y927531D2*
Y946168D1*
X414756D1*
Y927531D1*
X398971Y946168D2*
Y934694D1*
X384612Y918268D2*
X414756D1*
Y908220D1*
X413297Y903909D1*
X410445Y901024D1*
X407560Y899598D1*
X403282Y898172D1*
X396086D1*
X391775Y899598D1*
X388923Y901024D1*
X386038Y903909D1*
X384612Y908220D1*
Y918268D1*
X390382Y888908D2*
X388923Y886023D1*
X384645Y881712D1*
X414756D1*
X390382Y872449D2*
X388923Y869563D1*
X384645Y865252D1*
X414756D1*
X539885Y1610356D2*
Y1580212D1*
X522674D1*
X494774Y1610356D2*
X513411D1*
Y1580212D1*
X494774D1*
X513411Y1595997D2*
X501937D1*
X485510Y1610356D2*
Y1580212D1*
X475462D1*
X471151Y1581671D1*
X468266Y1584523D1*
X466840Y1587408D1*
X465414Y1591686D1*
Y1598882D1*
X466840Y1603193D1*
X468266Y1606045D1*
X471151Y1608930D1*
X475462Y1610356D1*
X485510D1*
X456151Y1604586D2*
X453266Y1606045D1*
X448955Y1610323D1*
Y1580212D1*
X438232Y1603160D2*
Y1604586D1*
X436806Y1607471D1*
X435380Y1608897D1*
X432495Y1610323D1*
X426758D1*
X423906Y1608897D1*
X422480Y1607471D1*
X421021Y1604586D1*
Y1601734D1*
X422480Y1598849D1*
X425332Y1594571D1*
X439691Y1580212D1*
X419595D1*
X1607124Y4238719D2*
X1594225D1*
X1589913Y4240178D1*
X1588454Y4241604D1*
X1587028Y4244456D1*
Y4247341D1*
X1588454Y4250193D1*
X1589913Y4251652D1*
X1594225Y4253078D1*
X1607124D1*
Y4222934D1*
X1597076Y4238719D2*
X1587028Y4222934D1*
X1563406D2*
Y4253045D1*
X1577765Y4232982D1*
X1556243D1*
X2314641Y4638719D2*
X2301741D1*
X2297430Y4640178D1*
X2295971Y4641604D1*
X2294545Y4644456D1*
Y4647341D1*
X2295971Y4650193D1*
X2297430Y4651652D1*
X2301741Y4653078D1*
X2314641D1*
Y4622934D1*
X2304593Y4638719D2*
X2294545Y4622934D1*
X2285282Y4647308D2*
X2282397Y4648767D1*
X2278086Y4653045D1*
Y4622934D1*
X2265937Y4653045D2*
X2250185D1*
X2258774Y4641571D1*
X2254463D1*
X2251611Y4640145D1*
X2250185Y4638719D1*
X2248726Y4634408D1*
Y4631556D1*
X2250185Y4627245D1*
X2253037Y4624360D1*
X2257348Y4622934D1*
X2261659D1*
X2265937Y4624360D1*
X2267363Y4625819D1*
X2268822Y4628671D1*
X915354Y4638719D2*
X902454D1*
X898143Y4640178D1*
X896684Y4641604D1*
X895258Y4644456D1*
Y4647341D1*
X896684Y4650193D1*
X898143Y4651652D1*
X902454Y4653078D1*
X915354D1*
Y4622934D1*
X905306Y4638719D2*
X895258Y4622934D1*
X885995Y4647308D2*
X883110Y4648767D1*
X878799Y4653045D1*
Y4622934D1*
X855176D2*
Y4653045D1*
X869535Y4632982D1*
X848013D1*
X1613912Y3038719D2*
X1601012D1*
X1596701Y3040178D1*
X1595242Y3041604D1*
X1593816Y3044456D1*
Y3047341D1*
X1595242Y3050193D1*
X1596701Y3051652D1*
X1601012Y3053078D1*
X1613912D1*
Y3022934D1*
X1603864Y3038719D2*
X1593816Y3022934D1*
X1584552Y3047308D2*
X1581667Y3048767D1*
X1577356Y3053045D1*
Y3022934D1*
X1550882Y3048767D2*
X1552308Y3051619D1*
X1556619Y3053045D1*
X1559470D1*
X1563781Y3051619D1*
X1566667Y3047308D1*
X1568093Y3040145D1*
Y3032982D1*
X1566667Y3027245D1*
X1563781Y3024360D1*
X1559470Y3022934D1*
X1558045D1*
X1553767Y3024360D1*
X1550882Y3027245D1*
X1549456Y3031556D1*
Y3032982D1*
X1550882Y3037293D1*
X1553767Y3040145D1*
X1558045Y3041571D1*
X1559470D1*
X1563781Y3040145D1*
X1566667Y3037293D1*
X1568093Y3032982D1*
X2321091Y3638719D2*
X2308191D1*
X2303880Y3640178D1*
X2302421Y3641604D1*
X2300995Y3644456D1*
Y3647341D1*
X2302421Y3650193D1*
X2303880Y3651652D1*
X2308191Y3653078D1*
X2321091D1*
Y3622934D1*
X2311043Y3638719D2*
X2300995Y3622934D1*
X2290273Y3645882D2*
Y3647308D1*
X2288847Y3650193D1*
X2287421Y3651619D1*
X2284536Y3653045D1*
X2278799D1*
X2275947Y3651619D1*
X2274521Y3650193D1*
X2273062Y3647308D1*
Y3644456D1*
X2274521Y3641571D1*
X2277373Y3637293D1*
X2291732Y3622934D1*
X2271636D1*
X2253750Y3653045D2*
X2258061Y3651619D1*
X2260946Y3647308D1*
X2262372Y3640145D1*
Y3635834D1*
X2260946Y3628671D1*
X2258061Y3624360D1*
X2253750Y3622934D1*
X2250898D1*
X2246587Y3624360D1*
X2243735Y3628671D1*
X2242276Y3635834D1*
Y3640145D1*
X2243735Y3647308D1*
X2246587Y3651619D1*
X2250898Y3653045D1*
X2253750D1*
X2243735Y3647308D2*
X2260946Y3628671D1*
X914641Y3638719D2*
X901741D1*
X897430Y3640178D1*
X895971Y3641604D1*
X894545Y3644456D1*
Y3647341D1*
X895971Y3650193D1*
X897430Y3651652D1*
X901741Y3653078D1*
X914641D1*
Y3622934D1*
X904593Y3638719D2*
X894545Y3622934D1*
X883823Y3645882D2*
Y3647308D1*
X882397Y3650193D1*
X880971Y3651619D1*
X878086Y3653045D1*
X872349D1*
X869497Y3651619D1*
X868071Y3650193D1*
X866612Y3647308D1*
Y3644456D1*
X868071Y3641571D1*
X870923Y3637293D1*
X885282Y3622934D1*
X865186D1*
X855922Y3647308D2*
X853037Y3648767D1*
X848726Y3653045D1*
Y3622934D1*
X2321091Y2638719D2*
X2308191D1*
X2303880Y2640178D1*
X2302421Y2641604D1*
X2300995Y2644456D1*
Y2647341D1*
X2302421Y2650193D1*
X2303880Y2651652D1*
X2308191Y2653078D1*
X2321091D1*
Y2622934D1*
X2311043Y2638719D2*
X2300995Y2622934D1*
X2288847Y2653045D2*
X2273095D1*
X2281684Y2641571D1*
X2277373D1*
X2274521Y2640145D1*
X2273095Y2638719D1*
X2271636Y2634408D1*
Y2631556D1*
X2273095Y2627245D1*
X2275947Y2624360D1*
X2280258Y2622934D1*
X2284569D1*
X2288847Y2624360D1*
X2290273Y2625819D1*
X2291732Y2628671D1*
X2256635Y2622934D2*
X2242276Y2653045D1*
X2262372D1*
X921075Y2638719D2*
X908175D1*
X903864Y2640178D1*
X902405Y2641604D1*
X900979Y2644456D1*
Y2647341D1*
X902405Y2650193D1*
X903864Y2651652D1*
X908175Y2653078D1*
X921075D1*
Y2622934D1*
X911027Y2638719D2*
X900979Y2622934D1*
X888830Y2653045D2*
X873078D1*
X881667Y2641571D1*
X877356D1*
X874504Y2640145D1*
X873078Y2638719D1*
X871619Y2634408D1*
Y2631556D1*
X873078Y2627245D1*
X875930Y2624360D1*
X880241Y2622934D1*
X884552D1*
X888830Y2624360D1*
X890256Y2625819D1*
X891715Y2628671D1*
X855193Y2653045D2*
X859470Y2651619D1*
X860930Y2648767D1*
Y2645882D1*
X859470Y2643030D1*
X856619Y2641571D1*
X850882Y2640145D1*
X846571Y2638719D1*
X843719Y2635834D1*
X842293Y2632982D1*
Y2628671D1*
X843719Y2625819D1*
X845145Y2624360D1*
X849456Y2622934D1*
X855193D1*
X859470Y2624360D1*
X860930Y2625819D1*
X862356Y2628671D1*
Y2632982D1*
X860930Y2635834D1*
X858045Y2638719D1*
X853767Y2640145D1*
X848030Y2641571D1*
X845145Y2643030D1*
X843719Y2645882D1*
Y2648767D1*
X845145Y2651619D1*
X849456Y2653045D1*
X855193D1*
X2413987Y3833347D2*
X2416839Y3836232D1*
X2421150Y3837658D1*
X2426887D1*
X2431198Y3836232D1*
X2434083Y3833347D1*
Y3830495D1*
X2432624Y3827610D1*
X2431198Y3826184D1*
X2428346Y3824758D1*
X2419724Y3821873D1*
X2416839Y3820447D1*
X2415413Y3818988D1*
X2413987Y3816136D1*
Y3811825D1*
X2416839Y3808973D1*
X2421150Y3807514D1*
X2426887D1*
X2431198Y3808973D1*
X2434083Y3811825D1*
X2404724Y3837658D2*
X2397528Y3807514D1*
X2390365Y3837658D1*
X2383202Y3807514D1*
X2376006Y3837658D1*
X2363857Y3837625D2*
X2348105D1*
X2356694Y3826151D1*
X2352383D1*
X2349531Y3824725D1*
X2348105Y3823299D1*
X2346646Y3818988D1*
Y3816136D1*
X2348105Y3811825D1*
X2350957Y3808940D1*
X2355268Y3807514D1*
X2359579D1*
X2363857Y3808940D1*
X2365283Y3810399D1*
X2366742Y3813251D1*
X789706Y3834282D2*
X792557Y3837167D1*
X796868Y3838593D1*
X802605D1*
X806916Y3837167D1*
X809802Y3834282D1*
Y3831430D1*
X808342Y3828545D1*
X806916Y3827119D1*
X804065Y3825693D1*
X795443Y3822808D1*
X792557Y3821382D1*
X791132Y3819923D1*
X789706Y3817071D1*
Y3812760D1*
X792557Y3809908D1*
X796868Y3808449D1*
X802605D1*
X806916Y3809908D1*
X809802Y3812760D1*
X780442Y3838593D2*
X773246Y3808449D1*
X766083Y3838593D1*
X758920Y3808449D1*
X751724Y3838593D1*
X728101Y3808449D2*
Y3838559D1*
X742460Y3818497D1*
X720938D1*
X2426487Y2808347D2*
X2429339Y2811232D1*
X2433650Y2812658D1*
X2439387D1*
X2443698Y2811232D1*
X2446583Y2808347D1*
Y2805495D1*
X2445124Y2802610D1*
X2443698Y2801184D1*
X2440846Y2799758D1*
X2432224Y2796873D1*
X2429339Y2795447D1*
X2427913Y2793988D1*
X2426487Y2791136D1*
Y2786825D1*
X2429339Y2783973D1*
X2433650Y2782514D1*
X2439387D1*
X2443698Y2783973D1*
X2446583Y2786825D1*
X2417224Y2812658D2*
X2410028Y2782514D1*
X2402865Y2812658D1*
X2395702Y2782514D1*
X2388506Y2812658D1*
X2362031Y2812625D2*
X2376357D1*
X2377783Y2799725D1*
X2376357Y2801151D1*
X2372046Y2802610D1*
X2367768D1*
X2363457Y2801151D1*
X2360572Y2798299D1*
X2359146Y2793988D1*
Y2791136D1*
X2360572Y2786825D1*
X2363457Y2783940D1*
X2367768Y2782514D1*
X2372046D1*
X2376357Y2783940D1*
X2377783Y2785399D1*
X2379242Y2788251D1*
X788258Y2820847D2*
X791110Y2823732D1*
X795421Y2825158D1*
X801158D1*
X805469Y2823732D1*
X808354Y2820847D1*
Y2817995D1*
X806895Y2815110D1*
X805469Y2813684D1*
X802617Y2812258D1*
X793995Y2809373D1*
X791110Y2807947D1*
X789684Y2806488D1*
X788258Y2803636D1*
Y2799325D1*
X791110Y2796473D1*
X795421Y2795014D1*
X801158D1*
X805469Y2796473D1*
X808354Y2799325D1*
X778994Y2825158D2*
X771798Y2795014D1*
X764635Y2825158D1*
X757472Y2795014D1*
X750276Y2825158D1*
X723802Y2820847D2*
X725228Y2823699D1*
X729539Y2825125D1*
X732391D1*
X736702Y2823699D1*
X739587Y2819388D1*
X741013Y2812225D1*
Y2805062D1*
X739587Y2799325D1*
X736702Y2796440D1*
X732391Y2795014D1*
X730965D1*
X726687Y2796440D1*
X723802Y2799325D1*
X722376Y2803636D1*
Y2805062D1*
X723802Y2809373D1*
X726687Y2812225D1*
X730965Y2813651D1*
X732391D1*
X736702Y2812225D1*
X739587Y2809373D1*
X741013Y2805062D1*
X1605306Y1951806D2*
X1608158Y1954692D1*
X1612469Y1956118D1*
X1618206D1*
X1622517Y1954692D1*
X1625402Y1951806D1*
Y1948955D1*
X1623943Y1946070D1*
X1622517Y1944644D1*
X1619665Y1943218D1*
X1611043Y1940333D1*
X1608158Y1938907D1*
X1606732Y1937447D1*
X1605306Y1934596D1*
Y1930285D1*
X1608158Y1927433D1*
X1612469Y1925974D1*
X1618206D1*
X1622517Y1927433D1*
X1625402Y1930285D1*
X1596043Y1956118D2*
X1588847Y1925974D1*
X1581684Y1956118D1*
X1574521Y1925974D1*
X1567325Y1956118D1*
X1552324Y1925974D2*
X1537965Y1956084D1*
X1558061D1*
X1345791Y4677205D2*
Y4655683D1*
X1344365Y4651372D1*
X1341480Y4648521D1*
X1337169Y4647061D1*
X1334317D1*
X1330006Y4648521D1*
X1327121Y4651372D1*
X1325695Y4655683D1*
Y4677205D1*
X1316431Y4671435D2*
X1313546Y4672894D1*
X1309235Y4677172D1*
Y4647061D1*
X1857161Y4682124D2*
Y4660602D1*
X1855735Y4656291D1*
X1852850Y4653439D1*
X1848539Y4651980D1*
X1845687D1*
X1841376Y4653439D1*
X1838491Y4656291D1*
X1837065Y4660602D1*
Y4682124D1*
X1826342Y4674928D2*
Y4676354D1*
X1824916Y4679239D1*
X1823490Y4680665D1*
X1820605Y4682091D1*
X1814868D1*
X1812016Y4680665D1*
X1810590Y4679239D1*
X1809131Y4676354D1*
Y4673502D1*
X1810590Y4670617D1*
X1813442Y4666339D1*
X1827801Y4651980D1*
X1807705D1*
X1153121Y3502523D2*
D131*
X1203361Y3469030D1*
X1153121D2*
X1203361Y3502523D1*
X1153121Y3404990D2*
X1203361D1*
Y3383434D1*
X1200930Y3376249D1*
X1198553Y3373873D1*
X1193800Y3371496D1*
X1186615D1*
X1181806Y3373873D1*
X1179430Y3376249D1*
X1177053Y3383434D1*
X1174621Y3376249D1*
X1172245Y3373873D1*
X1167491Y3371496D1*
X1162683D1*
X1157930Y3373873D1*
X1155498Y3376249D1*
X1153121Y3383434D1*
Y3404990D1*
X1177053D2*
Y3383434D1*
X1153121Y3356057D2*
X1203361D1*
Y3302316D2*
X1153121Y3321495D1*
X1203361Y3340618D1*
X1186615Y3333433D2*
Y3309501D1*
X1160306Y3253384D2*
X1155498Y3258137D1*
X1153121Y3265322D1*
Y3274883D1*
X1155498Y3282068D1*
X1160306Y3286877D1*
X1165060D1*
X1169868Y3284445D1*
X1172245Y3282068D1*
X1174621Y3277315D1*
X1179430Y3262945D1*
X1181806Y3258137D1*
X1184238Y3255760D1*
X1188991Y3253384D1*
X1196176D1*
X1200930Y3258137D1*
X1203361Y3265322D1*
Y3274883D1*
X1200930Y3282068D1*
X1196176Y3286877D1*
X1953123Y3485775D2*
X2003363D1*
X1953123Y3502522D2*
Y3469028D1*
Y3404988D2*
X2003363D1*
Y3383433D1*
X2000931Y3376248D1*
X1998554Y3373872D1*
X1993801Y3371495D1*
X1986616D1*
X1981808Y3373872D1*
X1979431Y3376248D1*
X1977054Y3383433D1*
X1974623Y3376248D1*
X1972246Y3373872D1*
X1967493Y3371495D1*
X1962684D1*
X1957931Y3373872D1*
X1955499Y3376248D1*
X1953123Y3383433D1*
Y3404988D1*
X1977054D2*
Y3383433D1*
X1953123Y3356056D2*
X2003363D1*
Y3302315D2*
X1953123Y3321493D1*
X2003363Y3340616D1*
X1986616Y3333431D2*
Y3309500D1*
X1960308Y3253382D2*
X1955499Y3258135D1*
X1953123Y3265320D1*
Y3274882D1*
X1955499Y3282067D1*
X1960308Y3286875D1*
X1965061D1*
X1969869Y3284444D1*
X1972246Y3282067D1*
X1974623Y3277314D1*
X1979431Y3262944D1*
X1981808Y3258135D1*
X1984239Y3255759D1*
X1988993Y3253382D1*
X1996178D1*
X2000931Y3258135D1*
X2003363Y3265320D1*
Y3274882D1*
X2000931Y3282067D1*
X1996178Y3286875D1*
X2545936Y2478590D2*
X2596176D1*
X2545936Y2495337D2*
Y2461843D1*
Y2373872D2*
X2584183D1*
X2591368Y2376248D1*
X2593744Y2378680D1*
X2596176Y2383433D1*
Y2388242D1*
X2593744Y2392995D1*
X2591368Y2395371D1*
X2584183Y2397803D1*
X2579430D1*
X2545936Y2358432D2*
X2596176D1*
X2545936Y2326246D2*
X2596176D1*
X2545936Y2342993D2*
Y2309500D1*
Y2277314D2*
X2596176D1*
X2545936Y2294061D2*
Y2260567D1*
X565715Y2540116D2*
X615955Y2506622D1*
X565715D2*
X615955Y2540116D1*
X572900Y2409089D2*
X568091Y2413842D1*
X565715Y2421027D1*
Y2430589D1*
X568091Y2437774D1*
X572900Y2442582D1*
X577653D1*
X582461Y2440150D1*
X584838Y2437774D1*
X587214Y2433020D1*
X592023Y2418650D1*
X594399Y2413842D1*
X596831Y2411465D1*
X601584Y2409089D1*
X608770D1*
X613523Y2413842D1*
X615955Y2421027D1*
Y2430589D1*
X613523Y2437774D1*
X608770Y2442582D1*
X565715Y2376903D2*
X615955D1*
X565715Y2393649D2*
Y2360156D1*
Y2313655D2*
Y2344717D1*
X615955D1*
Y2313655D1*
X589646Y2344717D2*
Y2325594D1*
X592023Y2298216D2*
Y2276661D1*
X589646Y2269531D1*
X587214Y2267099D1*
X582461Y2264723D1*
X575276D1*
X570523Y2267099D1*
X568091Y2269531D1*
X565715Y2276661D1*
Y2298216D1*
X615955D1*
X572900Y2215790D2*
X568091Y2220544D1*
X565715Y2227729D1*
Y2237290D1*
X568091Y2244475D1*
X572900Y2249284D1*
X577653D1*
X582461Y2246852D1*
X584838Y2244475D1*
X587214Y2239722D1*
X592023Y2225352D1*
X594399Y2220544D1*
X596831Y2218167D1*
X601584Y2215790D1*
X608770D1*
X613523Y2220544D1*
X615955Y2227729D1*
Y2237290D1*
X613523Y2244475D1*
X608770Y2249284D1*
X1691397Y4306085D2*
Y4255845D1*
X1674650D1*
X1667465Y4258276D1*
X1662656Y4263030D1*
X1660280Y4267838D1*
X1657903Y4274968D1*
Y4286961D1*
X1660280Y4294146D1*
X1662656Y4298900D1*
X1667465Y4303708D1*
X1674650Y4306085D1*
X1691397D1*
X1593863D2*
X1574740Y4255845D1*
X1555616Y4306085D1*
X1540177D2*
Y4270215D1*
X1537801Y4263030D1*
X1532992Y4258276D1*
X1525807Y4255845D1*
X1521054D1*
X1513869Y4258276D1*
X1509060Y4263030D1*
X1506684Y4270215D1*
Y4306085D1*
X1704976Y3131085D2*
Y3080845D1*
X1676292D1*
X1629791Y3131085D2*
X1660852D1*
Y3080845D1*
X1629791D1*
X1660852Y3107153D2*
X1641729D1*
X1580858Y3131085D2*
Y3080845D1*
X1614352Y3131085D1*
Y3080845D1*
X1529549Y3119146D2*
X1531926Y3123900D1*
X1536734Y3128708D1*
X1541487Y3131085D1*
X1551049D1*
X1555857Y3128708D1*
X1560611Y3123900D1*
X1563042Y3119146D1*
X1565419Y3111961D1*
Y3099968D1*
X1563042Y3092838D1*
X1560611Y3088030D1*
X1555857Y3083276D1*
X1551049Y3080845D1*
X1541487D1*
X1536734Y3083276D1*
X1531926Y3088030D1*
X1529549Y3092838D1*
Y3099968D1*
X1541487D1*
X1497363Y3131085D2*
Y3080845D1*
X1514110Y3131085D2*
X1480616D1*
X1465177D2*
Y3080845D1*
X1431684Y3131085D2*
Y3080845D1*
X1465177Y3107153D2*
X1431684D1*
X2568818Y4569286D2*
Y4547786D1*
X2566386Y4540601D1*
X2564010Y4538169D1*
X2559257Y4535793D1*
X2554448D1*
X2549695Y4538169D1*
X2547263Y4540601D1*
X2544886Y4547786D1*
Y4569286D1*
X2595126D1*
X2568818Y4552539D2*
X2595126Y4535793D1*
Y4482052D2*
X2544887Y4501230D1*
X2595126Y4520353D1*
X2578380Y4513168D2*
Y4489237D1*
X2544887Y4449866D2*
X2595126D1*
X2544887Y4466612D2*
Y4433119D1*
X2544886Y4386618D2*
Y4417680D1*
X2595127D1*
X2595126Y4386618D1*
X2568818Y4417680D2*
Y4398557D1*
X576003Y4559726D2*
X571195Y4564479D1*
X568818Y4571664D1*
Y4581226D1*
X571195Y4588411D1*
X576003Y4593219D1*
X580756D1*
X585565Y4590788D1*
X587941Y4588411D1*
X590318Y4583658D1*
X595127Y4569288D1*
X597503Y4564479D1*
X599935Y4562103D1*
X604688Y4559726D1*
X611873D1*
X616626Y4564479D1*
X619058Y4571664D1*
Y4581226D1*
X616626Y4588411D1*
X611873Y4593219D1*
X595127Y4544287D2*
Y4522732D1*
X592750Y4515602D1*
X590318Y4513170D1*
X585565Y4510793D1*
X578380D1*
X573627Y4513170D1*
X571195Y4515602D1*
X568818Y4522732D1*
Y4544287D1*
X619058D1*
X592750Y4495354D2*
Y4473854D1*
X590318Y4466669D1*
X587942Y4464237D1*
X583188Y4461861D1*
X578380D1*
X573627Y4464237D1*
X571195Y4466669D1*
X568818Y4473854D1*
Y4495354D1*
X619058D1*
X592750Y4478608D2*
X619058Y4461861D1*
X568818Y4415360D2*
Y4446422D1*
X619058D1*
Y4415360D1*
X592750Y4446422D2*
Y4427298D1*
X619058Y4361619D2*
X568818Y4380798D1*
X619058Y4399921D1*
X602312Y4392736D2*
Y4368804D1*
X568818Y4346180D2*
X619058D1*
Y4329433D1*
X616626Y4322248D1*
X611873Y4317440D1*
X607065Y4315063D1*
X599935Y4312687D1*
X587941D1*
X580756Y4315063D1*
X576003Y4317440D1*
X571195Y4322248D1*
X568818Y4329433D1*
Y4346180D1*
X1478264Y4517667D2*
X1521319D1*
X1499819Y4539167D2*
Y4496112D1*
X1685104Y4520913D2*
X1642049D1*
X1663548Y4499413D2*
Y4542468D1*
M02*
