G04 DipTrace 3.3.0.0*
G04 pachinko.GBS*
%MOIN*%
G04 #@! TF.FileFunction,Soldermask,Bot*
G04 #@! TF.Part,Single*
%AMOUTLINE1*
4,1,8,
0.017397,-0.042,
0.042,-0.017397,
0.042,0.017397,
0.017397,0.042,
-0.017397,0.042,
-0.042,0.017397,
-0.042,-0.017397,
-0.017397,-0.042,
0.017397,-0.042,
0*%
%AMOUTLINE4*
4,1,8,
0.015816,0.038184,
0.038184,0.015816,
0.038184,-0.015816,
0.015816,-0.038184,
-0.015816,-0.038184,
-0.038184,-0.015816,
-0.038184,0.015816,
-0.015816,0.038184,
0.015816,0.038184,
0*%
%AMOUTLINE7*
4,1,8,
0.012426,0.03,
0.03,0.012426,
0.03,-0.012426,
0.012426,-0.03,
-0.012426,-0.03,
-0.03,-0.012426,
-0.03,0.012426,
-0.012426,0.03,
0.012426,0.03,
0*%
%AMOUTLINE10*
4,1,8,
-0.012426,-0.03,
-0.03,-0.012426,
-0.03,0.012426,
-0.012426,0.03,
0.012426,0.03,
0.03,0.012426,
0.03,-0.012426,
0.012426,-0.03,
-0.012426,-0.03,
0*%
%ADD50C,0.074*%
%ADD72C,0.063118*%
%ADD74O,0.078X0.108*%
%ADD76O,0.062X0.082*%
%ADD80C,0.055559*%
%ADD86C,0.082*%
%ADD88R,0.082X0.082*%
%ADD90O,0.093X0.083*%
%ADD92C,0.073*%
%ADD94O,0.083X0.093*%
%ADD134OUTLINE1*%
%ADD137OUTLINE4*%
%ADD140OUTLINE7*%
%ADD143OUTLINE10*%
%FSLAX26Y26*%
G04*
G70*
G90*
G75*
G01*
G04 BotMask*
%LPD*%
D134*
X2269184Y3944184D3*
X2169184D3*
X2069184D3*
D94*
X2244684Y1619184D3*
X2569684D3*
D92*
X2144684D3*
D94*
X918684D3*
X593684D3*
D92*
X1018684D3*
D90*
X2181684Y1057184D3*
Y1382184D3*
D92*
Y957184D3*
D90*
X1781684Y1057184D3*
Y1382184D3*
D92*
Y957184D3*
D94*
X2043684Y1619184D3*
X1718684D3*
D92*
X2143684D3*
D90*
X2581684Y1057184D3*
Y1382184D3*
D92*
Y957184D3*
D94*
X1119684Y1619184D3*
X1444684D3*
D92*
X1019684D3*
D90*
X1381684Y1057184D3*
Y1382184D3*
D92*
Y957184D3*
D90*
X981684Y1057184D3*
Y1382184D3*
D92*
Y957184D3*
D90*
X2581684Y781184D3*
Y456184D3*
D92*
Y881184D3*
D90*
X2181684Y781184D3*
Y456184D3*
D92*
Y881184D3*
D90*
X1781684Y781184D3*
Y456184D3*
D92*
Y881184D3*
D90*
X1381684Y781184D3*
Y456184D3*
D92*
Y881184D3*
D90*
X981684Y781184D3*
Y456184D3*
D92*
Y881184D3*
D90*
X581684Y781184D3*
Y456184D3*
D92*
Y881184D3*
D90*
Y1057184D3*
Y1382184D3*
D92*
Y957184D3*
D88*
X506684Y3369184D3*
D86*
Y3469184D3*
Y3569184D3*
Y3669184D3*
D50*
X494184Y4481684D3*
Y4581684D3*
D137*
X1256684Y3831684D3*
X1156684D3*
X1256684Y3931684D3*
X1156684D3*
X1256684Y4031684D3*
X1156684D3*
X1256684Y4131684D3*
X1156684D3*
X1256684Y4231684D3*
X1156684D3*
D80*
X2581684Y4169184D3*
Y4069184D3*
Y4269184D3*
X581684Y4169184D3*
Y4069184D3*
Y4269184D3*
X2581684Y3169184D3*
Y3069184D3*
Y3269184D3*
X581684Y3169184D3*
Y3069184D3*
Y3269184D3*
X1581684Y2369184D3*
X1681684D3*
X1481684D3*
D140*
X2681684Y869184D3*
Y969184D3*
X2281684Y869184D3*
Y969184D3*
X1881684Y869184D3*
Y969184D3*
D143*
X1280865D3*
Y869184D3*
X880865Y969184D3*
Y869184D3*
X481684Y969184D3*
Y869184D3*
Y1544184D3*
Y1444184D3*
D76*
X1483258Y3718593D3*
X1581684D3*
X1680109D3*
D74*
X1396644Y3994184D3*
X1766723D3*
D76*
X2183258Y4118593D3*
X2281684D3*
X2380109D3*
D74*
X2096644Y4394184D3*
X2466723D3*
D76*
X783258Y4118593D3*
X881684D3*
X980109D3*
D74*
X696644Y4394184D3*
X1066723D3*
D76*
X1483258Y2518593D3*
X1581684D3*
X1680109D3*
D74*
X1396644Y2794184D3*
X1766723D3*
D76*
X2183258Y3118593D3*
X2281684D3*
X2380109D3*
D74*
X2096644Y3394184D3*
X2466723D3*
D76*
X783258Y3118593D3*
X881684D3*
X980109D3*
D74*
X696644Y3394184D3*
X1066723D3*
D76*
X2183258Y2118593D3*
X2281684D3*
X2380109D3*
D74*
X2096644Y2394184D3*
X2466723D3*
D76*
X783258Y2118593D3*
X881684D3*
X980109D3*
D74*
X696644Y2394184D3*
X1066723D3*
D50*
X2492684Y4047184D3*
Y3791184D3*
X2670684Y4047184D3*
Y3791184D3*
X670684D3*
Y4047184D3*
X492684Y3791184D3*
Y4047184D3*
X2492684Y3022184D3*
Y2766184D3*
X2670684Y3022184D3*
Y2766184D3*
X670684D3*
Y3022184D3*
X492684Y2766184D3*
Y3022184D3*
D86*
X1670684Y1994184D3*
Y2250184D3*
X1492684Y1994184D3*
Y2250184D3*
D72*
X1434044Y4619396D3*
Y4419396D3*
X1229321D3*
Y4619396D3*
X1225384Y4519396D3*
X1437981D3*
X1729323Y4419184D3*
Y4619184D3*
X1934046D3*
Y4419184D3*
X1937983Y4519184D3*
X1725386D3*
M02*
