G04 DipTrace 3.3.0.0*
G04 pachinko.GTP*
%MOIN*%
G04 #@! TF.FileFunction,Paste,Top*
G04 #@! TF.Part,Single*
%ADD79R,0.047118X0.066803*%
%ADD83R,0.019559X0.025465*%
%ADD85R,0.041213X0.027433*%
%ADD97R,0.03137X0.019559*%
%ADD99R,0.062866X0.007748*%
%ADD107R,0.003811X0.039244*%
%ADD109R,0.039244X0.003811*%
%ADD113R,0.019559X0.011685*%
%ADD115R,0.03137X0.047118*%
%ADD117R,0.03137X0.078614*%
%ADD119R,0.043181X0.051055*%
%ADD121R,0.035307X0.03137*%
%ADD123R,0.062866X0.054992*%
%ADD125R,0.047118X0.094362*%
%ADD127R,0.03137X0.035307*%
%FSLAX26Y26*%
G04*
G70*
G90*
G75*
G01*
G04 TopPaste*
%LPD*%
D127*
X1874257Y3938090D3*
Y4005020D3*
D125*
X1600390Y4118965D3*
Y3957547D3*
D123*
X2093072Y4225804D3*
Y4115568D3*
D127*
X1919415Y2944184D3*
Y3011113D3*
D123*
X1865992Y4228211D3*
Y4117975D3*
D127*
X2181915Y2873613D3*
Y2806684D3*
D121*
X1095013Y3606171D3*
X1161942D3*
X1947749Y3370619D3*
X2014678D3*
X1949244Y3460147D3*
X2016173D3*
D119*
X1963930Y3561362D3*
X2038734D3*
D125*
X869384Y3305957D3*
Y3467374D3*
D121*
X1299513Y3477102D3*
X1232584D3*
D127*
X1815944Y2981324D3*
Y2914395D3*
D123*
X1023177Y2714605D3*
Y2604369D3*
D119*
X1384719Y3594222D3*
X1309916D3*
D127*
X1770636Y3581273D3*
Y3648202D3*
D121*
X2106236Y3309122D3*
X2173165D3*
X2101031Y3213858D3*
X2167961D3*
X1173367Y2977392D3*
X1106438D3*
D119*
X1179131Y3067963D3*
X1104328D3*
D121*
X1138739Y1917505D3*
X1205668D3*
D125*
X1581684Y1344184D3*
Y1505601D3*
X894184Y2319184D3*
Y2480601D3*
D127*
X1490814Y3581684D3*
Y3648613D3*
D121*
X831684Y1494184D3*
X764755D3*
X656018Y1881684D3*
X589089D3*
D125*
X594184Y2281684D3*
Y2120266D3*
D127*
X1863150Y3581534D3*
Y3648463D3*
D121*
X1945597Y3279455D3*
X2012526D3*
X1890148Y1981684D3*
X1823219D3*
X1873219Y1056684D3*
X1940148D3*
X1890148Y1619184D3*
X1823219D3*
X2479869Y1287171D3*
X2412940D3*
X1302648Y1120402D3*
X1235719D3*
X673219Y1119184D3*
X740148D3*
D127*
X1578314Y3581684D3*
Y3648613D3*
D121*
X1315148Y627648D3*
X1248219D3*
D127*
X1678314Y3581684D3*
Y3648613D3*
D121*
X715148Y627648D3*
X648219D3*
X2398219Y1569184D3*
X2465148D3*
X1940148Y1381684D3*
X1873219D3*
X2398219Y1744184D3*
X2465148D3*
X1306684Y1306684D3*
X1239755D3*
X673219D3*
X740148D3*
X511113Y1719184D3*
X444184D3*
X1940148Y1215148D3*
X1873219D3*
X1894184Y1806684D3*
X1827255D3*
X740148Y1206684D3*
X673219D3*
X1302648Y1215148D3*
X1235719D3*
X1952648Y569184D3*
X1885719D3*
X1052255Y1494184D3*
X1119184D3*
D127*
X1577648Y777648D3*
Y710719D3*
D121*
X2560719Y1494184D3*
X2627648D3*
Y1269184D3*
X2560719D3*
X1410719Y1756684D3*
X1477648D3*
X1783144Y1482349D3*
X1716215D3*
X1377648Y1490148D3*
X1310719D3*
X1727648Y1706684D3*
X1660719D3*
D117*
X869184Y3719184D3*
X969184D3*
Y3943987D3*
X869184D3*
D115*
X1162678Y2717287D3*
X1200080Y2630673D3*
X1125277D3*
D113*
X2073104Y2098678D3*
X2021923D3*
X1266234Y2087356D3*
X1215052D3*
D109*
X1799117Y3073908D3*
Y3093593D3*
Y3113278D3*
Y3132963D3*
Y3152648D3*
Y3172333D3*
Y3192018D3*
Y3211703D3*
Y3231388D3*
Y3251073D3*
Y3270758D3*
Y3290444D3*
Y3310129D3*
Y3329814D3*
Y3349499D3*
Y3369184D3*
D107*
X1713038Y3454262D3*
X1693353D3*
X1673668D3*
X1653983D3*
X1634298D3*
X1614613D3*
X1594928D3*
X1575243D3*
X1555558D3*
X1535873D3*
X1516188D3*
X1496503D3*
X1476818D3*
X1457132D3*
X1437447D3*
X1417762D3*
D109*
X1333684Y3369184D3*
Y3349499D3*
Y3329814D3*
Y3310129D3*
Y3290444D3*
Y3270758D3*
Y3251073D3*
Y3231388D3*
Y3211703D3*
Y3192018D3*
Y3172333D3*
Y3152648D3*
Y3132963D3*
Y3113278D3*
Y3093593D3*
Y3073908D3*
D107*
X1417762Y2987829D3*
X1437447D3*
X1457132D3*
X1476818D3*
X1496503D3*
X1516188D3*
X1535873D3*
X1555558D3*
X1575243D3*
X1594928D3*
X1614613D3*
X1634298D3*
X1653983D3*
X1673668D3*
X1693353D3*
X1713038D3*
G36*
X831285Y2587910D2*
X862786D1*
Y2643027D1*
X831285D1*
Y2587910D1*
G37*
G36*
X890345D2*
X921846D1*
Y2643027D1*
X890345D1*
Y2587910D1*
G37*
G36*
X772224D2*
X803726D1*
Y2643027D1*
X772224D1*
Y2587910D1*
G37*
G36*
X811610Y2693423D2*
X882461D1*
Y2780035D1*
X811610D1*
Y2693423D1*
G37*
D99*
X751951Y2006252D3*
Y1980661D3*
Y1955071D3*
Y1929480D3*
Y1903890D3*
Y1878299D3*
Y1852709D3*
Y1827118D3*
X1035416D3*
Y1852709D3*
Y1878299D3*
Y1903890D3*
Y1929480D3*
Y1955071D3*
Y1980661D3*
Y2006252D3*
X2032947Y1285227D3*
Y1259636D3*
Y1234046D3*
Y1208455D3*
Y1182865D3*
Y1157274D3*
Y1131684D3*
X2316420D3*
X2316412Y1157274D3*
Y1182865D3*
Y1208455D3*
Y1234046D3*
Y1259636D3*
Y1285227D3*
X2004219Y1877955D3*
Y1852365D3*
Y1826774D3*
Y1801184D3*
Y1775593D3*
Y1750003D3*
Y1724412D3*
X2287692D3*
X2287684Y1750003D3*
Y1775593D3*
Y1801184D3*
Y1826774D3*
Y1852365D3*
Y1877955D3*
X841719Y1290455D3*
Y1264865D3*
Y1239274D3*
Y1213684D3*
Y1188093D3*
Y1162503D3*
Y1136912D3*
X1125192D3*
X1125184Y1162503D3*
Y1188093D3*
Y1213684D3*
Y1239274D3*
Y1264865D3*
Y1290455D3*
D97*
X1531684Y919184D3*
X1618298Y956585D3*
Y881782D3*
D99*
X2041719Y690455D3*
Y664865D3*
Y639274D3*
Y613684D3*
Y588093D3*
Y562503D3*
Y536912D3*
X2325192D3*
X2325184Y562503D3*
Y588093D3*
Y613684D3*
Y639274D3*
Y664865D3*
Y690455D3*
X832947Y685227D3*
Y659636D3*
Y634046D3*
Y608455D3*
Y582865D3*
Y557274D3*
Y531684D3*
X1116420D3*
X1116412Y557274D3*
Y582865D3*
Y608455D3*
Y634046D3*
Y659636D3*
Y685227D3*
D85*
X1973008Y4165915D3*
Y4240718D3*
D83*
X667499Y3527390D3*
Y3590382D3*
X1011450Y3529177D3*
Y3592169D3*
X766085Y3526684D3*
Y3589676D3*
D79*
X2094415Y2819184D3*
Y2992412D3*
X1999926D3*
Y2819184D3*
D115*
X1973713Y2346285D3*
X2011114Y2259671D3*
X1936311D3*
X1193510Y2343222D3*
X1230912Y2256608D3*
X1156109D3*
D121*
X1551646Y4561887D3*
X1618575D3*
X610719Y4619184D3*
X677648D3*
X610719Y4519184D3*
X677648D3*
X1615653Y4444646D3*
X1548724D3*
X1093047Y3525825D3*
X1159976D3*
X1948219Y3194184D3*
X2015148D3*
X1916370Y3115148D3*
X1983299D3*
D127*
X2717572Y4171097D3*
Y4104168D3*
X2665101Y4211693D3*
Y4278622D3*
X434069Y4167636D3*
Y4100707D3*
X496417Y4213686D3*
Y4280615D3*
X580297Y2925362D3*
Y2992291D3*
X517455Y3203492D3*
Y3270421D3*
X2661963Y3199836D3*
Y3266765D3*
X2720827Y3169176D3*
Y3102247D3*
D121*
X1226421Y2520590D3*
X1159492D3*
X1226543Y2427863D3*
X1159614D3*
X1879306Y2173283D3*
X1946235D3*
X1278243Y2168020D3*
X1211314D3*
X2089430Y2173945D3*
X2022501D3*
X1051882Y2178484D3*
X1118811D3*
X1777648Y1156684D3*
X1710719D3*
X1727978Y1802829D3*
X1661048D3*
X1728900Y1895451D3*
X1661971D3*
X2481684Y1369184D3*
X2414755D3*
X2560719Y1181684D3*
X2627648D3*
X661113Y1719184D3*
X594184D3*
X1777648Y1244184D3*
X1710719D3*
X1477648Y1844184D3*
X1410719D3*
X1408480Y2429512D3*
X1475409D3*
X1823219Y1894184D3*
X1890148D3*
X1940148Y1131684D3*
X1873219D3*
X1823219Y1719184D3*
X1890148D3*
X2413029Y1209041D3*
X2479958D3*
X1465148Y1165148D3*
X1398219D3*
X523219Y1156684D3*
X590148D3*
X1298613Y1031684D3*
X1231684D3*
X677255D3*
X744184D3*
X1156684Y1719184D3*
X1089755D3*
X881684D3*
X948613D3*
X2429912Y613510D3*
X2496841D3*
X2410768Y785504D3*
X2477697D3*
X2478072Y701875D3*
X2411143D3*
X2481866Y522778D3*
X2414937D3*
X744184Y1719184D3*
X811113D3*
X1231684D3*
X1298613D3*
X2423062Y898800D3*
X2356132D3*
X2664755Y769184D3*
X2731684D3*
X2465148Y1656684D3*
X2398219D3*
X1873219Y1294184D3*
X1940148D3*
X2465148Y1831684D3*
X2398219D3*
X1461113Y1256684D3*
X1394184D3*
X523219Y1265148D3*
X590148D3*
X1306684Y1394184D3*
X1239755D3*
X673219D3*
X740148D3*
X2548219Y1719184D3*
X2615148D3*
X1940148Y1481684D3*
X1873219D3*
X2398219Y1919184D3*
X2465148D3*
X2035159Y822118D3*
X1968230D3*
D127*
X1581684Y1136113D3*
Y1069184D3*
D121*
X1885719Y656684D3*
X1952648D3*
X2394470Y1485281D3*
X2461399D3*
X2037791Y1480303D3*
X2104720D3*
X2398219Y2006684D3*
X2465148D3*
X1156684Y1394184D3*
X1089755D3*
X973613Y1494184D3*
X906684D3*
X1952648Y744184D3*
X1885719D3*
X1970256Y978660D3*
X2037185D3*
X1136113Y981684D3*
X1069184D3*
X1244184Y719184D3*
X1311113D3*
X1248219Y540148D3*
X1315148D3*
X711113Y531684D3*
X644184D3*
X715148Y710719D3*
X648219D3*
X2656684Y1044184D3*
X2723613D3*
X2418457Y989043D3*
X2351527D3*
X2038517Y903944D3*
X1971588D3*
X2576415Y545740D3*
X2643344D3*
X2414139Y437741D3*
X2481068D3*
X1723219Y569184D3*
X1790148D3*
M02*
