M48
INCH
T01C0.015
T02C0.0276
T03C0.0315
T04C0.032
T05C0.0354
T06C0.0394
T07C0.04
T08C0.05
T09C0.052
%
T01
X+018483Y+032914
X+019151Y+032772
X+019191Y+033420
X+018488Y+033972
X+018270Y+034794
X+018808Y+034800
X+018550Y+035487
X+017561Y+035377
X+017015Y+035004
X+017436Y+034633
X+017202Y+034106
X+016617Y+033986
X+016902Y+033467
X+017331Y+033024
X+017455Y+032671
X+017278Y+031857
X+017544Y+031398
X+018518Y+031161
X+018540Y+030749
X+017891Y+030361
X+018540Y+029871
X+018731Y+029077
X+019207Y+028583
X+018936Y+028143
X+019122Y+027316
X+018718Y+026429
X+019490Y+026052
X+020018Y+026594
X+020449Y+026839
X+021149Y+026346
X+021873Y+024957
X+022441Y+023931
X+023315Y+025699
X+027232Y+026599
X+026631Y+031596
X+026907Y+033275
X+026913Y+036204
X+026631Y+036808
X+027207Y+036968
X+027048Y+038857
X+027224Y+039484
X+026865Y+041628
X+027126Y+042148
X+023897Y+036562
X+022885Y+036240
X+021867Y+034959
X+023398Y+032696
X+020600Y+032355
X+020775Y+029334
X+020074Y+028837
X+017546Y+029036
X+017257Y+027278
X+016570Y+027067
X+017055Y+026433
X+016811Y+026192
X+016575Y+025725
X+016131Y+025998
X+015856Y+026682
X+014825Y+027409
X+014560Y+029407
X+015305Y+029420
X+015359Y+030291
X+014965Y+030298
X+014580Y+030423
X+014217Y+030431
X+014839Y+030810
X+015399Y+031004
X+015948Y+031005
X+014642Y+032012
X+014077Y+031632
X+014213Y+031245
X+013009Y+030412
X+011607Y+030020
X+010364Y+029848
X+010411Y+030712
X+011088Y+031523
X+011967Y+032649
X+012297Y+032406
X+012436Y+032891
X+012177Y+033168
X+012423Y+033467
X+012764Y+033471
X+011997Y+034107
X+011700Y+033814
X+011389Y+034760
X+010926Y+034790
X+010880Y+035433
X+010880Y+036367
X+011338Y+036638
X+011700Y+037540
X+012207Y+037563
X+012575Y+037389
X+012987Y+037406
X+013034Y+036750
X+012281Y+037010
X+013742Y+035181
X+013367Y+034771
X+013763Y+034241
X+014426Y+034025
X+014386Y+033440
X+013821Y+033444
X+014063Y+032788
X+015197Y+032967
X+015014Y+033725
X+015740Y+033965
X+016222Y+033472
X+016337Y+034963
X+016317Y+036442
X+017245Y+037939
X+017594Y+039210
X+019283Y+037720
X+020359Y+040343
X+020235Y+042473
X+019402Y+042871
X+019977Y+043776
X+018616Y+043776
X+016528Y+044435
X+015399Y+043853
X+014855Y+044139
X+014851Y+043320
X+015157Y+045437
X+019977Y+046663
X+013367Y+039216
X+014607Y+035381
X+014673Y+035025
X+012710Y+032117
X+009317Y+032567
X+009317Y+032942
X+009317Y+033317
X+009317Y+033692
X+008300Y+034533
X+007326Y+035206
X+006087Y+034571
X+005839Y+035590
X+008692Y+036543
X+009112Y+036073
X+009757Y+036718
X+009912Y+035089
X+007297Y+032201
X+007044Y+031962
X+006775Y+031715
X+005019Y+031690
X+005397Y+028776
X+004938Y+028517
X+004471Y+028271
X+007211Y+029417
X+009296Y+027911
X+010312Y+027733
X+010995Y+027687
X+011967Y+027173
X+011658Y+025915
X+012025Y+025279
X+012271Y+024524
X+013086Y+024288
X+013090Y+025099
X+014155Y+024606
X+012564Y+023295
X+011405Y+024694
X+010980Y+025611
X+009694Y+025442
X+007764Y+025442
X+009442Y+023192
X+009442Y+022817
X+009442Y+022442
X+008942Y+022442
X+010462Y+021516
X+009574Y+019794
X+009192Y+019817
X+008817Y+020063
X+008442Y+019567
X+009080Y+018519
X+008817Y+017743
X+009294Y+017430
X+009969Y+017192
X+008692Y+016942
X+008192Y+016942
X+007317Y+016942
X+008122Y+018076
X+006949Y+019295
X+005463Y+018809
X+004410Y+018837
X+005958Y+017678
X+005009Y+016175
X+008676Y+014942
X+010214Y+014942
X+010567Y+014067
X+010567Y+012942
X+010192Y+012442
X+008847Y+013024
X+007811Y+012192
X+007177Y+012628
X+006298Y+012085
X+008046Y+011192
X+009192Y+011317
X+011067Y+011067
X+011879Y+012137
X+012449Y+011625
X+012942Y+010567
X+012295Y+008878
X+013725Y+007000
X+013752Y+005811
X+014692Y+004692
X+012567Y+004442
X+011692Y+006067
X+010442Y+006340
X+010384Y+005873
X+010011Y+005847
X+010562Y+005291
X+008942Y+005692
X+008836Y+006374
X+007746Y+006085
X+005423Y+005441
X+004942Y+005817
X+005329Y+006097
X+005192Y+006692
X+005520Y+007039
X+004425Y+007297
X+004273Y+006790
X+004666Y+005192
X+006692Y+009942
X+013336Y+012485
X+013502Y+013006
X+014192Y+013067
X+015282Y+013658
X+016492Y+014176
X+016611Y+015262
X+015692Y+015942
X+015692Y+016317
X+015317Y+015942
X+015317Y+015567
X+014977Y+015165
X+016067Y+016942
X+016317Y+017942
X+016067Y+018442
X+016317Y+019067
X+017859Y+018942
X+017859Y+019876
X+017459Y+020382
X+019059Y+020115
X+020027Y+019211
X+020541Y+019662
X+021067Y+018317
X+021734Y+018012
X+022067Y+017692
X+022137Y+018301
X+023351Y+017490
X+023727Y+017698
X+023727Y+018317
X+023692Y+019192
X+023692Y+020067
X+025192Y+019942
X+024942Y+018317
X+024942Y+017317
X+024942Y+016692
X+024817Y+015442
X+025067Y+014817
X+024817Y+014067
X+023817Y+013692
X+023817Y+013067
X+024817Y+012442
X+024192Y+011692
X+022460Y+011778
X+022460Y+012357
X+021080Y+012363
X+021188Y+011757
X+019835Y+012062
X+019442Y+012692
X+018718Y+013317
X+019442Y+014192
X+019050Y+015575
X+017942Y+015942
X+018130Y+014803
X+017942Y+017192
X+019062Y+017437
X+019422Y+018012
X+019097Y+018536
X+020606Y+017724
X+021063Y+017185
X+020009Y+017021
X+023444Y+016609
X+023439Y+015706
X+023567Y+014817
X+019692Y+011317
X+019817Y+010567
X+018732Y+010843
X+018863Y+011733
X+017097Y+011201
X+016507Y+012487
X+015817Y+010447
X+015817Y+009566
X+014978Y+010006
X+016804Y+005682
X+019567Y+006192
X+019817Y+007442
X+020942Y+008192
X+021067Y+006317
X+021317Y+005942
X+022442Y+006192
X+022639Y+005828
X+023872Y+005213
X+024000Y+006110
X+024111Y+006772
X+024197Y+008171
X+023682Y+008399
X+026442Y+007067
X+026799Y+007363
X+027104Y+008030
X+026987Y+006482
X+026442Y+005067
X+013942Y+017317
X+014067Y+018067
X+013371Y+018527
X+013102Y+018243
X+013648Y+018900
X+012459Y+020235
X+011122Y+019648
X+011692Y+016942
X+012317Y+016942
X+011879Y+015469
X+018405Y+023572
X+021341Y+021872
X+010416Y+042538
X+006013Y+044451
X+004373Y+043277
X+004321Y+042621
X+004525Y+042243
X+004954Y+038661
X+007204Y+046236
T02
X+025817Y+041692
X+025817Y+040692
X+025817Y+042692
X+025817Y+032692
X+025817Y+031692
X+025817Y+030692
X+016817Y+023692
X+015817Y+023692
X+014817Y+023692
X+005817Y+030692
X+005817Y+031692
X+005817Y+032692
X+005817Y+040692
X+005817Y+041692
X+005817Y+042692
T03
X+014340Y+046194
X+014380Y+045194
X+014340Y+044194
X+012293Y+044194
X+012254Y+045194
X+012293Y+046194
X+017293Y+046192
X+017254Y+045192
X+017293Y+044192
X+019340Y+044192
X+019380Y+045192
X+019340Y+046192
T04
X+026817Y+008692
X+026817Y+009692
X+022817Y+009692
X+022817Y+008692
X+018817Y+008692
X+018817Y+009692
X+012809Y+009692
X+012809Y+008692
X+008809Y+008692
X+008809Y+009692
X+004817Y+009692
X+004817Y+008692
X+004817Y+014442
X+004817Y+015442
T05
X+022692Y+039442
X+021692Y+039442
X+020692Y+039442
T06
X+014833Y+037186
X+015817Y+037186
X+016801Y+037186
X+021833Y+041186
X+022817Y+041186
X+023801Y+041186
X+023801Y+031186
X+022817Y+031186
X+021833Y+031186
X+016801Y+025186
X+015817Y+025186
X+014833Y+025186
X+009801Y+021186
X+008817Y+021186
X+007833Y+021186
X+007833Y+031186
X+008817Y+031186
X+009801Y+031186
X+009801Y+041186
X+008817Y+041186
X+007833Y+041186
X+021833Y+021186
X+022817Y+021186
X+023801Y+021186
T07
X+021447Y+016192
X+021437Y+016192
X+016707Y+019942
X+014927Y+019942
X+014927Y+022502
X+016707Y+022502
X+010197Y+016192
X+010187Y+016192
X+009817Y+009572
X+009817Y+008812
X+013817Y+008812
X+013817Y+009572
X+017817Y+009572
X+017817Y+008812
X+021817Y+008812
X+021817Y+009572
X+025817Y+009572
X+025817Y+008812
X+024927Y+027662
X+026707Y+027662
X+026707Y+030222
X+024927Y+030222
X+024927Y+037912
X+026707Y+037912
X+026707Y+040472
X+024927Y+040472
X+012567Y+040317
X+011567Y+040317
X+011567Y+041317
X+012567Y+041317
X+012567Y+042317
X+011567Y+042317
X+011567Y+039317
X+012567Y+039317
X+012567Y+038317
X+011567Y+038317
X+006707Y+037912
X+004927Y+037912
X+005067Y+036692
X+005067Y+035692
X+005067Y+034692
X+005067Y+033692
X+004927Y+030222
X+006707Y+030222
X+006707Y+027662
X+004927Y+027662
X+004927Y+040472
X+006707Y+040472
X+004942Y+044817
X+004942Y+045817
X+005817Y+009572
X+005817Y+008812
T08
X+013966Y+039792G85X+013966Y+040092
X+017667Y+039792G85X+017667Y+040092
X+020966Y+043792G85X+020966Y+044092
X+024667Y+043792G85X+024667Y+044092
X+024667Y+033792G85X+024667Y+034092
X+020966Y+033792G85X+020966Y+034092
X+017667Y+027792G85X+017667Y+028092
X+013966Y+027792G85X+013966Y+028092
X+010667Y+023792G85X+010667Y+024092
X+006966Y+023792G85X+006966Y+024092
X+006966Y+033792G85X+006966Y+034092
X+010667Y+033792G85X+010667Y+034092
X+010667Y+043792G85X+010667Y+044092
X+006966Y+043792G85X+006966Y+044092
X+020966Y+023792G85X+020966Y+024092
X+024667Y+023792G85X+024667Y+024092
T09
X+022447Y+016192
X+020437Y+016192
X+021817Y+013822
X+021817Y+010572
X+021817Y+007812
X+021817Y+004562
X+025817Y+004562
X+025817Y+007812
X+025817Y+010572
X+025817Y+013822
X+025697Y+016192
X+017817Y+013822
X+017187Y+016192
X+014447Y+016192
X+013817Y+013822
X+013817Y+010572
X+013817Y+007812
X+013817Y+004562
X+017817Y+004562
X+017817Y+007812
X+017817Y+010572
X+009817Y+010572
X+009817Y+007812
X+009817Y+004562
X+005817Y+004562
X+005817Y+007812
X+005817Y+010572
X+005817Y+013822
X+005937Y+016192
X+009187Y+016192
X+011197Y+016192
X+009817Y+013822
T00
M30
