M48
INCH
T01C0.1201
T02C0.126
T03C0.212
T04C0.2244
T05C0.2362
T06C0.2677
%
T01
X+025890Y+045690
X+025890Y+035690
X+015890Y+027690
X+005890Y+035690
X+005890Y+045690
X+004890Y+013190
X+008890Y+013190
X+012890Y+013190
X+018890Y+013190
X+022890Y+013190
X+026890Y+013190
X+026890Y+018940
T02
X+025382Y+005122G85X+024398Y+005122
X+007382Y+005122G85X+006398Y+005122
X+007382Y+053320G85X+006398Y+053320
X+025382Y+053320G85X+024398Y+053320
T03
X+005890Y+043190
X+005890Y+032940
X+015890Y+025220
X+025890Y+032940
X+025890Y+043190
T04
X+013390Y+049190
X+018390Y+049190
T05
X+021890Y+010440
X+025890Y+010440
X+025893Y+015940
X+021890Y+015940
X+017890Y+015940
X+013890Y+015940
X+009890Y+015940
X+005888Y+015948
X+007890Y+020190
X+012640Y+020190
X+019140Y+020190
X+023890Y+020190
X+017890Y+010440
X+013890Y+010440
X+009890Y+010440
X+005888Y+010440
T06
X+008890Y+027940
X+015890Y+031940
X+022890Y+027940
X+022890Y+038003
X+015890Y+043940
X+022890Y+047940
X+008890Y+047940
X+008890Y+037940
T00
M30
