G04 DipTrace 3.3.0.0*
G04 pachinko_panel.GTS*
%MOIN*%
G04 #@! TF.FileFunction,Soldermask,Top*
G04 #@! TF.Part,Single*
%ADD12C,0.001*%
%ADD18C,0.013189*%
%ADD28C,0.120079*%
%ADD29C,0.224409*%
%ADD30C,0.212*%
%ADD35O,0.307244X0.185197*%
%ADD37C,0.328031*%
%FSLAX26Y26*%
G04*
G70*
G90*
G75*
G01*
G04 TopMask*
%LPD*%
D28*
X2589016Y4569016D3*
X589016D3*
Y3569016D3*
D29*
X1339016Y4919016D3*
D28*
X1589016Y2769016D3*
D30*
X589016Y4319016D3*
Y3294016D3*
X2589016D3*
Y4319016D3*
D28*
X2689016Y1319016D3*
X1889016D3*
X2689016Y1894016D3*
X1289016Y1319016D3*
X2289016D3*
X489016D3*
X889016D3*
D30*
X1589016Y2522016D3*
D28*
X2589016Y3569016D3*
D29*
X1839016Y4919016D3*
D37*
X2189016Y1044016D3*
X989016D3*
X588765D3*
Y1594833D3*
X989016Y1594016D3*
X1789016Y1044016D3*
X1389016Y1594016D3*
X1789016D3*
X2189016D3*
D35*
X2489016Y512165D3*
X689016D3*
D37*
X1389016Y1044016D3*
D35*
X689016Y5332016D3*
X2489016D3*
D37*
X2589265Y1594016D3*
X2589016Y1044016D3*
X789016Y2019016D3*
X1264016D3*
X1914016D3*
X2389016D3*
X889016Y2794016D3*
X1589016Y3194016D3*
Y4394016D3*
X2289016Y4794016D3*
X889016D3*
Y3794016D3*
X2289016Y3800265D3*
Y2794016D3*
X1793272Y514891D2*
D18*
G02X1793272Y514891I75000J0D01*
G01*
X1374117Y568963D2*
D12*
X1382117D1*
X1530117D2*
X1538117D1*
X1374117Y567963D2*
X1382117D1*
X1530117D2*
X1538117D1*
X1374117Y566963D2*
X1382117D1*
X1530117D2*
X1538117D1*
X1374117Y565963D2*
X1382117D1*
X1530117D2*
X1538117D1*
X1374117Y564963D2*
X1382117D1*
X1530117D2*
X1538117D1*
X1374117Y563963D2*
X1382117D1*
X1530117D2*
X1538117D1*
X1291117Y562963D2*
X1298117D1*
X1374117D2*
X1382117D1*
X1462117D2*
X1500117D1*
X1530117D2*
X1538117D1*
X1291117Y561963D2*
X1298117D1*
X1374117D2*
X1382117D1*
X1462117D2*
X1503460D1*
X1530117D2*
X1538117D1*
X1291117Y560963D2*
X1298117D1*
X1374117D2*
X1382117D1*
X1462117D2*
X1506154D1*
X1530117D2*
X1538117D1*
X1291117Y559963D2*
X1298117D1*
X1374117D2*
X1382117D1*
X1462117D2*
X1508184D1*
X1530117D2*
X1538117D1*
X1291117Y558963D2*
X1298117D1*
X1374117D2*
X1382117D1*
X1462117D2*
X1509711D1*
X1530117D2*
X1538117D1*
X1291117Y557963D2*
X1298117D1*
X1374117D2*
X1382117D1*
X1462117D2*
X1510917D1*
X1530117D2*
X1538117D1*
X1291117Y556963D2*
X1298117D1*
X1374117D2*
X1382117D1*
X1462117D2*
X1511886D1*
X1530117D2*
X1538117D1*
X1291117Y555963D2*
X1298117D1*
X1374117D2*
X1382117D1*
X1462117D2*
X1512650D1*
X1530117D2*
X1538117D1*
X1291117Y554963D2*
X1298117D1*
X1374117D2*
X1382117D1*
X1462117D2*
X1513276D1*
X1530117D2*
X1538117D1*
X1291117Y553963D2*
X1298117D1*
X1374117D2*
X1382117D1*
X1462117D2*
X1470117D1*
X1501075D2*
X1513832D1*
X1530117D2*
X1538117D1*
X1291117Y552963D2*
X1298117D1*
X1374117D2*
X1382117D1*
X1462117D2*
X1470117D1*
X1502904D2*
X1514354D1*
X1530117D2*
X1538117D1*
X1291117Y551963D2*
X1298117D1*
X1374117D2*
X1382117D1*
X1462117D2*
X1470117D1*
X1504462D2*
X1514859D1*
X1530117D2*
X1538117D1*
X1291117Y550963D2*
X1298117D1*
X1374117D2*
X1382117D1*
X1462117D2*
X1470117D1*
X1505669D2*
X1515326D1*
X1530117D2*
X1538117D1*
X1291117Y549963D2*
X1298117D1*
X1374117D2*
X1382117D1*
X1462117D2*
X1470117D1*
X1506553D2*
X1515700D1*
X1530117D2*
X1538117D1*
X1291117Y548963D2*
X1298117D1*
X1374117D2*
X1382117D1*
X1462117D2*
X1470117D1*
X1507201D2*
X1515960D1*
X1530117D2*
X1538117D1*
X1291117Y547963D2*
X1298117D1*
X1374117D2*
X1382117D1*
X1462117D2*
X1470117D1*
X1507652D2*
X1516201D1*
X1530117D2*
X1538117D1*
X1291117Y546963D2*
X1298117D1*
X1374117D2*
X1382117D1*
X1462117D2*
X1470117D1*
X1507943D2*
X1516491D1*
X1530117D2*
X1538117D1*
X1291117Y545963D2*
X1298117D1*
X1374117D2*
X1382117D1*
X1462117D2*
X1470117D1*
X1508195D2*
X1516767D1*
X1530117D2*
X1538117D1*
X1291117Y544963D2*
X1298117D1*
X1374117D2*
X1382117D1*
X1462117D2*
X1470117D1*
X1508488D2*
X1516949D1*
X1530117D2*
X1538117D1*
X1291117Y543963D2*
X1298117D1*
X1374117D2*
X1382117D1*
X1462117D2*
X1470117D1*
X1508767D2*
X1517045D1*
X1530117D2*
X1538117D1*
X1291117Y542963D2*
X1298117D1*
X1374117D2*
X1382117D1*
X1462117D2*
X1470117D1*
X1508949D2*
X1517088D1*
X1530117D2*
X1538117D1*
X1291117Y541963D2*
X1298117D1*
X1374117D2*
X1382117D1*
X1462117D2*
X1470117D1*
X1509045D2*
X1517106D1*
X1530117D2*
X1538117D1*
X1291117Y540963D2*
X1298117D1*
X1374117D2*
X1382117D1*
X1462117D2*
X1470117D1*
X1509088D2*
X1517113D1*
X1530117D2*
X1538117D1*
X1291117Y539963D2*
X1298117D1*
X1328117D2*
X1349117D1*
X1374117D2*
X1382117D1*
X1462117D2*
X1470117D1*
X1509106D2*
X1517115D1*
X1530117D2*
X1538117D1*
X1291117Y538963D2*
X1298117D1*
X1322713D2*
X1351075D1*
X1374117D2*
X1382117D1*
X1411117D2*
X1422117D1*
X1462117D2*
X1470117D1*
X1509113D2*
X1517116D1*
X1530117D2*
X1538117D1*
X1564117D2*
X1572117D1*
X1606117D2*
X1614117D1*
X1641117D2*
X1684117D1*
X1706117D2*
X1749117D1*
X1291117Y537963D2*
X1298117D1*
X1318470D2*
X1352904D1*
X1374117D2*
X1382117D1*
X1409962D2*
X1421117D1*
X1462117D2*
X1470117D1*
X1509115D2*
X1517117D1*
X1530117D2*
X1538117D1*
X1564117D2*
X1572117D1*
X1606117D2*
X1614117D1*
X1639159D2*
X1684117D1*
X1704159D2*
X1749117D1*
X1291117Y536963D2*
X1298117D1*
X1315246D2*
X1354462D1*
X1374117D2*
X1382117D1*
X1408714D2*
X1420117D1*
X1462117D2*
X1470117D1*
X1509116D2*
X1517117D1*
X1530117D2*
X1538117D1*
X1564117D2*
X1572117D1*
X1606117D2*
X1614117D1*
X1637326D2*
X1684113D1*
X1702326D2*
X1749113D1*
X1291117Y535963D2*
X1298117D1*
X1313950D2*
X1355672D1*
X1374117D2*
X1382117D1*
X1407455D2*
X1419117D1*
X1462117D2*
X1470117D1*
X1509117D2*
X1517117D1*
X1530117D2*
X1538117D1*
X1564117D2*
X1572117D1*
X1606117D2*
X1614117D1*
X1635736D2*
X1684058D1*
X1700736D2*
X1749058D1*
X1291117Y534963D2*
X1298117D1*
X1313502D2*
X1356592D1*
X1374117D2*
X1382117D1*
X1406280D2*
X1418117D1*
X1462117D2*
X1470117D1*
X1509117D2*
X1517117D1*
X1530117D2*
X1538117D1*
X1564117D2*
X1572117D1*
X1606117D2*
X1614117D1*
X1634434D2*
X1683918D1*
X1699434D2*
X1748918D1*
X1291117Y533963D2*
X1298117D1*
X1313273D2*
X1357367D1*
X1374117D2*
X1382117D1*
X1405187D2*
X1417117D1*
X1462117D2*
X1470117D1*
X1509117D2*
X1517117D1*
X1530117D2*
X1538117D1*
X1564117D2*
X1572117D1*
X1606117D2*
X1614117D1*
X1633398D2*
X1683080D1*
X1698398D2*
X1748080D1*
X1291117Y532963D2*
X1298117D1*
X1313172D2*
X1358058D1*
X1374117D2*
X1382117D1*
X1404145D2*
X1416113D1*
X1462117D2*
X1470117D1*
X1509113D2*
X1517113D1*
X1530117D2*
X1538117D1*
X1564117D2*
X1572117D1*
X1606117D2*
X1614117D1*
X1632571D2*
X1681001D1*
X1697571D2*
X1746001D1*
X1291117Y531963D2*
X1298117D1*
X1313117D2*
X1329117D1*
X1345720D2*
X1358605D1*
X1374117D2*
X1382117D1*
X1403127D2*
X1415078D1*
X1462117D2*
X1470117D1*
X1509078D2*
X1517078D1*
X1530117D2*
X1538117D1*
X1564117D2*
X1572117D1*
X1606117D2*
X1614117D1*
X1631838D2*
X1678728D1*
X1696838D2*
X1743728D1*
X1291117Y530963D2*
X1298117D1*
X1347854D2*
X1359032D1*
X1374117D2*
X1382117D1*
X1402121D2*
X1413950D1*
X1462117D2*
X1470117D1*
X1508950D2*
X1516950D1*
X1530117D2*
X1538117D1*
X1564117D2*
X1572117D1*
X1606117D2*
X1614117D1*
X1631165D2*
X1645706D1*
X1661840D2*
X1676775D1*
X1696165D2*
X1710706D1*
X1726840D2*
X1741775D1*
X1291117Y529963D2*
X1298117D1*
X1349393D2*
X1359418D1*
X1374117D2*
X1382117D1*
X1401118D2*
X1412711D1*
X1462117D2*
X1470117D1*
X1508707D2*
X1516711D1*
X1530117D2*
X1538117D1*
X1564117D2*
X1572117D1*
X1606117D2*
X1614117D1*
X1630625D2*
X1642952D1*
X1664130D2*
X1675117D1*
X1695625D2*
X1707952D1*
X1729130D2*
X1740117D1*
X1291117Y528963D2*
X1298117D1*
X1350439D2*
X1359739D1*
X1374117D2*
X1382117D1*
X1400117D2*
X1411454D1*
X1462117D2*
X1470117D1*
X1508415D2*
X1516450D1*
X1530117D2*
X1538117D1*
X1564117D2*
X1572117D1*
X1606117D2*
X1614117D1*
X1630201D2*
X1640951D1*
X1665815D2*
X1675733D1*
X1695201D2*
X1705951D1*
X1730815D2*
X1740733D1*
X1291117Y527963D2*
X1298117D1*
X1351157D2*
X1359939D1*
X1374117D2*
X1382117D1*
X1399117D2*
X1410280D1*
X1462117D2*
X1470117D1*
X1508110D2*
X1516241D1*
X1530117D2*
X1538117D1*
X1564117D2*
X1572117D1*
X1606117D2*
X1614117D1*
X1629811D2*
X1639503D1*
X1667019D2*
X1676272D1*
X1694811D2*
X1704503D1*
X1732019D2*
X1741272D1*
X1291117Y526963D2*
X1298117D1*
X1351632D2*
X1360041D1*
X1374117D2*
X1382117D1*
X1398117D2*
X1409187D1*
X1462117D2*
X1470117D1*
X1507738D2*
X1516021D1*
X1530117D2*
X1538117D1*
X1564117D2*
X1572117D1*
X1606117D2*
X1614117D1*
X1629456D2*
X1638455D1*
X1667916D2*
X1676711D1*
X1694456D2*
X1703455D1*
X1732916D2*
X1741711D1*
X1291117Y525963D2*
X1298117D1*
X1351902D2*
X1360087D1*
X1374117D2*
X1382117D1*
X1397113D2*
X1408145D1*
X1462117D2*
X1470117D1*
X1507269D2*
X1515735D1*
X1530117D2*
X1538117D1*
X1564117D2*
X1572117D1*
X1606117D2*
X1614117D1*
X1629128D2*
X1637742D1*
X1668550D2*
X1677078D1*
X1694128D2*
X1702742D1*
X1733550D2*
X1742078D1*
X1291117Y524963D2*
X1298117D1*
X1352065D2*
X1360106D1*
X1374117D2*
X1382117D1*
X1396078D2*
X1407127D1*
X1462117D2*
X1470117D1*
X1506632D2*
X1515426D1*
X1530117D2*
X1538117D1*
X1564117D2*
X1572117D1*
X1606117D2*
X1614117D1*
X1628787D2*
X1637245D1*
X1669012D2*
X1677437D1*
X1693787D2*
X1702245D1*
X1734012D2*
X1742437D1*
X1291117Y523963D2*
X1298117D1*
X1352248D2*
X1360113D1*
X1374117D2*
X1382117D1*
X1394950D2*
X1406121D1*
X1462117D2*
X1470117D1*
X1505704D2*
X1515113D1*
X1530117D2*
X1538117D1*
X1564117D2*
X1572117D1*
X1606117D2*
X1614117D1*
X1628484D2*
X1636831D1*
X1669411D2*
X1677746D1*
X1693484D2*
X1701831D1*
X1734411D2*
X1742746D1*
X1291117Y522963D2*
X1298117D1*
X1352510D2*
X1360115D1*
X1374117D2*
X1382117D1*
X1393711D2*
X1405118D1*
X1462117D2*
X1470117D1*
X1504420D2*
X1514743D1*
X1530117D2*
X1538117D1*
X1564117D2*
X1572117D1*
X1606117D2*
X1614117D1*
X1628291D2*
X1636501D1*
X1669736D2*
X1677941D1*
X1693291D2*
X1701501D1*
X1734736D2*
X1742941D1*
X1291117Y521963D2*
X1298117D1*
X1352775D2*
X1360116D1*
X1374117D2*
X1382117D1*
X1392454D2*
X1404117D1*
X1462117D2*
X1470117D1*
X1502835D2*
X1514312D1*
X1530117D2*
X1538117D1*
X1564117D2*
X1572117D1*
X1606117D2*
X1614117D1*
X1628191D2*
X1636297D1*
X1669938D2*
X1678042D1*
X1693191D2*
X1701297D1*
X1734938D2*
X1743042D1*
X1291117Y520963D2*
X1298117D1*
X1352948D2*
X1360117D1*
X1374117D2*
X1382117D1*
X1391260D2*
X1403117D1*
X1462117D2*
X1513842D1*
X1530117D2*
X1538117D1*
X1564117D2*
X1572117D1*
X1606117D2*
X1614117D1*
X1628146D2*
X1636193D1*
X1670041D2*
X1678087D1*
X1693146D2*
X1701193D1*
X1735041D2*
X1743087D1*
X1291117Y519963D2*
X1298117D1*
X1353007D2*
X1360117D1*
X1374117D2*
X1382117D1*
X1389977D2*
X1402117D1*
X1462117D2*
X1513319D1*
X1530117D2*
X1538117D1*
X1564117D2*
X1572117D1*
X1606117D2*
X1614117D1*
X1628128D2*
X1636147D1*
X1670087D2*
X1678106D1*
X1693128D2*
X1701147D1*
X1735087D2*
X1743106D1*
X1291117Y518963D2*
X1298117D1*
X1352922D2*
X1360117D1*
X1374117D2*
X1382117D1*
X1388162D2*
X1401117D1*
X1462117D2*
X1512690D1*
X1530117D2*
X1538117D1*
X1564117D2*
X1572117D1*
X1606117D2*
X1614117D1*
X1628121D2*
X1636128D1*
X1670106D2*
X1678113D1*
X1693121D2*
X1701128D1*
X1735106D2*
X1743113D1*
X1291117Y517963D2*
X1298117D1*
X1352700D2*
X1360117D1*
X1374117D2*
X1382117D1*
X1385435D2*
X1400117D1*
X1462117D2*
X1511877D1*
X1530117D2*
X1538117D1*
X1564117D2*
X1572117D1*
X1606117D2*
X1614117D1*
X1628118D2*
X1636121D1*
X1670113D2*
X1678115D1*
X1693118D2*
X1701121D1*
X1735113D2*
X1743115D1*
X1291117Y516963D2*
X1298117D1*
X1352451D2*
X1360117D1*
X1374117D2*
X1399117D1*
X1462117D2*
X1510825D1*
X1530117D2*
X1538117D1*
X1564117D2*
X1572117D1*
X1606117D2*
X1614117D1*
X1628117D2*
X1636118D1*
X1670115D2*
X1678116D1*
X1693117D2*
X1701118D1*
X1735115D2*
X1743116D1*
X1291117Y515963D2*
X1298117D1*
X1352278D2*
X1360117D1*
X1374117D2*
X1398117D1*
X1462117D2*
X1509469D1*
X1530117D2*
X1538117D1*
X1564117D2*
X1572117D1*
X1606117D2*
X1614117D1*
X1628117D2*
X1636121D1*
X1670116D2*
X1678113D1*
X1693117D2*
X1701121D1*
X1735116D2*
X1743113D1*
X1291117Y514963D2*
X1298117D1*
X1352181D2*
X1360117D1*
X1374117D2*
X1397117D1*
X1462117D2*
X1507828D1*
X1530117D2*
X1538117D1*
X1564117D2*
X1572117D1*
X1606117D2*
X1614117D1*
X1628121D2*
X1636156D1*
X1670113D2*
X1678078D1*
X1693121D2*
X1701156D1*
X1735113D2*
X1743078D1*
X1291117Y513963D2*
X1298117D1*
X1320117D2*
X1360117D1*
X1374117D2*
X1396117D1*
X1462117D2*
X1470117D1*
X1476117D2*
X1506007D1*
X1530117D2*
X1538117D1*
X1564117D2*
X1572117D1*
X1606117D2*
X1614117D1*
X1628156D2*
X1636283D1*
X1670078D2*
X1677950D1*
X1693156D2*
X1701283D1*
X1735078D2*
X1742950D1*
X1291117Y512963D2*
X1298117D1*
X1318505D2*
X1360117D1*
X1374117D2*
X1395117D1*
X1462117D2*
X1470117D1*
X1487117D2*
X1504117D1*
X1530117D2*
X1538117D1*
X1564117D2*
X1572117D1*
X1606117D2*
X1614117D1*
X1628283D2*
X1636527D1*
X1669946D2*
X1677711D1*
X1693283D2*
X1701527D1*
X1734946D2*
X1742711D1*
X1291117Y511963D2*
X1298117D1*
X1317005D2*
X1360117D1*
X1374117D2*
X1395962D1*
X1462117D2*
X1470117D1*
X1530117D2*
X1538117D1*
X1564117D2*
X1572117D1*
X1606117D2*
X1614117D1*
X1628523D2*
X1636818D1*
X1669672D2*
X1677450D1*
X1693523D2*
X1701818D1*
X1734672D2*
X1742450D1*
X1291117Y510963D2*
X1298117D1*
X1315728D2*
X1360117D1*
X1374117D2*
X1396714D1*
X1462117D2*
X1470117D1*
X1530117D2*
X1538117D1*
X1564117D2*
X1572117D1*
X1606117D2*
X1614117D1*
X1628783D2*
X1637124D1*
X1669284D2*
X1677241D1*
X1693783D2*
X1702124D1*
X1734284D2*
X1742241D1*
X1291117Y509963D2*
X1298117D1*
X1314732D2*
X1360117D1*
X1374117D2*
X1397455D1*
X1462117D2*
X1470117D1*
X1530117D2*
X1538117D1*
X1564117D2*
X1572117D1*
X1606117D2*
X1614117D1*
X1628993D2*
X1637495D1*
X1668831D2*
X1677021D1*
X1693993D2*
X1702495D1*
X1733831D2*
X1742021D1*
X1291117Y508963D2*
X1298117D1*
X1313908D2*
X1360117D1*
X1374117D2*
X1398276D1*
X1462117D2*
X1470117D1*
X1530117D2*
X1538117D1*
X1564117D2*
X1572117D1*
X1606117D2*
X1614117D1*
X1629217D2*
X1637961D1*
X1668315D2*
X1676735D1*
X1694217D2*
X1702961D1*
X1733315D2*
X1741735D1*
X1291117Y507963D2*
X1298117D1*
X1313193D2*
X1350117D1*
X1352117D2*
X1360117D1*
X1374117D2*
X1382117D1*
X1388113D2*
X1399148D1*
X1462117D2*
X1470117D1*
X1530117D2*
X1538117D1*
X1564117D2*
X1572117D1*
X1606117D2*
X1614117D1*
X1629534D2*
X1638566D1*
X1667685D2*
X1676426D1*
X1694534D2*
X1703566D1*
X1732685D2*
X1741426D1*
X1291117Y506963D2*
X1298117D1*
X1312635D2*
X1336117D1*
X1352117D2*
X1360117D1*
X1374117D2*
X1382117D1*
X1389078D2*
X1399978D1*
X1462117D2*
X1470117D1*
X1530117D2*
X1538117D1*
X1564117D2*
X1572117D1*
X1606117D2*
X1614117D1*
X1629939D2*
X1639406D1*
X1666834D2*
X1676113D1*
X1694939D2*
X1704406D1*
X1731834D2*
X1741113D1*
X1291117Y505963D2*
X1298117D1*
X1312204D2*
X1324313D1*
X1352117D2*
X1360117D1*
X1374117D2*
X1382117D1*
X1389950D2*
X1400721D1*
X1462117D2*
X1470117D1*
X1530117D2*
X1538117D1*
X1564117D2*
X1572117D1*
X1606117D2*
X1614117D1*
X1630399D2*
X1640621D1*
X1665615D2*
X1675743D1*
X1695399D2*
X1705621D1*
X1730615D2*
X1740743D1*
X1291117Y504963D2*
X1298117D1*
X1311816D2*
X1322732D1*
X1352117D2*
X1360117D1*
X1374117D2*
X1382117D1*
X1390711D2*
X1401454D1*
X1462117D2*
X1470117D1*
X1530117D2*
X1538117D1*
X1564117D2*
X1572117D1*
X1606117D2*
X1614117D1*
X1630917D2*
X1642373D1*
X1663861D2*
X1675312D1*
X1695917D2*
X1707373D1*
X1728861D2*
X1740312D1*
X1291117Y503963D2*
X1298117D1*
X1311495D2*
X1321437D1*
X1352117D2*
X1360117D1*
X1374117D2*
X1382117D1*
X1391454D2*
X1402242D1*
X1462117D2*
X1470117D1*
X1530117D2*
X1538117D1*
X1564117D2*
X1572117D1*
X1606117D2*
X1614117D1*
X1631541D2*
X1644631D1*
X1661603D2*
X1674842D1*
X1696541D2*
X1709631D1*
X1726603D2*
X1739842D1*
X1291117Y502963D2*
X1298117D1*
X1311295D2*
X1320441D1*
X1352117D2*
X1360117D1*
X1374117D2*
X1382117D1*
X1392276D2*
X1403021D1*
X1462117D2*
X1470117D1*
X1530117D2*
X1538117D1*
X1564117D2*
X1572117D1*
X1606117D2*
X1614117D1*
X1632313D2*
X1674319D1*
X1697313D2*
X1739319D1*
X1291117Y501963D2*
X1298117D1*
X1311193D2*
X1319665D1*
X1352117D2*
X1360117D1*
X1374117D2*
X1382117D1*
X1393148D2*
X1403739D1*
X1462117D2*
X1470117D1*
X1530117D2*
X1538117D1*
X1564117D2*
X1572117D1*
X1606117D2*
X1614117D1*
X1633193D2*
X1673694D1*
X1698193D2*
X1738694D1*
X1291117Y500963D2*
X1298117D1*
X1311147D2*
X1319383D1*
X1352117D2*
X1360117D1*
X1374117D2*
X1382117D1*
X1393978D2*
X1404461D1*
X1462117D2*
X1470117D1*
X1530117D2*
X1538117D1*
X1564117D2*
X1572117D1*
X1606117D2*
X1614117D1*
X1634117D2*
X1672916D1*
X1699117D2*
X1737916D1*
X1291117Y499963D2*
X1298117D1*
X1311128D2*
X1319230D1*
X1352117D2*
X1360117D1*
X1374117D2*
X1382117D1*
X1394721D2*
X1405245D1*
X1462117D2*
X1470117D1*
X1530117D2*
X1538117D1*
X1564117D2*
X1572117D1*
X1606117D2*
X1614117D1*
X1632813D2*
X1671991D1*
X1697813D2*
X1736991D1*
X1291117Y498963D2*
X1298117D1*
X1311121D2*
X1319161D1*
X1352117D2*
X1360117D1*
X1374117D2*
X1382117D1*
X1395458D2*
X1406022D1*
X1462117D2*
X1470117D1*
X1530117D2*
X1538117D1*
X1564117D2*
X1572117D1*
X1606117D2*
X1614117D1*
X1631647D2*
X1670863D1*
X1696647D2*
X1735863D1*
X1291113Y497963D2*
X1298117D1*
X1311118D2*
X1319133D1*
X1352117D2*
X1360117D1*
X1374117D2*
X1382117D1*
X1396277D2*
X1406739D1*
X1462117D2*
X1470117D1*
X1530121D2*
X1538117D1*
X1564117D2*
X1572117D1*
X1606117D2*
X1614117D1*
X1630733D2*
X1669363D1*
X1695733D2*
X1734363D1*
X1291078Y496963D2*
X1298117D1*
X1311117D2*
X1319123D1*
X1352117D2*
X1360117D1*
X1374117D2*
X1382117D1*
X1397149D2*
X1407465D1*
X1462117D2*
X1470117D1*
X1530156D2*
X1538121D1*
X1564117D2*
X1572117D1*
X1606117D2*
X1614117D1*
X1630023D2*
X1667246D1*
X1695023D2*
X1732246D1*
X1290950Y495963D2*
X1298117D1*
X1311117D2*
X1319119D1*
X1352117D2*
X1360117D1*
X1374117D2*
X1382117D1*
X1397978D2*
X1408280D1*
X1462117D2*
X1470117D1*
X1530283D2*
X1538156D1*
X1564117D2*
X1572117D1*
X1606117D2*
X1614117D1*
X1629431D2*
X1664394D1*
X1694431D2*
X1729394D1*
X1290711Y494963D2*
X1298117D1*
X1311117D2*
X1319117D1*
X1352113D2*
X1360117D1*
X1374117D2*
X1382117D1*
X1398721D2*
X1409150D1*
X1462117D2*
X1470117D1*
X1530523D2*
X1538283D1*
X1564121D2*
X1572121D1*
X1606113D2*
X1614117D1*
X1628929D2*
X1661117D1*
X1693929D2*
X1726117D1*
X1290450Y493963D2*
X1298117D1*
X1311117D2*
X1319117D1*
X1352066D2*
X1360117D1*
X1374117D2*
X1382117D1*
X1399458D2*
X1409979D1*
X1462117D2*
X1470117D1*
X1530779D2*
X1538527D1*
X1564156D2*
X1572156D1*
X1606070D2*
X1614117D1*
X1628545D2*
X1637313D1*
X1693545D2*
X1702313D1*
X1290241Y492963D2*
X1298117D1*
X1311117D2*
X1319117D1*
X1351949D2*
X1360117D1*
X1374117D2*
X1382117D1*
X1400277D2*
X1410721D1*
X1462117D2*
X1470117D1*
X1530954D2*
X1538818D1*
X1564283D2*
X1572287D1*
X1605964D2*
X1614117D1*
X1628315D2*
X1636728D1*
X1693315D2*
X1701728D1*
X1290017Y491963D2*
X1298117D1*
X1311117D2*
X1319121D1*
X1351322D2*
X1360117D1*
X1374117D2*
X1382117D1*
X1401149D2*
X1411454D1*
X1462117D2*
X1470117D1*
X1531050D2*
X1539124D1*
X1564527D2*
X1572566D1*
X1605443D2*
X1614117D1*
X1628200D2*
X1636401D1*
X1693200D2*
X1701401D1*
X1289700Y490963D2*
X1298113D1*
X1311121D2*
X1319160D1*
X1349626D2*
X1360117D1*
X1374117D2*
X1382117D1*
X1401978D2*
X1412242D1*
X1462117D2*
X1470117D1*
X1531128D2*
X1539499D1*
X1564818D2*
X1572989D1*
X1604101D2*
X1614117D1*
X1628149D2*
X1636225D1*
X1693149D2*
X1701225D1*
X1289291Y489963D2*
X1298078D1*
X1311156D2*
X1319326D1*
X1347248D2*
X1360117D1*
X1374117D2*
X1382117D1*
X1402721D2*
X1413021D1*
X1462117D2*
X1470117D1*
X1531273D2*
X1540008D1*
X1565124D2*
X1573573D1*
X1602283D2*
X1614117D1*
X1628133D2*
X1636417D1*
X1693133D2*
X1701417D1*
X1288792Y488963D2*
X1297950D1*
X1311283D2*
X1319638D1*
X1344153D2*
X1360117D1*
X1374117D2*
X1382117D1*
X1403458D2*
X1413739D1*
X1462117D2*
X1470117D1*
X1531523D2*
X1540652D1*
X1565491D2*
X1574367D1*
X1600046D2*
X1614117D1*
X1628160D2*
X1637316D1*
X1693160D2*
X1702316D1*
X1288072Y487963D2*
X1297707D1*
X1311527D2*
X1320467D1*
X1340148D2*
X1360117D1*
X1374117D2*
X1382117D1*
X1404277D2*
X1414465D1*
X1462117D2*
X1470117D1*
X1531817D2*
X1542148D1*
X1565922D2*
X1575413D1*
X1597396D2*
X1614117D1*
X1628289D2*
X1638614D1*
X1693289D2*
X1703614D1*
X1287084Y486963D2*
X1297415D1*
X1311822D2*
X1322924D1*
X1334584D2*
X1360117D1*
X1374117D2*
X1382117D1*
X1405149D2*
X1415280D1*
X1462117D2*
X1470117D1*
X1532124D2*
X1544283D1*
X1566392D2*
X1576762D1*
X1594277D2*
X1614117D1*
X1628562D2*
X1670117D1*
X1693562D2*
X1735117D1*
X1283971Y485963D2*
X1297110D1*
X1312159D2*
X1326985D1*
X1326966D2*
X1360117D1*
X1374117D2*
X1382117D1*
X1405978D2*
X1416149D1*
X1462117D2*
X1470117D1*
X1532495D2*
X1547023D1*
X1566914D2*
X1578380D1*
X1590779D2*
X1614117D1*
X1628954D2*
X1672191D1*
X1693954D2*
X1737191D1*
X1269117Y484963D2*
X1274117D1*
X1279113D2*
X1296738D1*
X1312623D2*
X1360117D1*
X1374117D2*
X1382117D1*
X1406721D2*
X1416979D1*
X1462117D2*
X1470117D1*
X1532961D2*
X1549894D1*
X1567540D2*
X1614117D1*
X1629438D2*
X1673978D1*
X1694438D2*
X1738978D1*
X1268966Y483963D2*
X1296273D1*
X1313200D2*
X1350309D1*
X1353155D2*
X1360117D1*
X1374117D2*
X1382117D1*
X1407458D2*
X1417721D1*
X1462117D2*
X1470117D1*
X1533559D2*
X1552240D1*
X1568313D2*
X1604271D1*
X1605958D2*
X1614117D1*
X1630038D2*
X1675400D1*
X1695038D2*
X1740400D1*
X1268757Y482963D2*
X1295671D1*
X1313819D2*
X1347686D1*
X1353283D2*
X1360117D1*
X1374117D2*
X1382117D1*
X1408277D2*
X1418454D1*
X1462117D2*
X1470117D1*
X1534324D2*
X1554006D1*
X1569200D2*
X1602519D1*
X1606671D2*
X1614117D1*
X1630699D2*
X1676461D1*
X1695699D2*
X1741461D1*
X1268566Y481963D2*
X1294870D1*
X1314538D2*
X1345184D1*
X1353527D2*
X1360117D1*
X1374117D2*
X1382117D1*
X1409149D2*
X1419242D1*
X1462117D2*
X1470117D1*
X1535245D2*
X1554689D1*
X1570153D2*
X1600774D1*
X1607250D2*
X1614117D1*
X1631315D2*
X1677310D1*
X1696315D2*
X1742310D1*
X1268786Y480963D2*
X1293810D1*
X1315508D2*
X1342608D1*
X1353821D2*
X1360117D1*
X1374117D2*
X1382117D1*
X1409978D2*
X1420020D1*
X1462117D2*
X1470117D1*
X1536359D2*
X1554920D1*
X1571176D2*
X1598910D1*
X1607707D2*
X1614117D1*
X1631432D2*
X1678036D1*
X1696432D2*
X1743036D1*
X1269560Y479963D2*
X1292342D1*
X1316850D2*
X1339799D1*
X1354151D2*
X1360117D1*
X1374117D2*
X1382117D1*
X1410712D2*
X1420730D1*
X1462117D2*
X1470117D1*
X1537741D2*
X1555038D1*
X1572372D2*
X1596837D1*
X1608107D2*
X1614117D1*
X1631127D2*
X1678597D1*
X1696127D2*
X1743597D1*
X1271400Y478963D2*
X1290238D1*
X1318620D2*
X1336625D1*
X1354591D2*
X1360117D1*
X1374117D2*
X1382117D1*
X1411408D2*
X1421414D1*
X1462117D2*
X1470117D1*
X1539372D2*
X1555089D1*
X1573926D2*
X1594477D1*
X1608575D2*
X1614117D1*
X1630651D2*
X1635117D1*
X1639117D2*
X1679028D1*
X1695651D2*
X1700117D1*
X1704117D2*
X1744028D1*
X1274019Y477963D2*
X1287392D1*
X1320771D2*
X1333004D1*
X1355117D2*
X1360117D1*
X1374117D2*
X1382117D1*
X1412117D2*
X1422117D1*
X1462117D2*
X1470117D1*
X1541117D2*
X1555117D1*
X1575907D2*
X1591856D1*
X1609117D2*
X1614117D1*
X1630059D2*
X1635117D1*
X1670075D2*
X1679417D1*
X1695059D2*
X1700117D1*
X1735075D2*
X1744417D1*
X1277117Y476963D2*
X1284117D1*
X1323117D2*
X1329117D1*
X1578117D2*
X1589117D1*
X1629472D2*
X1635117D1*
X1670911D2*
X1679738D1*
X1694472D2*
X1700117D1*
X1735911D2*
X1744738D1*
X1628952Y475963D2*
X1635117D1*
X1671540D2*
X1679939D1*
X1693952D2*
X1700117D1*
X1736540D2*
X1744939D1*
X1628556Y474963D2*
X1635117D1*
X1672005D2*
X1680041D1*
X1693556D2*
X1700117D1*
X1737005D2*
X1745041D1*
X1628320Y473963D2*
X1635117D1*
X1672408D2*
X1680087D1*
X1693320D2*
X1700117D1*
X1737408D2*
X1745087D1*
X1628202Y472963D2*
X1635117D1*
X1672735D2*
X1680106D1*
X1693202D2*
X1700117D1*
X1737735D2*
X1745106D1*
X1628150Y471963D2*
X1635117D1*
X1672937D2*
X1680113D1*
X1693150D2*
X1700117D1*
X1737937D2*
X1745113D1*
X1628129Y470963D2*
X1635117D1*
X1673041D2*
X1680115D1*
X1693129D2*
X1700117D1*
X1738041D2*
X1745115D1*
X1628121Y469963D2*
X1635117D1*
X1673087D2*
X1680116D1*
X1693121D2*
X1700117D1*
X1738087D2*
X1745116D1*
X1628118Y468963D2*
X1635117D1*
X1673106D2*
X1680117D1*
X1693118D2*
X1700117D1*
X1738106D2*
X1745117D1*
X1628117Y467963D2*
X1635117D1*
X1673113D2*
X1680117D1*
X1693117D2*
X1700117D1*
X1738113D2*
X1745117D1*
X1628117Y466963D2*
X1635117D1*
X1673115D2*
X1680117D1*
X1693117D2*
X1700117D1*
X1738115D2*
X1745117D1*
X1628117Y465963D2*
X1635117D1*
X1673116D2*
X1680117D1*
X1693117D2*
X1700117D1*
X1738116D2*
X1745117D1*
X1628117Y464963D2*
X1635121D1*
X1673113D2*
X1680117D1*
X1693117D2*
X1700121D1*
X1738113D2*
X1745117D1*
X1628117Y463963D2*
X1635156D1*
X1673078D2*
X1680117D1*
X1693117D2*
X1700156D1*
X1738078D2*
X1745117D1*
X1628117Y462963D2*
X1635283D1*
X1672950D2*
X1680117D1*
X1693117D2*
X1700283D1*
X1737950D2*
X1745117D1*
X1628117Y461963D2*
X1635527D1*
X1672707D2*
X1680117D1*
X1693117D2*
X1700527D1*
X1737707D2*
X1745117D1*
X1628117Y460963D2*
X1635822D1*
X1672415D2*
X1680117D1*
X1693117D2*
X1700822D1*
X1737415D2*
X1745117D1*
X1628121Y459963D2*
X1636163D1*
X1672106D2*
X1680113D1*
X1693121D2*
X1701163D1*
X1737106D2*
X1745113D1*
X1628156Y458963D2*
X1636670D1*
X1671695D2*
X1680078D1*
X1693156D2*
X1701670D1*
X1736695D2*
X1745078D1*
X1628287Y457963D2*
X1637453D1*
X1671063D2*
X1679946D1*
X1693287D2*
X1702453D1*
X1736063D2*
X1744946D1*
X1628562Y456963D2*
X1638639D1*
X1670060D2*
X1679672D1*
X1693562D2*
X1703639D1*
X1735060D2*
X1744672D1*
X1628950Y455963D2*
X1640381D1*
X1668637D2*
X1679284D1*
X1693950D2*
X1705381D1*
X1733637D2*
X1744284D1*
X1629403Y454963D2*
X1642633D1*
X1666932D2*
X1678835D1*
X1694403D2*
X1707633D1*
X1731932D2*
X1743835D1*
X1629918Y453963D2*
X1678354D1*
X1694918D2*
X1743354D1*
X1630545Y452963D2*
X1677855D1*
X1695545D2*
X1742855D1*
X1631353Y451963D2*
X1677287D1*
X1696353D2*
X1742287D1*
X1632374Y450963D2*
X1676522D1*
X1697374D2*
X1741522D1*
X1633649Y449963D2*
X1675425D1*
X1698649D2*
X1740425D1*
X1635294Y448963D2*
X1673911D1*
X1700294D2*
X1738911D1*
X1637575Y447963D2*
X1671827D1*
X1702575D2*
X1736827D1*
X1640633Y446963D2*
X1669129D1*
X1705633D2*
X1734129D1*
X1644117Y445963D2*
X1666117D1*
X1709117D2*
X1731117D1*
X1462608Y5388963D2*
X1469608D1*
X1233608Y5387963D2*
X1271608D1*
X1360608D2*
X1368608D1*
X1458419D2*
X1481608D1*
X1537608D2*
X1544608D1*
X1586608D2*
X1594608D1*
X1641608D2*
X1648608D1*
X1695608D2*
X1703608D1*
X1749608D2*
X1757608D1*
X1804608D2*
X1811608D1*
X1849608D2*
X1858608D1*
X1922608D2*
X1943608D1*
X1233608Y5386963D2*
X1274950D1*
X1360228D2*
X1368953D1*
X1454977D2*
X1487670D1*
X1537608D2*
X1544608D1*
X1586608D2*
X1594608D1*
X1641608D2*
X1648608D1*
X1695608D2*
X1704108D1*
X1749608D2*
X1757608D1*
X1804608D2*
X1811608D1*
X1848762D2*
X1858107D1*
X1919346D2*
X1946989D1*
X1233608Y5385963D2*
X1277645D1*
X1359802D2*
X1369286D1*
X1452245D2*
X1493608D1*
X1537608D2*
X1544608D1*
X1586608D2*
X1594608D1*
X1641608D2*
X1648608D1*
X1695608D2*
X1704693D1*
X1749608D2*
X1757608D1*
X1804608D2*
X1811608D1*
X1848010D2*
X1857523D1*
X1916513D2*
X1949811D1*
X1233608Y5384963D2*
X1279675D1*
X1359369D2*
X1369603D1*
X1450056D2*
X1493608D1*
X1537608D2*
X1544608D1*
X1586608D2*
X1594608D1*
X1641608D2*
X1648608D1*
X1695608D2*
X1705304D1*
X1749608D2*
X1757608D1*
X1804608D2*
X1811608D1*
X1847273D2*
X1856912D1*
X1914200D2*
X1952081D1*
X1233608Y5383963D2*
X1281202D1*
X1358979D2*
X1369945D1*
X1448317D2*
X1493608D1*
X1537608D2*
X1544608D1*
X1586608D2*
X1594608D1*
X1641608D2*
X1648608D1*
X1695608D2*
X1705948D1*
X1749608D2*
X1757608D1*
X1804608D2*
X1811608D1*
X1846483D2*
X1856268D1*
X1912383D2*
X1953868D1*
X1233608Y5382963D2*
X1282408D1*
X1358633D2*
X1370280D1*
X1446957D2*
X1493608D1*
X1537608D2*
X1544608D1*
X1586608D2*
X1594608D1*
X1641608D2*
X1648608D1*
X1695608D2*
X1706620D1*
X1749608D2*
X1757608D1*
X1804608D2*
X1811608D1*
X1845704D2*
X1855596D1*
X1910984D2*
X1955284D1*
X1233608Y5381963D2*
X1283377D1*
X1358279D2*
X1370600D1*
X1445900D2*
X1493608D1*
X1537608D2*
X1544608D1*
X1586608D2*
X1594608D1*
X1641608D2*
X1648608D1*
X1695608D2*
X1707274D1*
X1749608D2*
X1757608D1*
X1804608D2*
X1811608D1*
X1844989D2*
X1854938D1*
X1909910D2*
X1956473D1*
X1233608Y5380963D2*
X1284141D1*
X1357938D2*
X1370943D1*
X1445066D2*
X1493608D1*
X1537608D2*
X1544608D1*
X1586608D2*
X1594608D1*
X1641608D2*
X1648608D1*
X1695608D2*
X1707936D1*
X1749608D2*
X1757608D1*
X1804608D2*
X1811608D1*
X1844299D2*
X1854244D1*
X1909069D2*
X1957519D1*
X1233608Y5379963D2*
X1284767D1*
X1357616D2*
X1371280D1*
X1444326D2*
X1460043D1*
X1480608D2*
X1493608D1*
X1537608D2*
X1544608D1*
X1586608D2*
X1594608D1*
X1641608D2*
X1648608D1*
X1695608D2*
X1708615D1*
X1749608D2*
X1757608D1*
X1804608D2*
X1811608D1*
X1843607D2*
X1853472D1*
X1908328D2*
X1928594D1*
X1937390D2*
X1958419D1*
X1233608Y5378963D2*
X1241608D1*
X1272566D2*
X1285323D1*
X1357272D2*
X1371600D1*
X1443621D2*
X1457040D1*
X1537608D2*
X1544608D1*
X1586608D2*
X1594608D1*
X1641608D2*
X1648608D1*
X1695608D2*
X1709272D1*
X1749608D2*
X1757608D1*
X1804608D2*
X1811608D1*
X1842946D2*
X1852700D1*
X1907621D2*
X1923709D1*
X1942767D2*
X1959156D1*
X1233608Y5377963D2*
X1241608D1*
X1274394D2*
X1285844D1*
X1356936D2*
X1371943D1*
X1442988D2*
X1454777D1*
X1537608D2*
X1544608D1*
X1586608D2*
X1594608D1*
X1641608D2*
X1648608D1*
X1695608D2*
X1709936D1*
X1749608D2*
X1757608D1*
X1804608D2*
X1811608D1*
X1842281D2*
X1851988D1*
X1906984D2*
X1920201D1*
X1946494D2*
X1959773D1*
X1233608Y5376963D2*
X1241608D1*
X1275953D2*
X1286350D1*
X1356611D2*
X1372280D1*
X1442448D2*
X1453118D1*
X1537608D2*
X1544608D1*
X1586608D2*
X1594608D1*
X1641608D2*
X1648608D1*
X1695608D2*
X1710615D1*
X1749608D2*
X1757608D1*
X1804608D2*
X1811608D1*
X1841600D2*
X1851298D1*
X1906413D2*
X1917795D1*
X1949010D2*
X1960325D1*
X1233608Y5375963D2*
X1241608D1*
X1277159D2*
X1286817D1*
X1356237D2*
X1372600D1*
X1442011D2*
X1451850D1*
X1537608D2*
X1544608D1*
X1586608D2*
X1594608D1*
X1641608D2*
X1648608D1*
X1695608D2*
X1711272D1*
X1749608D2*
X1757608D1*
X1804608D2*
X1811608D1*
X1840939D2*
X1850607D1*
X1905879D2*
X1916110D1*
X1950720D2*
X1960845D1*
X1233608Y5374963D2*
X1241608D1*
X1278044D2*
X1287191D1*
X1355808D2*
X1372943D1*
X1441645D2*
X1450855D1*
X1537608D2*
X1544608D1*
X1586608D2*
X1594608D1*
X1641608D2*
X1648608D1*
X1695608D2*
X1711936D1*
X1749608D2*
X1757608D1*
X1804608D2*
X1811608D1*
X1840245D2*
X1849946D1*
X1905366D2*
X1914842D1*
X1951858D2*
X1961350D1*
X1233608Y5373963D2*
X1241608D1*
X1278692D2*
X1287451D1*
X1355372D2*
X1363453D1*
X1365646D2*
X1373280D1*
X1441283D2*
X1450080D1*
X1537608D2*
X1544608D1*
X1586608D2*
X1594608D1*
X1641608D2*
X1648608D1*
X1695608D2*
X1712615D1*
X1749608D2*
X1757608D1*
X1804608D2*
X1811608D1*
X1839473D2*
X1849281D1*
X1904864D2*
X1913851D1*
X1952654D2*
X1961821D1*
X1233608Y5372963D2*
X1241608D1*
X1279143D2*
X1287692D1*
X1354981D2*
X1363201D1*
X1365774D2*
X1373604D1*
X1440939D2*
X1449450D1*
X1537608D2*
X1544608D1*
X1586608D2*
X1594608D1*
X1641608D2*
X1648608D1*
X1695608D2*
X1713272D1*
X1749608D2*
X1757608D1*
X1804608D2*
X1811608D1*
X1838700D2*
X1848600D1*
X1904394D2*
X1913078D1*
X1953280D2*
X1962226D1*
X1233608Y5371963D2*
X1241608D1*
X1279434D2*
X1287981D1*
X1354634D2*
X1362907D1*
X1366017D2*
X1373978D1*
X1440617D2*
X1448897D1*
X1537608D2*
X1544608D1*
X1586608D2*
X1594608D1*
X1641608D2*
X1648608D1*
X1695608D2*
X1713936D1*
X1749608D2*
X1757608D1*
X1804608D2*
X1811608D1*
X1837988D2*
X1847943D1*
X1903989D2*
X1912449D1*
X1953829D2*
X1962578D1*
X1233608Y5370963D2*
X1241608D1*
X1279686D2*
X1288258D1*
X1354279D2*
X1362605D1*
X1366309D2*
X1374407D1*
X1440276D2*
X1448406D1*
X1537608D2*
X1544608D1*
X1586608D2*
X1594608D1*
X1641608D2*
X1648608D1*
X1695608D2*
X1714615D1*
X1749608D2*
X1757608D1*
X1804608D2*
X1811608D1*
X1837298D2*
X1847280D1*
X1903637D2*
X1911896D1*
X1954348D2*
X1962931D1*
X1233608Y5369963D2*
X1241608D1*
X1279979D2*
X1288440D1*
X1353938D2*
X1362268D1*
X1366611D2*
X1374843D1*
X1439971D2*
X1447993D1*
X1537608D2*
X1544608D1*
X1586608D2*
X1594608D1*
X1641608D2*
X1648608D1*
X1695608D2*
X1703608D1*
X1705800D2*
X1715272D1*
X1749608D2*
X1757608D1*
X1804608D2*
X1811608D1*
X1836607D2*
X1846600D1*
X1903284D2*
X1911406D1*
X1954854D2*
X1963238D1*
X1233608Y5368963D2*
X1241608D1*
X1280257D2*
X1288536D1*
X1353612D2*
X1361934D1*
X1366947D2*
X1375235D1*
X1439743D2*
X1447638D1*
X1537608D2*
X1544608D1*
X1586608D2*
X1594608D1*
X1641608D2*
X1648608D1*
X1695608D2*
X1703608D1*
X1706180D2*
X1715936D1*
X1749608D2*
X1757608D1*
X1804608D2*
X1811608D1*
X1835946D2*
X1845939D1*
X1902974D2*
X1910993D1*
X1955353D2*
X1963436D1*
X1233608Y5367963D2*
X1241608D1*
X1280440D2*
X1288579D1*
X1353237D2*
X1361611D1*
X1367281D2*
X1375582D1*
X1439515D2*
X1447285D1*
X1537608D2*
X1544608D1*
X1586608D2*
X1594608D1*
X1641608D2*
X1648608D1*
X1695608D2*
X1703608D1*
X1706718D2*
X1716615D1*
X1749608D2*
X1757608D1*
X1804608D2*
X1811608D1*
X1835281D2*
X1845245D1*
X1902744D2*
X1910638D1*
X1955818D2*
X1963572D1*
X1233608Y5366963D2*
X1241608D1*
X1280536D2*
X1288597D1*
X1352808D2*
X1361237D1*
X1367600D2*
X1375936D1*
X1439231D2*
X1446978D1*
X1537608D2*
X1544608D1*
X1586608D2*
X1594608D1*
X1641608D2*
X1648608D1*
X1695608D2*
X1703608D1*
X1707312D2*
X1717272D1*
X1749608D2*
X1757608D1*
X1804608D2*
X1811608D1*
X1834600D2*
X1844473D1*
X1902516D2*
X1910285D1*
X1956187D2*
X1963745D1*
X1233608Y5365963D2*
X1241608D1*
X1280579D2*
X1288604D1*
X1352372D2*
X1360808D1*
X1367943D2*
X1376277D1*
X1438956D2*
X1446779D1*
X1537608D2*
X1544608D1*
X1586608D2*
X1594608D1*
X1641608D2*
X1648608D1*
X1695608D2*
X1703608D1*
X1707950D2*
X1717936D1*
X1749608D2*
X1757608D1*
X1804608D2*
X1811608D1*
X1833939D2*
X1843700D1*
X1902231D2*
X1909978D1*
X1956412D2*
X1964003D1*
X1233608Y5364963D2*
X1241608D1*
X1280597D2*
X1288606D1*
X1351981D2*
X1360372D1*
X1368280D2*
X1376599D1*
X1438775D2*
X1446643D1*
X1537608D2*
X1544608D1*
X1586608D2*
X1594608D1*
X1641608D2*
X1648608D1*
X1695608D2*
X1703608D1*
X1708620D2*
X1718611D1*
X1749608D2*
X1757608D1*
X1804608D2*
X1811608D1*
X1833245D2*
X1842988D1*
X1901956D2*
X1909783D1*
X1956529D2*
X1964266D1*
X1233608Y5363963D2*
X1241608D1*
X1280604D2*
X1288607D1*
X1351634D2*
X1359981D1*
X1368600D2*
X1376943D1*
X1438676D2*
X1446471D1*
X1537608D2*
X1544608D1*
X1586608D2*
X1594608D1*
X1641608D2*
X1648608D1*
X1695608D2*
X1703608D1*
X1709274D2*
X1719237D1*
X1749608D2*
X1757608D1*
X1804608D2*
X1811608D1*
X1832473D2*
X1842298D1*
X1901775D2*
X1909678D1*
X1956614D2*
X1964443D1*
X1233608Y5362963D2*
X1241608D1*
X1280606D2*
X1288607D1*
X1351279D2*
X1359634D1*
X1368943D2*
X1377280D1*
X1438597D2*
X1446213D1*
X1537608D2*
X1544608D1*
X1586608D2*
X1594608D1*
X1641608D2*
X1648608D1*
X1695608D2*
X1703608D1*
X1709936D2*
X1719808D1*
X1749608D2*
X1757608D1*
X1804608D2*
X1811608D1*
X1831700D2*
X1841607D1*
X1901679D2*
X1909598D1*
X1956762D2*
X1964541D1*
X1233608Y5361963D2*
X1241608D1*
X1280607D2*
X1288608D1*
X1350938D2*
X1359279D1*
X1369280D2*
X1377600D1*
X1438452D2*
X1445949D1*
X1537608D2*
X1544608D1*
X1586608D2*
X1594608D1*
X1641608D2*
X1648608D1*
X1695608D2*
X1703608D1*
X1710615D2*
X1720372D1*
X1749608D2*
X1757608D1*
X1804608D2*
X1811608D1*
X1830988D2*
X1840946D1*
X1901632D2*
X1909452D1*
X1957009D2*
X1964618D1*
X1233608Y5360963D2*
X1241608D1*
X1280607D2*
X1288608D1*
X1350616D2*
X1358938D1*
X1369600D2*
X1377943D1*
X1438205D2*
X1445772D1*
X1537608D2*
X1544608D1*
X1586608D2*
X1594608D1*
X1641608D2*
X1648608D1*
X1695608D2*
X1703608D1*
X1711272D2*
X1720981D1*
X1749608D2*
X1757608D1*
X1804608D2*
X1811608D1*
X1830298D2*
X1840281D1*
X1901579D2*
X1909206D1*
X1957269D2*
X1964764D1*
X1233608Y5359963D2*
X1241608D1*
X1280608D2*
X1288608D1*
X1350272D2*
X1358616D1*
X1369943D2*
X1378280D1*
X1437947D2*
X1445679D1*
X1537608D2*
X1544608D1*
X1586608D2*
X1594608D1*
X1641608D2*
X1648608D1*
X1695608D2*
X1703608D1*
X1711936D2*
X1721634D1*
X1749608D2*
X1757608D1*
X1804608D2*
X1811608D1*
X1829607D2*
X1839600D1*
X1901445D2*
X1908947D1*
X1957444D2*
X1965010D1*
X1233608Y5358963D2*
X1241608D1*
X1280608D2*
X1288608D1*
X1349936D2*
X1358272D1*
X1370280D2*
X1378600D1*
X1437771D2*
X1445636D1*
X1537608D2*
X1544608D1*
X1586608D2*
X1594608D1*
X1641608D2*
X1648608D1*
X1695608D2*
X1703608D1*
X1712615D2*
X1722279D1*
X1749608D2*
X1757608D1*
X1804608D2*
X1811608D1*
X1828946D2*
X1838943D1*
X1901203D2*
X1908771D1*
X1957537D2*
X1965269D1*
X1233608Y5357963D2*
X1241608D1*
X1280604D2*
X1288604D1*
X1349611D2*
X1357936D1*
X1370600D2*
X1378943D1*
X1437678D2*
X1445618D1*
X1537608D2*
X1544608D1*
X1586608D2*
X1594608D1*
X1641608D2*
X1648608D1*
X1695608D2*
X1703608D1*
X1713272D2*
X1722938D1*
X1749608D2*
X1757608D1*
X1804608D2*
X1811608D1*
X1828281D2*
X1838280D1*
X1900946D2*
X1908678D1*
X1957580D2*
X1965444D1*
X1233608Y5356963D2*
X1241608D1*
X1280569D2*
X1288569D1*
X1349237D2*
X1357615D1*
X1370943D2*
X1379280D1*
X1437636D2*
X1445611D1*
X1537608D2*
X1544608D1*
X1586608D2*
X1594608D1*
X1641608D2*
X1648608D1*
X1695608D2*
X1703608D1*
X1713936D2*
X1723616D1*
X1749608D2*
X1757608D1*
X1804608D2*
X1811608D1*
X1827600D2*
X1837600D1*
X1900771D2*
X1908636D1*
X1957597D2*
X1965537D1*
X1233608Y5355963D2*
X1241608D1*
X1280441D2*
X1288441D1*
X1348808D2*
X1357272D1*
X1371280D2*
X1379604D1*
X1437618D2*
X1445609D1*
X1537608D2*
X1544608D1*
X1586608D2*
X1594608D1*
X1641608D2*
X1648608D1*
X1695608D2*
X1703608D1*
X1714615D2*
X1724272D1*
X1749608D2*
X1757608D1*
X1804608D2*
X1811608D1*
X1826939D2*
X1836943D1*
X1900678D2*
X1908618D1*
X1957604D2*
X1965580D1*
X1233608Y5354963D2*
X1241608D1*
X1280198D2*
X1288202D1*
X1348372D2*
X1356936D1*
X1371600D2*
X1379978D1*
X1437611D2*
X1445608D1*
X1537608D2*
X1544608D1*
X1586608D2*
X1594608D1*
X1641608D2*
X1648608D1*
X1695608D2*
X1703608D1*
X1715272D2*
X1724936D1*
X1749608D2*
X1757608D1*
X1804608D2*
X1811608D1*
X1826245D2*
X1836280D1*
X1900636D2*
X1908611D1*
X1957606D2*
X1965597D1*
X1233608Y5353963D2*
X1241608D1*
X1279906D2*
X1287941D1*
X1347981D2*
X1356615D1*
X1371943D2*
X1380407D1*
X1437609D2*
X1445608D1*
X1537608D2*
X1544608D1*
X1586608D2*
X1594608D1*
X1641608D2*
X1648608D1*
X1695608D2*
X1703608D1*
X1715936D2*
X1725615D1*
X1749608D2*
X1757608D1*
X1804608D2*
X1811608D1*
X1825473D2*
X1835600D1*
X1900618D2*
X1908609D1*
X1957607D2*
X1965604D1*
X1233608Y5352963D2*
X1241608D1*
X1279600D2*
X1287732D1*
X1347634D2*
X1356272D1*
X1372280D2*
X1380843D1*
X1437608D2*
X1445608D1*
X1537608D2*
X1544608D1*
X1586608D2*
X1594608D1*
X1641608D2*
X1648608D1*
X1695608D2*
X1703608D1*
X1716615D2*
X1726272D1*
X1749608D2*
X1757608D1*
X1804608D2*
X1811608D1*
X1824661D2*
X1834939D1*
X1900611D2*
X1908608D1*
X1957607D2*
X1965606D1*
X1233608Y5351963D2*
X1241608D1*
X1279229D2*
X1287512D1*
X1347279D2*
X1355936D1*
X1372604D2*
X1381235D1*
X1437608D2*
X1445608D1*
X1537608D2*
X1544608D1*
X1586608D2*
X1594608D1*
X1641608D2*
X1648608D1*
X1695608D2*
X1703608D1*
X1717272D2*
X1726936D1*
X1749608D2*
X1757608D1*
X1804608D2*
X1811608D1*
X1823818D2*
X1834245D1*
X1900609D2*
X1908608D1*
X1957608D2*
X1965607D1*
X1233608Y5350963D2*
X1241608D1*
X1278760D2*
X1287226D1*
X1346938D2*
X1355611D1*
X1372978D2*
X1381582D1*
X1437608D2*
X1445608D1*
X1537608D2*
X1544608D1*
X1586608D2*
X1594608D1*
X1641608D2*
X1648608D1*
X1695608D2*
X1703608D1*
X1717936D2*
X1727615D1*
X1749608D2*
X1757608D1*
X1804608D2*
X1811608D1*
X1821360D2*
X1833473D1*
X1900608D2*
X1908608D1*
X1957608D2*
X1965607D1*
X1233608Y5349963D2*
X1241608D1*
X1278123D2*
X1286917D1*
X1346612D2*
X1355237D1*
X1373407D2*
X1381936D1*
X1437608D2*
X1445608D1*
X1537608D2*
X1544608D1*
X1586608D2*
X1594608D1*
X1641608D2*
X1648608D1*
X1695608D2*
X1703608D1*
X1718611D2*
X1728272D1*
X1749608D2*
X1757608D1*
X1804608D2*
X1811608D1*
X1817090D2*
X1832700D1*
X1900608D2*
X1908608D1*
X1957608D2*
X1965608D1*
X1233608Y5348963D2*
X1241608D1*
X1277195D2*
X1286604D1*
X1346237D2*
X1354808D1*
X1373843D2*
X1382277D1*
X1437608D2*
X1445608D1*
X1537608D2*
X1544608D1*
X1586608D2*
X1594608D1*
X1641608D2*
X1648608D1*
X1695608D2*
X1703608D1*
X1719237D2*
X1728936D1*
X1749608D2*
X1757608D1*
X1804608D2*
X1831988D1*
X1900608D2*
X1908608D1*
X1957608D2*
X1965608D1*
X1233608Y5347963D2*
X1241608D1*
X1275911D2*
X1286234D1*
X1345808D2*
X1354372D1*
X1374235D2*
X1382599D1*
X1437608D2*
X1445608D1*
X1537608D2*
X1594608D1*
X1641608D2*
X1648608D1*
X1695608D2*
X1703608D1*
X1719808D2*
X1729615D1*
X1749608D2*
X1757608D1*
X1804608D2*
X1831306D1*
X1900608D2*
X1908608D1*
X1957608D2*
X1965608D1*
X1233608Y5346963D2*
X1241608D1*
X1274325D2*
X1285803D1*
X1345372D2*
X1353981D1*
X1374582D2*
X1382943D1*
X1437608D2*
X1445608D1*
X1537608D2*
X1594608D1*
X1641608D2*
X1648608D1*
X1695608D2*
X1703608D1*
X1720372D2*
X1730272D1*
X1749608D2*
X1757608D1*
X1804608D2*
X1830693D1*
X1900608D2*
X1908608D1*
X1957608D2*
X1965608D1*
X1233608Y5345963D2*
X1285332D1*
X1344981D2*
X1353634D1*
X1374936D2*
X1383280D1*
X1437608D2*
X1445608D1*
X1537608D2*
X1594608D1*
X1641608D2*
X1648608D1*
X1695608D2*
X1703608D1*
X1720981D2*
X1730936D1*
X1749608D2*
X1757608D1*
X1804608D2*
X1830215D1*
X1900608D2*
X1908608D1*
X1957608D2*
X1965608D1*
X1233608Y5344963D2*
X1284810D1*
X1344634D2*
X1353279D1*
X1375277D2*
X1383600D1*
X1437608D2*
X1445608D1*
X1537608D2*
X1594608D1*
X1641608D2*
X1648608D1*
X1695608D2*
X1703608D1*
X1721634D2*
X1731615D1*
X1749608D2*
X1757608D1*
X1804608D2*
X1830305D1*
X1900608D2*
X1908608D1*
X1957608D2*
X1965608D1*
X1233608Y5343963D2*
X1284181D1*
X1344279D2*
X1352938D1*
X1375599D2*
X1383943D1*
X1437608D2*
X1445608D1*
X1537608D2*
X1594608D1*
X1641608D2*
X1648608D1*
X1695608D2*
X1703608D1*
X1722279D2*
X1732272D1*
X1749608D2*
X1757608D1*
X1804608D2*
X1830791D1*
X1900608D2*
X1908608D1*
X1957608D2*
X1965608D1*
X1233608Y5342963D2*
X1283368D1*
X1343938D2*
X1352616D1*
X1375943D2*
X1384280D1*
X1437608D2*
X1445608D1*
X1537608D2*
X1594608D1*
X1641608D2*
X1648608D1*
X1695608D2*
X1703608D1*
X1722938D2*
X1732936D1*
X1749608D2*
X1757608D1*
X1804608D2*
X1831345D1*
X1900608D2*
X1908608D1*
X1957608D2*
X1965608D1*
X1233608Y5341963D2*
X1282315D1*
X1343616D2*
X1352272D1*
X1376280D2*
X1384600D1*
X1437608D2*
X1445608D1*
X1537608D2*
X1594608D1*
X1641608D2*
X1648608D1*
X1695608D2*
X1703608D1*
X1723616D2*
X1733615D1*
X1749608D2*
X1757608D1*
X1804608D2*
X1831963D1*
X1900608D2*
X1908608D1*
X1957608D2*
X1965608D1*
X1233608Y5340963D2*
X1280960D1*
X1343272D2*
X1351936D1*
X1376600D2*
X1384943D1*
X1437608D2*
X1445608D1*
X1537608D2*
X1594608D1*
X1641608D2*
X1648608D1*
X1695608D2*
X1703608D1*
X1724272D2*
X1734272D1*
X1749608D2*
X1757608D1*
X1804608D2*
X1812608D1*
X1822453D2*
X1832625D1*
X1900608D2*
X1908608D1*
X1957608D2*
X1965608D1*
X1233608Y5339963D2*
X1279319D1*
X1342936D2*
X1351615D1*
X1376943D2*
X1385280D1*
X1437608D2*
X1445608D1*
X1537608D2*
X1594608D1*
X1641608D2*
X1648608D1*
X1695608D2*
X1703608D1*
X1724936D2*
X1734936D1*
X1749608D2*
X1757608D1*
X1804608D2*
X1812608D1*
X1823201D2*
X1833275D1*
X1900608D2*
X1908608D1*
X1957608D2*
X1965608D1*
X1233608Y5338963D2*
X1241608D1*
X1247608D2*
X1277498D1*
X1342611D2*
X1351276D1*
X1377284D2*
X1385600D1*
X1437608D2*
X1445608D1*
X1537608D2*
X1544608D1*
X1586608D2*
X1594608D1*
X1641608D2*
X1648608D1*
X1695608D2*
X1703608D1*
X1725615D2*
X1735615D1*
X1749608D2*
X1757608D1*
X1804608D2*
X1812608D1*
X1823907D2*
X1833937D1*
X1900608D2*
X1908608D1*
X1957608D2*
X1965608D1*
X1233608Y5337963D2*
X1241608D1*
X1258608D2*
X1275608D1*
X1342237D2*
X1350975D1*
X1377643D2*
X1385943D1*
X1437608D2*
X1445608D1*
X1537608D2*
X1544608D1*
X1586608D2*
X1594608D1*
X1641608D2*
X1648608D1*
X1695608D2*
X1703608D1*
X1726272D2*
X1736272D1*
X1749608D2*
X1757608D1*
X1804608D2*
X1812608D1*
X1824605D2*
X1834616D1*
X1900608D2*
X1908608D1*
X1957608D2*
X1965608D1*
X1233608Y5336963D2*
X1241608D1*
X1341808D2*
X1350781D1*
X1378145D2*
X1386280D1*
X1437608D2*
X1445608D1*
X1537608D2*
X1544608D1*
X1586608D2*
X1594608D1*
X1641608D2*
X1648608D1*
X1695608D2*
X1703608D1*
X1726936D2*
X1736936D1*
X1749608D2*
X1757608D1*
X1804608D2*
X1812608D1*
X1825272D2*
X1835276D1*
X1900608D2*
X1908608D1*
X1957608D2*
X1965608D1*
X1233608Y5335963D2*
X1241608D1*
X1341372D2*
X1350676D1*
X1378831D2*
X1386604D1*
X1437612D2*
X1445608D1*
X1537608D2*
X1544608D1*
X1586608D2*
X1594608D1*
X1641608D2*
X1648608D1*
X1695608D2*
X1703608D1*
X1727615D2*
X1737615D1*
X1749608D2*
X1757608D1*
X1804608D2*
X1812608D1*
X1825969D2*
X1835971D1*
X1900608D2*
X1908608D1*
X1957608D2*
X1965608D1*
X1233608Y5334963D2*
X1241608D1*
X1340981D2*
X1386978D1*
X1437647D2*
X1445612D1*
X1537608D2*
X1544608D1*
X1586608D2*
X1594608D1*
X1641608D2*
X1648608D1*
X1695608D2*
X1703608D1*
X1728272D2*
X1738272D1*
X1749608D2*
X1757608D1*
X1804608D2*
X1812608D1*
X1826742D2*
X1836743D1*
X1900608D2*
X1908608D1*
X1957608D2*
X1965608D1*
X1233608Y5333963D2*
X1241608D1*
X1340634D2*
X1387407D1*
X1437774D2*
X1445647D1*
X1537608D2*
X1544608D1*
X1586608D2*
X1594608D1*
X1641608D2*
X1648608D1*
X1695608D2*
X1703608D1*
X1728936D2*
X1738936D1*
X1749608D2*
X1757608D1*
X1804608D2*
X1812608D1*
X1827515D2*
X1837515D1*
X1900612D2*
X1908608D1*
X1957608D2*
X1965604D1*
X1233608Y5332963D2*
X1241608D1*
X1340279D2*
X1387843D1*
X1438014D2*
X1445774D1*
X1537608D2*
X1544608D1*
X1586608D2*
X1594608D1*
X1641608D2*
X1648608D1*
X1695608D2*
X1703608D1*
X1729615D2*
X1739611D1*
X1749608D2*
X1757608D1*
X1804608D2*
X1812608D1*
X1828227D2*
X1838227D1*
X1900647D2*
X1908608D1*
X1957604D2*
X1965569D1*
X1233608Y5331963D2*
X1241608D1*
X1339938D2*
X1388235D1*
X1438270D2*
X1446014D1*
X1537608D2*
X1544608D1*
X1586608D2*
X1594608D1*
X1641608D2*
X1648608D1*
X1695608D2*
X1703608D1*
X1730272D2*
X1740237D1*
X1749608D2*
X1757608D1*
X1804608D2*
X1812608D1*
X1828917D2*
X1838917D1*
X1900774D2*
X1908612D1*
X1957569D2*
X1965441D1*
X1233608Y5330963D2*
X1241608D1*
X1339616D2*
X1388582D1*
X1438444D2*
X1446270D1*
X1537608D2*
X1544608D1*
X1586608D2*
X1594608D1*
X1641608D2*
X1648608D1*
X1695608D2*
X1703608D1*
X1730936D2*
X1740808D1*
X1749608D2*
X1757608D1*
X1804608D2*
X1812608D1*
X1829608D2*
X1839608D1*
X1901014D2*
X1908647D1*
X1957441D2*
X1965202D1*
X1233608Y5329963D2*
X1241608D1*
X1339272D2*
X1388936D1*
X1438541D2*
X1446448D1*
X1537608D2*
X1544608D1*
X1586608D2*
X1594608D1*
X1641608D2*
X1648608D1*
X1695608D2*
X1703608D1*
X1731615D2*
X1741372D1*
X1749608D2*
X1757608D1*
X1804608D2*
X1812608D1*
X1830269D2*
X1840269D1*
X1901270D2*
X1908774D1*
X1957202D2*
X1964945D1*
X1233608Y5328963D2*
X1241608D1*
X1338936D2*
X1389277D1*
X1438619D2*
X1446576D1*
X1537608D2*
X1544608D1*
X1586608D2*
X1594608D1*
X1641608D2*
X1648608D1*
X1695608D2*
X1703608D1*
X1732272D2*
X1741981D1*
X1749608D2*
X1757608D1*
X1804608D2*
X1812608D1*
X1830935D2*
X1840935D1*
X1901444D2*
X1909014D1*
X1956945D2*
X1964771D1*
X1233608Y5327963D2*
X1241608D1*
X1338611D2*
X1389599D1*
X1438764D2*
X1446746D1*
X1537608D2*
X1544608D1*
X1586608D2*
X1594608D1*
X1641608D2*
X1648608D1*
X1695608D2*
X1703608D1*
X1732936D2*
X1742634D1*
X1749608D2*
X1757608D1*
X1804608D2*
X1812608D1*
X1831615D2*
X1841615D1*
X1901537D2*
X1909270D1*
X1956767D2*
X1964674D1*
X1233608Y5326963D2*
X1241608D1*
X1338237D2*
X1389943D1*
X1439010D2*
X1447007D1*
X1537608D2*
X1544608D1*
X1586608D2*
X1594608D1*
X1641608D2*
X1648608D1*
X1695608D2*
X1703608D1*
X1733615D2*
X1743279D1*
X1749608D2*
X1757608D1*
X1804608D2*
X1812608D1*
X1832272D2*
X1842272D1*
X1901583D2*
X1909448D1*
X1956639D2*
X1964597D1*
X1233608Y5325963D2*
X1241608D1*
X1337808D2*
X1346453D1*
X1381762D2*
X1390280D1*
X1439273D2*
X1447305D1*
X1537608D2*
X1544608D1*
X1586608D2*
X1594608D1*
X1641608D2*
X1648608D1*
X1695608D2*
X1703608D1*
X1734272D2*
X1743938D1*
X1749608D2*
X1757608D1*
X1804608D2*
X1812608D1*
X1832935D2*
X1842935D1*
X1901636D2*
X1909576D1*
X1956469D2*
X1964452D1*
X1233608Y5324963D2*
X1241608D1*
X1337372D2*
X1346201D1*
X1382014D2*
X1390600D1*
X1439483D2*
X1447614D1*
X1537608D2*
X1544608D1*
X1586608D2*
X1594608D1*
X1641608D2*
X1648608D1*
X1695608D2*
X1703608D1*
X1734936D2*
X1744616D1*
X1749608D2*
X1757608D1*
X1804608D2*
X1812608D1*
X1833615D2*
X1843615D1*
X1901770D2*
X1909746D1*
X1956208D2*
X1964205D1*
X1233608Y5323963D2*
X1241608D1*
X1336981D2*
X1345907D1*
X1382308D2*
X1390943D1*
X1439704D2*
X1447982D1*
X1537608D2*
X1544608D1*
X1586608D2*
X1594608D1*
X1641608D2*
X1648608D1*
X1695608D2*
X1703608D1*
X1735615D2*
X1745272D1*
X1749608D2*
X1757608D1*
X1804608D2*
X1812608D1*
X1834276D2*
X1844272D1*
X1902012D2*
X1910007D1*
X1955910D2*
X1963943D1*
X1233608Y5322963D2*
X1241608D1*
X1336634D2*
X1345605D1*
X1382611D2*
X1391280D1*
X1439989D2*
X1448412D1*
X1537608D2*
X1544608D1*
X1586608D2*
X1594608D1*
X1641608D2*
X1648608D1*
X1695608D2*
X1703608D1*
X1736272D2*
X1745936D1*
X1749604D2*
X1757608D1*
X1804608D2*
X1812608D1*
X1834971D2*
X1844936D1*
X1902273D2*
X1910305D1*
X1955606D2*
X1963732D1*
X1233608Y5321963D2*
X1241608D1*
X1336279D2*
X1345268D1*
X1382947D2*
X1391600D1*
X1440299D2*
X1448879D1*
X1537608D2*
X1544608D1*
X1586608D2*
X1594608D1*
X1641608D2*
X1648608D1*
X1695608D2*
X1703608D1*
X1736936D2*
X1746615D1*
X1749566D2*
X1757608D1*
X1804608D2*
X1812608D1*
X1835743D2*
X1845615D1*
X1902483D2*
X1910614D1*
X1955269D2*
X1963512D1*
X1233608Y5320963D2*
X1241608D1*
X1335938D2*
X1344934D1*
X1383281D2*
X1391943D1*
X1440607D2*
X1449366D1*
X1537608D2*
X1544608D1*
X1586608D2*
X1594608D1*
X1641608D2*
X1648608D1*
X1695608D2*
X1703608D1*
X1737615D2*
X1747267D1*
X1749411D2*
X1757608D1*
X1804608D2*
X1812608D1*
X1836515D2*
X1846276D1*
X1902708D2*
X1910986D1*
X1954930D2*
X1963226D1*
X1233608Y5319963D2*
X1241608D1*
X1335612D2*
X1344615D1*
X1383600D2*
X1392280D1*
X1440946D2*
X1449864D1*
X1537608D2*
X1544608D1*
X1586608D2*
X1594608D1*
X1641608D2*
X1648608D1*
X1695608D2*
X1703608D1*
X1738272D2*
X1747922D1*
X1749069D2*
X1757608D1*
X1804608D2*
X1812608D1*
X1837227D2*
X1846971D1*
X1903025D2*
X1911451D1*
X1954572D2*
X1962917D1*
X1233608Y5318963D2*
X1241608D1*
X1335237D2*
X1344272D1*
X1383943D2*
X1392600D1*
X1441281D2*
X1450398D1*
X1537608D2*
X1544608D1*
X1586608D2*
X1594608D1*
X1641608D2*
X1648608D1*
X1695608D2*
X1703608D1*
X1738936D2*
X1757608D1*
X1804608D2*
X1812608D1*
X1837917D2*
X1847743D1*
X1903426D2*
X1912049D1*
X1954066D2*
X1962608D1*
X1233608Y5317963D2*
X1241608D1*
X1334808D2*
X1343935D1*
X1384280D2*
X1392943D1*
X1441604D2*
X1451028D1*
X1537608D2*
X1544608D1*
X1586608D2*
X1594608D1*
X1641608D2*
X1648608D1*
X1695608D2*
X1703608D1*
X1739615D2*
X1757608D1*
X1804608D2*
X1812608D1*
X1838608D2*
X1848515D1*
X1903851D2*
X1912811D1*
X1953359D2*
X1962269D1*
X1233608Y5316963D2*
X1241608D1*
X1334372D2*
X1343615D1*
X1384600D2*
X1393280D1*
X1441982D2*
X1451803D1*
X1537608D2*
X1544608D1*
X1586608D2*
X1594608D1*
X1641608D2*
X1648608D1*
X1695608D2*
X1703608D1*
X1740272D2*
X1757608D1*
X1804608D2*
X1812608D1*
X1839269D2*
X1849227D1*
X1904241D2*
X1913693D1*
X1952500D2*
X1961935D1*
X1233608Y5315963D2*
X1241608D1*
X1333981D2*
X1343272D1*
X1384939D2*
X1393604D1*
X1442446D2*
X1452694D1*
X1537608D2*
X1544608D1*
X1586608D2*
X1594608D1*
X1641608D2*
X1648608D1*
X1695608D2*
X1703608D1*
X1740936D2*
X1757608D1*
X1804608D2*
X1812608D1*
X1839935D2*
X1849917D1*
X1904622D2*
X1914649D1*
X1951524D2*
X1961611D1*
X1233608Y5314963D2*
X1241608D1*
X1333634D2*
X1342936D1*
X1385245D2*
X1393978D1*
X1443010D2*
X1453687D1*
X1537608D2*
X1544608D1*
X1586608D2*
X1594608D1*
X1641608D2*
X1648608D1*
X1695608D2*
X1703608D1*
X1741615D2*
X1757608D1*
X1804608D2*
X1812608D1*
X1840615D2*
X1850608D1*
X1905103D2*
X1915714D1*
X1950372D2*
X1961233D1*
X1233608Y5313963D2*
X1241608D1*
X1333279D2*
X1342615D1*
X1385473D2*
X1394407D1*
X1443645D2*
X1454872D1*
X1537608D2*
X1544608D1*
X1586608D2*
X1594608D1*
X1641608D2*
X1648608D1*
X1695608D2*
X1703608D1*
X1742272D2*
X1757608D1*
X1804608D2*
X1812608D1*
X1841276D2*
X1851269D1*
X1905683D2*
X1917117D1*
X1948858D2*
X1960769D1*
X1233608Y5312963D2*
X1241608D1*
X1332938D2*
X1342272D1*
X1385700D2*
X1394843D1*
X1444287D2*
X1456436D1*
X1537608D2*
X1544608D1*
X1586608D2*
X1594608D1*
X1641608D2*
X1648608D1*
X1695608D2*
X1703608D1*
X1742936D2*
X1757608D1*
X1804608D2*
X1812608D1*
X1841971D2*
X1851935D1*
X1906265D2*
X1919258D1*
X1946700D2*
X1960205D1*
X1233608Y5311963D2*
X1241608D1*
X1332616D2*
X1341936D1*
X1385988D2*
X1395235D1*
X1444978D2*
X1458498D1*
X1537608D2*
X1544608D1*
X1586608D2*
X1594608D1*
X1641608D2*
X1648608D1*
X1695608D2*
X1703608D1*
X1743615D2*
X1757608D1*
X1804608D2*
X1812608D1*
X1842743D2*
X1852615D1*
X1906819D2*
X1922385D1*
X1943658D2*
X1959571D1*
X1233608Y5310963D2*
X1241608D1*
X1332272D2*
X1341615D1*
X1386298D2*
X1395582D1*
X1445783D2*
X1460965D1*
X1484608D2*
X1493608D1*
X1537608D2*
X1544608D1*
X1586608D2*
X1594608D1*
X1641608D2*
X1648608D1*
X1695608D2*
X1703608D1*
X1744272D2*
X1757608D1*
X1804608D2*
X1812608D1*
X1843515D2*
X1853272D1*
X1907380D2*
X1926322D1*
X1939812D2*
X1958924D1*
X1233608Y5309963D2*
X1241608D1*
X1331936D2*
X1341272D1*
X1386607D2*
X1395936D1*
X1446682D2*
X1493608D1*
X1537608D2*
X1544608D1*
X1586608D2*
X1594608D1*
X1641608D2*
X1648608D1*
X1695608D2*
X1703608D1*
X1744936D2*
X1757608D1*
X1804608D2*
X1812608D1*
X1844227D2*
X1853935D1*
X1908025D2*
X1958198D1*
X1233608Y5308963D2*
X1241608D1*
X1331611D2*
X1340936D1*
X1386946D2*
X1396277D1*
X1447641D2*
X1493608D1*
X1537608D2*
X1544608D1*
X1586608D2*
X1594608D1*
X1641608D2*
X1648608D1*
X1695608D2*
X1703608D1*
X1745611D2*
X1757608D1*
X1804608D2*
X1812608D1*
X1844917D2*
X1854615D1*
X1908844D2*
X1957262D1*
X1233608Y5307963D2*
X1241608D1*
X1331237D2*
X1340615D1*
X1387281D2*
X1396599D1*
X1448662D2*
X1493600D1*
X1537608D2*
X1544608D1*
X1586608D2*
X1594608D1*
X1641608D2*
X1648608D1*
X1695608D2*
X1703608D1*
X1746237D2*
X1757608D1*
X1804608D2*
X1812608D1*
X1845608D2*
X1855272D1*
X1909899D2*
X1956080D1*
X1233608Y5306963D2*
X1241608D1*
X1330808D2*
X1340272D1*
X1387600D2*
X1396943D1*
X1449821D2*
X1493502D1*
X1537608D2*
X1544608D1*
X1586608D2*
X1594608D1*
X1641608D2*
X1648608D1*
X1695608D2*
X1703608D1*
X1746808D2*
X1757608D1*
X1804608D2*
X1812608D1*
X1846269D2*
X1855936D1*
X1911263D2*
X1954663D1*
X1233608Y5305963D2*
X1241608D1*
X1330376D2*
X1339933D1*
X1387940D2*
X1397283D1*
X1451236D2*
X1493256D1*
X1537608D2*
X1544608D1*
X1586608D2*
X1594608D1*
X1641608D2*
X1648608D1*
X1695608D2*
X1703608D1*
X1747376D2*
X1757608D1*
X1804608D2*
X1812608D1*
X1846932D2*
X1856615D1*
X1912981D2*
X1952935D1*
X1233608Y5304963D2*
X1241608D1*
X1330017D2*
X1339584D1*
X1388243D2*
X1397631D1*
X1453012D2*
X1491819D1*
X1537608D2*
X1544608D1*
X1586608D2*
X1594608D1*
X1641608D2*
X1648608D1*
X1695608D2*
X1703608D1*
X1748017D2*
X1757608D1*
X1804608D2*
X1812608D1*
X1847584D2*
X1857267D1*
X1915119D2*
X1950785D1*
X1233608Y5303963D2*
X1241608D1*
X1329780D2*
X1339137D1*
X1388452D2*
X1398078D1*
X1455312D2*
X1487373D1*
X1537608D2*
X1544608D1*
X1586608D2*
X1594608D1*
X1641608D2*
X1648608D1*
X1695608D2*
X1703608D1*
X1748780D2*
X1757608D1*
X1804608D2*
X1812608D1*
X1848137D2*
X1857922D1*
X1917727D2*
X1948275D1*
X1233608Y5302963D2*
X1241608D1*
X1329608D2*
X1338608D1*
X1388608D2*
X1398608D1*
X1458264D2*
X1481027D1*
X1537608D2*
X1544608D1*
X1586608D2*
X1594608D1*
X1641608D2*
X1648608D1*
X1695608D2*
X1703608D1*
X1749608D2*
X1757608D1*
X1804608D2*
X1812608D1*
X1848608D2*
X1858608D1*
X1920608D2*
X1945608D1*
X1461608Y5301963D2*
X1473608D1*
X1886656Y561727D2*
D3*
X1818656Y560727D2*
X1819656D1*
X1886656D2*
X1887656D1*
X1818656Y559727D2*
X1820656D1*
X1886656D2*
X1888656D1*
X1818656Y558727D2*
X1821656D1*
X1886656D2*
X1889656D1*
X1818656Y557727D2*
X1822656D1*
X1886656D2*
X1890656D1*
X1818656Y556727D2*
X1823656D1*
X1886656D2*
X1891656D1*
X1818656Y555727D2*
X1824656D1*
X1886656D2*
X1892656D1*
X1818656Y554727D2*
X1825656D1*
X1886656D2*
X1893656D1*
X1818656Y553727D2*
X1826656D1*
X1886656D2*
X1894656D1*
X1818656Y552727D2*
X1827656D1*
X1886656D2*
X1895656D1*
X1818656Y551727D2*
X1828656D1*
X1886656D2*
X1896656D1*
X1818656Y550727D2*
X1829656D1*
X1886656D2*
X1897656D1*
X1818656Y549727D2*
X1830656D1*
X1886656D2*
X1898656D1*
X1818656Y548727D2*
X1831656D1*
X1886656D2*
X1899656D1*
X1818656Y547727D2*
X1832656D1*
X1886656D2*
X1900656D1*
X1818656Y546727D2*
X1833656D1*
X1886656D2*
X1901656D1*
X1818656Y545727D2*
X1834656D1*
X1886656D2*
X1902656D1*
X1818656Y544727D2*
X1835656D1*
X1886656D2*
X1903656D1*
X1818656Y543727D2*
X1836656D1*
X1886656D2*
X1904656D1*
X1818656Y542727D2*
X1837656D1*
X1886656D2*
X1905656D1*
X1818656Y541727D2*
X1838656D1*
X1886656D2*
X1906656D1*
X1818656Y540727D2*
X1839656D1*
X1886656D2*
X1907656D1*
X1818656Y539727D2*
X1840656D1*
X1886656D2*
X1908656D1*
X1818656Y538727D2*
X1841656D1*
X1886656D2*
X1909656D1*
X1818656Y537727D2*
X1842656D1*
X1886656D2*
X1910656D1*
X1818656Y536727D2*
X1843652D1*
X1886656D2*
X1911652D1*
X1818656Y535727D2*
X1844613D1*
X1886656D2*
X1912613D1*
X1818656Y534727D2*
X1845447D1*
X1886656D2*
X1913447D1*
X1818656Y533727D2*
X1846041D1*
X1886656D2*
X1914041D1*
X1818656Y532727D2*
X1846378D1*
X1852656D2*
X1853656D1*
X1886656D2*
X1914378D1*
X1818656Y531727D2*
X1846541D1*
X1852656D2*
X1854656D1*
X1886656D2*
X1914541D1*
X1818656Y530727D2*
X1846612D1*
X1852656D2*
X1855656D1*
X1886656D2*
X1914612D1*
X1818656Y529727D2*
X1846640D1*
X1852656D2*
X1856656D1*
X1886656D2*
X1914640D1*
X1818656Y528727D2*
X1846650D1*
X1852656D2*
X1857656D1*
X1886656D2*
X1914650D1*
X1818656Y527727D2*
X1846654D1*
X1852656D2*
X1858656D1*
X1886656D2*
X1914654D1*
X1818656Y526727D2*
X1846656D1*
X1852656D2*
X1859656D1*
X1886656D2*
X1914656D1*
X1818656Y525727D2*
X1846656D1*
X1852656D2*
X1860656D1*
X1886656D2*
X1914656D1*
X1818656Y524727D2*
X1846656D1*
X1852656D2*
X1861656D1*
X1886656D2*
X1914656D1*
X1818656Y523727D2*
X1846656D1*
X1852656D2*
X1862656D1*
X1886656D2*
X1914656D1*
X1818656Y522727D2*
X1846656D1*
X1852656D2*
X1863656D1*
X1886656D2*
X1914656D1*
X1818656Y521727D2*
X1846656D1*
X1852656D2*
X1864656D1*
X1886656D2*
X1914656D1*
X1818656Y520727D2*
X1846656D1*
X1852656D2*
X1865656D1*
X1886656D2*
X1914656D1*
X1818656Y519727D2*
X1846656D1*
X1852656D2*
X1866656D1*
X1886656D2*
X1914656D1*
X1818656Y518727D2*
X1846656D1*
X1852656D2*
X1867656D1*
X1886656D2*
X1914656D1*
X1818656Y517727D2*
X1846656D1*
X1852656D2*
X1868656D1*
X1886656D2*
X1914656D1*
X1818656Y516727D2*
X1846656D1*
X1852656D2*
X1869656D1*
X1886656D2*
X1914656D1*
X1818656Y515727D2*
X1846656D1*
X1852656D2*
X1870656D1*
X1886656D2*
X1914656D1*
X1818656Y514727D2*
X1846656D1*
X1852656D2*
X1871656D1*
X1886656D2*
X1914656D1*
X1818656Y513727D2*
X1846656D1*
X1852656D2*
X1872656D1*
X1886656D2*
X1914656D1*
X1818656Y512727D2*
X1846656D1*
X1852656D2*
X1873656D1*
X1886656D2*
X1914656D1*
X1818656Y511727D2*
X1846656D1*
X1852656D2*
X1874656D1*
X1886656D2*
X1914656D1*
X1818656Y510727D2*
X1846656D1*
X1852656D2*
X1875656D1*
X1886656D2*
X1914656D1*
X1818656Y509727D2*
X1846656D1*
X1852660D2*
X1876680D1*
X1886656D2*
X1914656D1*
X1818656Y508727D2*
X1846656D1*
X1852699D2*
X1877908D1*
X1886656D2*
X1914656D1*
X1818656Y507727D2*
X1846656D1*
X1852866D2*
X1879835D1*
X1886656D2*
X1914656D1*
X1818656Y506727D2*
X1846656D1*
X1853272D2*
X1882887D1*
X1886656D2*
X1914656D1*
X1818656Y505727D2*
X1846656D1*
X1853934D2*
X1914656D1*
X1818656Y504727D2*
X1846656D1*
X1854771D2*
X1914656D1*
X1818656Y503727D2*
X1846656D1*
X1855700D2*
X1914656D1*
X1818656Y502727D2*
X1846656D1*
X1856672D2*
X1914656D1*
X1818656Y501727D2*
X1846656D1*
X1857662D2*
X1914656D1*
X1818656Y500727D2*
X1846656D1*
X1858658D2*
X1914656D1*
X1818656Y499727D2*
X1846656D1*
X1859657D2*
X1914656D1*
X1818656Y498727D2*
X1846656D1*
X1860656D2*
X1914656D1*
X1818656Y497727D2*
X1846656D1*
X1861656D2*
X1914656D1*
X1818656Y496727D2*
X1846656D1*
X1862656D2*
X1914656D1*
X1818656Y495727D2*
X1846656D1*
X1863656D2*
X1914656D1*
X1818656Y494727D2*
X1846656D1*
X1864656D2*
X1914656D1*
X1818656Y493727D2*
X1846656D1*
X1865656D2*
X1914656D1*
X1818656Y492727D2*
X1846656D1*
X1866656D2*
X1914656D1*
X1818656Y491727D2*
X1846656D1*
X1867656D2*
X1914656D1*
X1818656Y490727D2*
X1846656D1*
X1868656D2*
X1914656D1*
X1818656Y489727D2*
X1846656D1*
X1869656D2*
X1914656D1*
X1818656Y488727D2*
X1846656D1*
X1870656D2*
X1914656D1*
X1818656Y487727D2*
X1846656D1*
X1871656D2*
X1914656D1*
X1818656Y486727D2*
X1846656D1*
X1872656D2*
X1914656D1*
X1818656Y485727D2*
X1846656D1*
X1873656D2*
X1914656D1*
X1818656Y484727D2*
X1846656D1*
X1874656D2*
X1914656D1*
X1818656Y483727D2*
X1846656D1*
X1875656D2*
X1914656D1*
X1818656Y482727D2*
X1846656D1*
X1876656D2*
X1914656D1*
X1818656Y481727D2*
X1846656D1*
X1877656D2*
X1914656D1*
X1818656Y480727D2*
X1846656D1*
X1878656D2*
X1914656D1*
X1818656Y479727D2*
X1846656D1*
X1879656D2*
X1914656D1*
X1818656Y478727D2*
X1846656D1*
X1880656D2*
X1914656D1*
X1374117Y568963D2*
Y567963D1*
Y566963D1*
Y565963D1*
Y564963D1*
Y563963D1*
Y562963D1*
Y561963D1*
Y560963D1*
Y559963D1*
Y558963D1*
Y557963D1*
Y556963D1*
Y555963D1*
Y554963D1*
Y553963D1*
Y552963D1*
Y551963D1*
Y550963D1*
Y549963D1*
Y548963D1*
Y547963D1*
Y546963D1*
Y545963D1*
Y544963D1*
Y543963D1*
Y542963D1*
Y541963D1*
Y540963D1*
Y539963D1*
Y538963D1*
Y537963D1*
Y536963D1*
Y535963D1*
Y534963D1*
Y533963D1*
Y532963D1*
Y531963D1*
Y530963D1*
Y529963D1*
Y528963D1*
Y527963D1*
Y526963D1*
Y525963D1*
Y524963D1*
Y523963D1*
Y522963D1*
Y521963D1*
Y520963D1*
Y519963D1*
Y518963D1*
Y517963D1*
Y516963D1*
Y515963D1*
Y514963D1*
Y513963D1*
Y512963D1*
Y511963D1*
Y510963D1*
Y509963D1*
Y508963D1*
Y507963D1*
Y506963D1*
Y505963D1*
Y504963D1*
Y503963D1*
Y502963D1*
Y501963D1*
Y500963D1*
Y499963D1*
Y498963D1*
Y497963D1*
Y496963D1*
Y495963D1*
Y494963D1*
Y493963D1*
Y492963D1*
Y491963D1*
Y490963D1*
Y489963D1*
Y488963D1*
Y487963D1*
Y486963D1*
Y485963D1*
Y484963D1*
Y483963D1*
Y482963D1*
Y481963D1*
Y480963D1*
Y479963D1*
Y478963D1*
Y477963D1*
X1382117Y568963D2*
Y567963D1*
Y566963D1*
Y565963D1*
Y564963D1*
Y563963D1*
Y562963D1*
Y561963D1*
Y560963D1*
Y559963D1*
Y558963D1*
Y557963D1*
Y556963D1*
Y555963D1*
Y554963D1*
Y553963D1*
Y552963D1*
Y551963D1*
Y550963D1*
Y549963D1*
Y548963D1*
Y547963D1*
Y546963D1*
Y545963D1*
Y544963D1*
Y543963D1*
Y542963D1*
Y541963D1*
Y540963D1*
Y539963D1*
Y538963D1*
Y537963D1*
Y536963D1*
Y535963D1*
Y534963D1*
Y533963D1*
Y532963D1*
Y531963D1*
Y530963D1*
Y529963D1*
Y528963D1*
Y527963D1*
Y526963D1*
Y525963D1*
Y524963D1*
Y523963D1*
Y522963D1*
Y521963D1*
Y520963D1*
Y519963D1*
Y518963D1*
Y517963D1*
X1387117Y516963D1*
X1530117Y568963D2*
Y567963D1*
Y566963D1*
Y565963D1*
Y564963D1*
Y563963D1*
Y562963D1*
Y561963D1*
Y560963D1*
Y559963D1*
Y558963D1*
Y557963D1*
Y556963D1*
Y555963D1*
Y554963D1*
Y553963D1*
Y552963D1*
Y551963D1*
Y550963D1*
Y549963D1*
Y548963D1*
Y547963D1*
Y546963D1*
Y545963D1*
Y544963D1*
Y543963D1*
Y542963D1*
Y541963D1*
Y540963D1*
Y539963D1*
Y538963D1*
Y537963D1*
Y536963D1*
Y535963D1*
Y534963D1*
Y533963D1*
Y532963D1*
Y531963D1*
Y530963D1*
Y529963D1*
Y528963D1*
Y527963D1*
Y526963D1*
Y525963D1*
Y524963D1*
Y523963D1*
Y522963D1*
Y521963D1*
Y520963D1*
Y519963D1*
Y518963D1*
Y517963D1*
Y516963D1*
Y515963D1*
Y514963D1*
Y513963D1*
Y512963D1*
Y511963D1*
Y510963D1*
Y509963D1*
Y508963D1*
Y507963D1*
Y506963D1*
Y505963D1*
Y504963D1*
Y503963D1*
Y502963D1*
Y501963D1*
Y500963D1*
Y499963D1*
Y498963D1*
X1530121Y497963D1*
X1530156Y496963D1*
X1530283Y495963D1*
X1530523Y494963D1*
X1530779Y493963D1*
X1530954Y492963D1*
X1531050Y491963D1*
X1531128Y490963D1*
X1531273Y489963D1*
X1531523Y488963D1*
X1531817Y487963D1*
X1532124Y486963D1*
X1532495Y485963D1*
X1532961Y484963D1*
X1533559Y483963D1*
X1534324Y482963D1*
X1535245Y481963D1*
X1536359Y480963D1*
X1537741Y479963D1*
X1539372Y478963D1*
X1541117Y477963D1*
X1538117Y568963D2*
Y567963D1*
Y566963D1*
Y565963D1*
Y564963D1*
Y563963D1*
Y562963D1*
Y561963D1*
Y560963D1*
Y559963D1*
Y558963D1*
Y557963D1*
Y556963D1*
Y555963D1*
Y554963D1*
Y553963D1*
Y552963D1*
Y551963D1*
Y550963D1*
Y549963D1*
Y548963D1*
Y547963D1*
Y546963D1*
Y545963D1*
Y544963D1*
Y543963D1*
Y542963D1*
Y541963D1*
Y540963D1*
Y539963D1*
Y538963D1*
Y537963D1*
Y536963D1*
Y535963D1*
Y534963D1*
Y533963D1*
Y532963D1*
Y531963D1*
Y530963D1*
Y529963D1*
Y528963D1*
Y527963D1*
Y526963D1*
Y525963D1*
Y524963D1*
Y523963D1*
Y522963D1*
Y521963D1*
Y520963D1*
Y519963D1*
Y518963D1*
Y517963D1*
Y516963D1*
Y515963D1*
Y514963D1*
Y513963D1*
Y512963D1*
Y511963D1*
Y510963D1*
Y509963D1*
Y508963D1*
Y507963D1*
Y506963D1*
Y505963D1*
Y504963D1*
Y503963D1*
Y502963D1*
Y501963D1*
Y500963D1*
Y499963D1*
Y498963D1*
Y497963D1*
X1538121Y496963D1*
X1538156Y495963D1*
X1538283Y494963D1*
X1538527Y493963D1*
X1538818Y492963D1*
X1539124Y491963D1*
X1539499Y490963D1*
X1540008Y489963D1*
X1540652Y488963D1*
X1542148Y487963D1*
X1544283Y486963D1*
X1547023Y485963D1*
X1549894Y484963D1*
X1552240Y483963D1*
X1554006Y482963D1*
X1554689Y481963D1*
X1554920Y480963D1*
X1555038Y479963D1*
X1555089Y478963D1*
X1555117Y477963D1*
X1291117Y562963D2*
Y561963D1*
Y560963D1*
Y559963D1*
Y558963D1*
Y557963D1*
Y556963D1*
Y555963D1*
Y554963D1*
Y553963D1*
Y552963D1*
Y551963D1*
Y550963D1*
Y549963D1*
Y548963D1*
Y547963D1*
Y546963D1*
Y545963D1*
Y544963D1*
Y543963D1*
Y542963D1*
Y541963D1*
Y540963D1*
Y539963D1*
Y538963D1*
Y537963D1*
Y536963D1*
Y535963D1*
Y534963D1*
Y533963D1*
Y532963D1*
Y531963D1*
Y530963D1*
Y529963D1*
Y528963D1*
Y527963D1*
Y526963D1*
Y525963D1*
Y524963D1*
Y523963D1*
Y522963D1*
Y521963D1*
Y520963D1*
Y519963D1*
Y518963D1*
Y517963D1*
Y516963D1*
Y515963D1*
Y514963D1*
Y513963D1*
Y512963D1*
Y511963D1*
Y510963D1*
Y509963D1*
Y508963D1*
Y507963D1*
Y506963D1*
Y505963D1*
Y504963D1*
Y503963D1*
Y502963D1*
Y501963D1*
Y500963D1*
Y499963D1*
Y498963D1*
X1291113Y497963D1*
X1291078Y496963D1*
X1290950Y495963D1*
X1290711Y494963D1*
X1290450Y493963D1*
X1290241Y492963D1*
X1290017Y491963D1*
X1289700Y490963D1*
X1289291Y489963D1*
X1288792Y488963D1*
X1288072Y487963D1*
X1287084Y486963D1*
X1283971Y485963D1*
X1279113Y484963D1*
X1273117Y483963D1*
X1298117Y562963D2*
Y561963D1*
Y560963D1*
Y559963D1*
Y558963D1*
Y557963D1*
Y556963D1*
Y555963D1*
Y554963D1*
Y553963D1*
Y552963D1*
Y551963D1*
Y550963D1*
Y549963D1*
Y548963D1*
Y547963D1*
Y546963D1*
Y545963D1*
Y544963D1*
Y543963D1*
Y542963D1*
Y541963D1*
Y540963D1*
Y539963D1*
Y538963D1*
Y537963D1*
Y536963D1*
Y535963D1*
Y534963D1*
Y533963D1*
Y532963D1*
Y531963D1*
Y530963D1*
Y529963D1*
Y528963D1*
Y527963D1*
Y526963D1*
Y525963D1*
Y524963D1*
Y523963D1*
Y522963D1*
Y521963D1*
Y520963D1*
Y519963D1*
Y518963D1*
Y517963D1*
Y516963D1*
Y515963D1*
Y514963D1*
Y513963D1*
Y512963D1*
Y511963D1*
Y510963D1*
Y509963D1*
Y508963D1*
Y507963D1*
Y506963D1*
Y505963D1*
Y504963D1*
Y503963D1*
Y502963D1*
Y501963D1*
Y500963D1*
Y499963D1*
Y498963D1*
Y497963D1*
Y496963D1*
Y495963D1*
Y494963D1*
Y493963D1*
Y492963D1*
Y491963D1*
X1298113Y490963D1*
X1298078Y489963D1*
X1297950Y488963D1*
X1297707Y487963D1*
X1297415Y486963D1*
X1297110Y485963D1*
X1296738Y484963D1*
X1296273Y483963D1*
X1295671Y482963D1*
X1294870Y481963D1*
X1293810Y480963D1*
X1292342Y479963D1*
X1290238Y478963D1*
X1287392Y477963D1*
X1284117Y476963D1*
X1462117Y562963D2*
Y561963D1*
Y560963D1*
Y559963D1*
Y558963D1*
Y557963D1*
Y556963D1*
Y555963D1*
Y554963D1*
Y553963D1*
Y552963D1*
Y551963D1*
Y550963D1*
Y549963D1*
Y548963D1*
Y547963D1*
Y546963D1*
Y545963D1*
Y544963D1*
Y543963D1*
Y542963D1*
Y541963D1*
Y540963D1*
Y539963D1*
Y538963D1*
Y537963D1*
Y536963D1*
Y535963D1*
Y534963D1*
Y533963D1*
Y532963D1*
Y531963D1*
Y530963D1*
Y529963D1*
Y528963D1*
Y527963D1*
Y526963D1*
Y525963D1*
Y524963D1*
Y523963D1*
Y522963D1*
Y521963D1*
Y520963D1*
Y519963D1*
Y518963D1*
Y517963D1*
Y516963D1*
Y515963D1*
Y514963D1*
Y513963D1*
Y512963D1*
Y511963D1*
Y510963D1*
Y509963D1*
Y508963D1*
Y507963D1*
Y506963D1*
Y505963D1*
Y504963D1*
Y503963D1*
Y502963D1*
Y501963D1*
Y500963D1*
Y499963D1*
Y498963D1*
Y497963D1*
Y496963D1*
Y495963D1*
Y494963D1*
Y493963D1*
Y492963D1*
Y491963D1*
Y490963D1*
Y489963D1*
Y488963D1*
Y487963D1*
Y486963D1*
Y485963D1*
Y484963D1*
Y483963D1*
Y482963D1*
Y481963D1*
Y480963D1*
Y479963D1*
Y478963D1*
Y477963D1*
X1500117Y562963D2*
X1503460Y561963D1*
X1506154Y560963D1*
X1508184Y559963D1*
X1509711Y558963D1*
X1510917Y557963D1*
X1511886Y556963D1*
X1512650Y555963D1*
X1513276Y554963D1*
X1513832Y553963D1*
X1514354Y552963D1*
X1514859Y551963D1*
X1515326Y550963D1*
X1515700Y549963D1*
X1515960Y548963D1*
X1516201Y547963D1*
X1516491Y546963D1*
X1516767Y545963D1*
X1516949Y544963D1*
X1517045Y543963D1*
X1517088Y542963D1*
X1517106Y541963D1*
X1517113Y540963D1*
X1517115Y539963D1*
X1517116Y538963D1*
X1517117Y537963D1*
Y536963D1*
Y535963D1*
Y534963D1*
Y533963D1*
X1517113Y532963D1*
X1517078Y531963D1*
X1516950Y530963D1*
X1516711Y529963D1*
X1516450Y528963D1*
X1516241Y527963D1*
X1516021Y526963D1*
X1515735Y525963D1*
X1515426Y524963D1*
X1515113Y523963D1*
X1514743Y522963D1*
X1514312Y521963D1*
X1513842Y520963D1*
X1513319Y519963D1*
X1512690Y518963D1*
X1511877Y517963D1*
X1510825Y516963D1*
X1509469Y515963D1*
X1507828Y514963D1*
X1506007Y513963D1*
X1504117Y512963D1*
X1470117Y554963D2*
Y553963D1*
Y552963D1*
Y551963D1*
Y550963D1*
Y549963D1*
Y548963D1*
Y547963D1*
Y546963D1*
Y545963D1*
Y544963D1*
Y543963D1*
Y542963D1*
Y541963D1*
Y540963D1*
Y539963D1*
Y538963D1*
Y537963D1*
Y536963D1*
Y535963D1*
Y534963D1*
Y533963D1*
Y532963D1*
Y531963D1*
Y530963D1*
Y529963D1*
Y528963D1*
Y527963D1*
Y526963D1*
Y525963D1*
Y524963D1*
Y523963D1*
Y522963D1*
Y521963D1*
Y520963D1*
X1499117Y554963D2*
X1501075Y553963D1*
X1502904Y552963D1*
X1504462Y551963D1*
X1505669Y550963D1*
X1506553Y549963D1*
X1507201Y548963D1*
X1507652Y547963D1*
X1507943Y546963D1*
X1508195Y545963D1*
X1508488Y544963D1*
X1508767Y543963D1*
X1508949Y542963D1*
X1509045Y541963D1*
X1509088Y540963D1*
X1509106Y539963D1*
X1509113Y538963D1*
X1509115Y537963D1*
X1509116Y536963D1*
X1509117Y535963D1*
Y534963D1*
Y533963D1*
X1509113Y532963D1*
X1509078Y531963D1*
X1508950Y530963D1*
X1508707Y529963D1*
X1508415Y528963D1*
X1508110Y527963D1*
X1507738Y526963D1*
X1507269Y525963D1*
X1506632Y524963D1*
X1505704Y523963D1*
X1504420Y522963D1*
X1502835Y521963D1*
X1501117Y520963D1*
X1328117Y539963D2*
X1322713Y538963D1*
X1318470Y537963D1*
X1315246Y536963D1*
X1313950Y535963D1*
X1313502Y534963D1*
X1313273Y533963D1*
X1313172Y532963D1*
X1313117Y531963D1*
X1349117Y539963D2*
X1351075Y538963D1*
X1352904Y537963D1*
X1354462Y536963D1*
X1355672Y535963D1*
X1356592Y534963D1*
X1357367Y533963D1*
X1358058Y532963D1*
X1358605Y531963D1*
X1359032Y530963D1*
X1359418Y529963D1*
X1359739Y528963D1*
X1359939Y527963D1*
X1360041Y526963D1*
X1360087Y525963D1*
X1360106Y524963D1*
X1360113Y523963D1*
X1360115Y522963D1*
X1360116Y521963D1*
X1360117Y520963D1*
Y519963D1*
Y518963D1*
Y517963D1*
Y516963D1*
Y515963D1*
Y514963D1*
Y513963D1*
Y512963D1*
Y511963D1*
Y510963D1*
Y509963D1*
Y508963D1*
Y507963D1*
Y506963D1*
Y505963D1*
Y504963D1*
Y503963D1*
Y502963D1*
Y501963D1*
Y500963D1*
Y499963D1*
Y498963D1*
Y497963D1*
Y496963D1*
Y495963D1*
Y494963D1*
Y493963D1*
Y492963D1*
Y491963D1*
Y490963D1*
Y489963D1*
Y488963D1*
Y487963D1*
Y486963D1*
Y485963D1*
Y484963D1*
Y483963D1*
Y482963D1*
Y481963D1*
Y480963D1*
Y479963D1*
Y478963D1*
Y477963D1*
X1411117Y538963D2*
X1409962Y537963D1*
X1408714Y536963D1*
X1407455Y535963D1*
X1406280Y534963D1*
X1405187Y533963D1*
X1404145Y532963D1*
X1403127Y531963D1*
X1402121Y530963D1*
X1401118Y529963D1*
X1400117Y528963D1*
X1399117Y527963D1*
X1398117Y526963D1*
X1397113Y525963D1*
X1396078Y524963D1*
X1394950Y523963D1*
X1393711Y522963D1*
X1392454Y521963D1*
X1391260Y520963D1*
X1389977Y519963D1*
X1388162Y518963D1*
X1385435Y517963D1*
X1382117Y516963D1*
X1422117Y538963D2*
X1421117Y537963D1*
X1420117Y536963D1*
X1419117Y535963D1*
X1418117Y534963D1*
X1417117Y533963D1*
X1416113Y532963D1*
X1415078Y531963D1*
X1413950Y530963D1*
X1412711Y529963D1*
X1411454Y528963D1*
X1410280Y527963D1*
X1409187Y526963D1*
X1408145Y525963D1*
X1407127Y524963D1*
X1406121Y523963D1*
X1405118Y522963D1*
X1404117Y521963D1*
X1403117Y520963D1*
X1402117Y519963D1*
X1401117Y518963D1*
X1400117Y517963D1*
X1399117Y516963D1*
X1398117Y515963D1*
X1397117Y514963D1*
X1396117Y513963D1*
X1395117Y512963D1*
X1395962Y511963D1*
X1396714Y510963D1*
X1397455Y509963D1*
X1398276Y508963D1*
X1399148Y507963D1*
X1399978Y506963D1*
X1400721Y505963D1*
X1401454Y504963D1*
X1402242Y503963D1*
X1403021Y502963D1*
X1403739Y501963D1*
X1404461Y500963D1*
X1405245Y499963D1*
X1406022Y498963D1*
X1406739Y497963D1*
X1407465Y496963D1*
X1408280Y495963D1*
X1409150Y494963D1*
X1409979Y493963D1*
X1410721Y492963D1*
X1411454Y491963D1*
X1412242Y490963D1*
X1413021Y489963D1*
X1413739Y488963D1*
X1414465Y487963D1*
X1415280Y486963D1*
X1416149Y485963D1*
X1416979Y484963D1*
X1417721Y483963D1*
X1418454Y482963D1*
X1419242Y481963D1*
X1420020Y480963D1*
X1420730Y479963D1*
X1421414Y478963D1*
X1422117Y477963D1*
X1564117Y538963D2*
Y537963D1*
Y536963D1*
Y535963D1*
Y534963D1*
Y533963D1*
Y532963D1*
Y531963D1*
Y530963D1*
Y529963D1*
Y528963D1*
Y527963D1*
Y526963D1*
Y525963D1*
Y524963D1*
Y523963D1*
Y522963D1*
Y521963D1*
Y520963D1*
Y519963D1*
Y518963D1*
Y517963D1*
Y516963D1*
Y515963D1*
Y514963D1*
Y513963D1*
Y512963D1*
Y511963D1*
Y510963D1*
Y509963D1*
Y508963D1*
Y507963D1*
Y506963D1*
Y505963D1*
Y504963D1*
Y503963D1*
Y502963D1*
Y501963D1*
Y500963D1*
Y499963D1*
Y498963D1*
Y497963D1*
Y496963D1*
Y495963D1*
X1564121Y494963D1*
X1564156Y493963D1*
X1564283Y492963D1*
X1564527Y491963D1*
X1564818Y490963D1*
X1565124Y489963D1*
X1565491Y488963D1*
X1565922Y487963D1*
X1566392Y486963D1*
X1566914Y485963D1*
X1567540Y484963D1*
X1568313Y483963D1*
X1569200Y482963D1*
X1570153Y481963D1*
X1571176Y480963D1*
X1572372Y479963D1*
X1573926Y478963D1*
X1575907Y477963D1*
X1578117Y476963D1*
X1572117Y538963D2*
Y537963D1*
Y536963D1*
Y535963D1*
Y534963D1*
Y533963D1*
Y532963D1*
Y531963D1*
Y530963D1*
Y529963D1*
Y528963D1*
Y527963D1*
Y526963D1*
Y525963D1*
Y524963D1*
Y523963D1*
Y522963D1*
Y521963D1*
Y520963D1*
Y519963D1*
Y518963D1*
Y517963D1*
Y516963D1*
Y515963D1*
Y514963D1*
Y513963D1*
Y512963D1*
Y511963D1*
Y510963D1*
Y509963D1*
Y508963D1*
Y507963D1*
Y506963D1*
Y505963D1*
Y504963D1*
Y503963D1*
Y502963D1*
Y501963D1*
Y500963D1*
Y499963D1*
Y498963D1*
Y497963D1*
Y496963D1*
Y495963D1*
X1572121Y494963D1*
X1572156Y493963D1*
X1572287Y492963D1*
X1572566Y491963D1*
X1572989Y490963D1*
X1573573Y489963D1*
X1574367Y488963D1*
X1575413Y487963D1*
X1576762Y486963D1*
X1578380Y485963D1*
X1580117Y484963D1*
X1606117Y538963D2*
Y537963D1*
Y536963D1*
Y535963D1*
Y534963D1*
Y533963D1*
Y532963D1*
Y531963D1*
Y530963D1*
Y529963D1*
Y528963D1*
Y527963D1*
Y526963D1*
Y525963D1*
Y524963D1*
Y523963D1*
Y522963D1*
Y521963D1*
Y520963D1*
Y519963D1*
Y518963D1*
Y517963D1*
Y516963D1*
Y515963D1*
Y514963D1*
Y513963D1*
Y512963D1*
Y511963D1*
Y510963D1*
Y509963D1*
Y508963D1*
Y507963D1*
Y506963D1*
Y505963D1*
Y504963D1*
Y503963D1*
Y502963D1*
Y501963D1*
Y500963D1*
Y499963D1*
Y498963D1*
Y497963D1*
Y496963D1*
Y495963D1*
X1606113Y494963D1*
X1606070Y493963D1*
X1605964Y492963D1*
X1605443Y491963D1*
X1604101Y490963D1*
X1602283Y489963D1*
X1600046Y488963D1*
X1597396Y487963D1*
X1594277Y486963D1*
X1590779Y485963D1*
X1587117Y484963D1*
X1614117Y538963D2*
Y537963D1*
Y536963D1*
Y535963D1*
Y534963D1*
Y533963D1*
Y532963D1*
Y531963D1*
Y530963D1*
Y529963D1*
Y528963D1*
Y527963D1*
Y526963D1*
Y525963D1*
Y524963D1*
Y523963D1*
Y522963D1*
Y521963D1*
Y520963D1*
Y519963D1*
Y518963D1*
Y517963D1*
Y516963D1*
Y515963D1*
Y514963D1*
Y513963D1*
Y512963D1*
Y511963D1*
Y510963D1*
Y509963D1*
Y508963D1*
Y507963D1*
Y506963D1*
Y505963D1*
Y504963D1*
Y503963D1*
Y502963D1*
Y501963D1*
Y500963D1*
Y499963D1*
Y498963D1*
Y497963D1*
Y496963D1*
Y495963D1*
Y494963D1*
Y493963D1*
Y492963D1*
Y491963D1*
Y490963D1*
Y489963D1*
Y488963D1*
Y487963D1*
Y486963D1*
Y485963D1*
Y484963D1*
Y483963D1*
Y482963D1*
Y481963D1*
Y480963D1*
Y479963D1*
Y478963D1*
Y477963D1*
X1641117Y538963D2*
X1639159Y537963D1*
X1637326Y536963D1*
X1635736Y535963D1*
X1634434Y534963D1*
X1633398Y533963D1*
X1632571Y532963D1*
X1631838Y531963D1*
X1631165Y530963D1*
X1630625Y529963D1*
X1630201Y528963D1*
X1629811Y527963D1*
X1629456Y526963D1*
X1629128Y525963D1*
X1628787Y524963D1*
X1628484Y523963D1*
X1628291Y522963D1*
X1628191Y521963D1*
X1628146Y520963D1*
X1628128Y519963D1*
X1628121Y518963D1*
X1628118Y517963D1*
X1628117Y516963D1*
Y515963D1*
X1628121Y514963D1*
X1628156Y513963D1*
X1628283Y512963D1*
X1628523Y511963D1*
X1628783Y510963D1*
X1628993Y509963D1*
X1629217Y508963D1*
X1629534Y507963D1*
X1629939Y506963D1*
X1630399Y505963D1*
X1630917Y504963D1*
X1631541Y503963D1*
X1632313Y502963D1*
X1633193Y501963D1*
X1634117Y500963D1*
X1632813Y499963D1*
X1631647Y498963D1*
X1630733Y497963D1*
X1630023Y496963D1*
X1629431Y495963D1*
X1628929Y494963D1*
X1628545Y493963D1*
X1628315Y492963D1*
X1628200Y491963D1*
X1628149Y490963D1*
X1628133Y489963D1*
X1628160Y488963D1*
X1628289Y487963D1*
X1628562Y486963D1*
X1628954Y485963D1*
X1629438Y484963D1*
X1630038Y483963D1*
X1630699Y482963D1*
X1631315Y481963D1*
X1631432Y480963D1*
X1631127Y479963D1*
X1630651Y478963D1*
X1630059Y477963D1*
X1629472Y476963D1*
X1628952Y475963D1*
X1628556Y474963D1*
X1628320Y473963D1*
X1628202Y472963D1*
X1628150Y471963D1*
X1628129Y470963D1*
X1628121Y469963D1*
X1628118Y468963D1*
X1628117Y467963D1*
Y466963D1*
Y465963D1*
Y464963D1*
Y463963D1*
Y462963D1*
Y461963D1*
Y460963D1*
X1628121Y459963D1*
X1628156Y458963D1*
X1628287Y457963D1*
X1628562Y456963D1*
X1628950Y455963D1*
X1629403Y454963D1*
X1629918Y453963D1*
X1630545Y452963D1*
X1631353Y451963D1*
X1632374Y450963D1*
X1633649Y449963D1*
X1635294Y448963D1*
X1637575Y447963D1*
X1640633Y446963D1*
X1644117Y445963D1*
X1684117Y538963D2*
Y537963D1*
X1684113Y536963D1*
X1684058Y535963D1*
X1683918Y534963D1*
X1683080Y533963D1*
X1681001Y532963D1*
X1678728Y531963D1*
X1676775Y530963D1*
X1675117Y529963D1*
X1675733Y528963D1*
X1676272Y527963D1*
X1676711Y526963D1*
X1677078Y525963D1*
X1677437Y524963D1*
X1677746Y523963D1*
X1677941Y522963D1*
X1678042Y521963D1*
X1678087Y520963D1*
X1678106Y519963D1*
X1678113Y518963D1*
X1678115Y517963D1*
X1678116Y516963D1*
X1678113Y515963D1*
X1678078Y514963D1*
X1677950Y513963D1*
X1677711Y512963D1*
X1677450Y511963D1*
X1677241Y510963D1*
X1677021Y509963D1*
X1676735Y508963D1*
X1676426Y507963D1*
X1676113Y506963D1*
X1675743Y505963D1*
X1675312Y504963D1*
X1674842Y503963D1*
X1674319Y502963D1*
X1673694Y501963D1*
X1672916Y500963D1*
X1671991Y499963D1*
X1670863Y498963D1*
X1669363Y497963D1*
X1667246Y496963D1*
X1664394Y495963D1*
X1661117Y494963D1*
X1706117Y538963D2*
X1704159Y537963D1*
X1702326Y536963D1*
X1700736Y535963D1*
X1699434Y534963D1*
X1698398Y533963D1*
X1697571Y532963D1*
X1696838Y531963D1*
X1696165Y530963D1*
X1695625Y529963D1*
X1695201Y528963D1*
X1694811Y527963D1*
X1694456Y526963D1*
X1694128Y525963D1*
X1693787Y524963D1*
X1693484Y523963D1*
X1693291Y522963D1*
X1693191Y521963D1*
X1693146Y520963D1*
X1693128Y519963D1*
X1693121Y518963D1*
X1693118Y517963D1*
X1693117Y516963D1*
Y515963D1*
X1693121Y514963D1*
X1693156Y513963D1*
X1693283Y512963D1*
X1693523Y511963D1*
X1693783Y510963D1*
X1693993Y509963D1*
X1694217Y508963D1*
X1694534Y507963D1*
X1694939Y506963D1*
X1695399Y505963D1*
X1695917Y504963D1*
X1696541Y503963D1*
X1697313Y502963D1*
X1698193Y501963D1*
X1699117Y500963D1*
X1697813Y499963D1*
X1696647Y498963D1*
X1695733Y497963D1*
X1695023Y496963D1*
X1694431Y495963D1*
X1693929Y494963D1*
X1693545Y493963D1*
X1693315Y492963D1*
X1693200Y491963D1*
X1693149Y490963D1*
X1693133Y489963D1*
X1693160Y488963D1*
X1693289Y487963D1*
X1693562Y486963D1*
X1693954Y485963D1*
X1694438Y484963D1*
X1695038Y483963D1*
X1695699Y482963D1*
X1696315Y481963D1*
X1696432Y480963D1*
X1696127Y479963D1*
X1695651Y478963D1*
X1695059Y477963D1*
X1694472Y476963D1*
X1693952Y475963D1*
X1693556Y474963D1*
X1693320Y473963D1*
X1693202Y472963D1*
X1693150Y471963D1*
X1693129Y470963D1*
X1693121Y469963D1*
X1693118Y468963D1*
X1693117Y467963D1*
Y466963D1*
Y465963D1*
Y464963D1*
Y463963D1*
Y462963D1*
Y461963D1*
Y460963D1*
X1693121Y459963D1*
X1693156Y458963D1*
X1693287Y457963D1*
X1693562Y456963D1*
X1693950Y455963D1*
X1694403Y454963D1*
X1694918Y453963D1*
X1695545Y452963D1*
X1696353Y451963D1*
X1697374Y450963D1*
X1698649Y449963D1*
X1700294Y448963D1*
X1702575Y447963D1*
X1705633Y446963D1*
X1709117Y445963D1*
X1749117Y538963D2*
Y537963D1*
X1749113Y536963D1*
X1749058Y535963D1*
X1748918Y534963D1*
X1748080Y533963D1*
X1746001Y532963D1*
X1743728Y531963D1*
X1741775Y530963D1*
X1740117Y529963D1*
X1740733Y528963D1*
X1741272Y527963D1*
X1741711Y526963D1*
X1742078Y525963D1*
X1742437Y524963D1*
X1742746Y523963D1*
X1742941Y522963D1*
X1743042Y521963D1*
X1743087Y520963D1*
X1743106Y519963D1*
X1743113Y518963D1*
X1743115Y517963D1*
X1743116Y516963D1*
X1743113Y515963D1*
X1743078Y514963D1*
X1742950Y513963D1*
X1742711Y512963D1*
X1742450Y511963D1*
X1742241Y510963D1*
X1742021Y509963D1*
X1741735Y508963D1*
X1741426Y507963D1*
X1741113Y506963D1*
X1740743Y505963D1*
X1740312Y504963D1*
X1739842Y503963D1*
X1739319Y502963D1*
X1738694Y501963D1*
X1737916Y500963D1*
X1736991Y499963D1*
X1735863Y498963D1*
X1734363Y497963D1*
X1732246Y496963D1*
X1729394Y495963D1*
X1726117Y494963D1*
X1330117Y532963D2*
X1329117Y531963D1*
X1343117Y532963D2*
X1345720Y531963D1*
X1347854Y530963D1*
X1349393Y529963D1*
X1350439Y528963D1*
X1351157Y527963D1*
X1351632Y526963D1*
X1351902Y525963D1*
X1352065Y524963D1*
X1352248Y523963D1*
X1352510Y522963D1*
X1352775Y521963D1*
X1352948Y520963D1*
X1353007Y519963D1*
X1352922Y518963D1*
X1352700Y517963D1*
X1352451Y516963D1*
X1352278Y515963D1*
X1352181Y514963D1*
X1352117Y513963D1*
X1649117Y531963D2*
X1645706Y530963D1*
X1642952Y529963D1*
X1640951Y528963D1*
X1639503Y527963D1*
X1638455Y526963D1*
X1637742Y525963D1*
X1637245Y524963D1*
X1636831Y523963D1*
X1636501Y522963D1*
X1636297Y521963D1*
X1636193Y520963D1*
X1636147Y519963D1*
X1636128Y518963D1*
X1636121Y517963D1*
X1636118Y516963D1*
X1636121Y515963D1*
X1636156Y514963D1*
X1636283Y513963D1*
X1636527Y512963D1*
X1636818Y511963D1*
X1637124Y510963D1*
X1637495Y509963D1*
X1637961Y508963D1*
X1638566Y507963D1*
X1639406Y506963D1*
X1640621Y505963D1*
X1642373Y504963D1*
X1644631Y503963D1*
X1647117Y502963D1*
X1659117Y531963D2*
X1661840Y530963D1*
X1664130Y529963D1*
X1665815Y528963D1*
X1667019Y527963D1*
X1667916Y526963D1*
X1668550Y525963D1*
X1669012Y524963D1*
X1669411Y523963D1*
X1669736Y522963D1*
X1669938Y521963D1*
X1670041Y520963D1*
X1670087Y519963D1*
X1670106Y518963D1*
X1670113Y517963D1*
X1670115Y516963D1*
X1670116Y515963D1*
X1670113Y514963D1*
X1670078Y513963D1*
X1669946Y512963D1*
X1669672Y511963D1*
X1669284Y510963D1*
X1668831Y509963D1*
X1668315Y508963D1*
X1667685Y507963D1*
X1666834Y506963D1*
X1665615Y505963D1*
X1663861Y504963D1*
X1661603Y503963D1*
X1659117Y502963D1*
X1714117Y531963D2*
X1710706Y530963D1*
X1707952Y529963D1*
X1705951Y528963D1*
X1704503Y527963D1*
X1703455Y526963D1*
X1702742Y525963D1*
X1702245Y524963D1*
X1701831Y523963D1*
X1701501Y522963D1*
X1701297Y521963D1*
X1701193Y520963D1*
X1701147Y519963D1*
X1701128Y518963D1*
X1701121Y517963D1*
X1701118Y516963D1*
X1701121Y515963D1*
X1701156Y514963D1*
X1701283Y513963D1*
X1701527Y512963D1*
X1701818Y511963D1*
X1702124Y510963D1*
X1702495Y509963D1*
X1702961Y508963D1*
X1703566Y507963D1*
X1704406Y506963D1*
X1705621Y505963D1*
X1707373Y504963D1*
X1709631Y503963D1*
X1712117Y502963D1*
X1724117Y531963D2*
X1726840Y530963D1*
X1729130Y529963D1*
X1730815Y528963D1*
X1732019Y527963D1*
X1732916Y526963D1*
X1733550Y525963D1*
X1734012Y524963D1*
X1734411Y523963D1*
X1734736Y522963D1*
X1734938Y521963D1*
X1735041Y520963D1*
X1735087Y519963D1*
X1735106Y518963D1*
X1735113Y517963D1*
X1735115Y516963D1*
X1735116Y515963D1*
X1735113Y514963D1*
X1735078Y513963D1*
X1734946Y512963D1*
X1734672Y511963D1*
X1734284Y510963D1*
X1733831Y509963D1*
X1733315Y508963D1*
X1732685Y507963D1*
X1731834Y506963D1*
X1730615Y505963D1*
X1728861Y504963D1*
X1726603Y503963D1*
X1724117Y502963D1*
X1320117Y513963D2*
X1318505Y512963D1*
X1317005Y511963D1*
X1315728Y510963D1*
X1314732Y509963D1*
X1313908Y508963D1*
X1313193Y507963D1*
X1312635Y506963D1*
X1312204Y505963D1*
X1311816Y504963D1*
X1311495Y503963D1*
X1311295Y502963D1*
X1311193Y501963D1*
X1311147Y500963D1*
X1311128Y499963D1*
X1311121Y498963D1*
X1311118Y497963D1*
X1311117Y496963D1*
Y495963D1*
Y494963D1*
Y493963D1*
Y492963D1*
Y491963D1*
X1311121Y490963D1*
X1311156Y489963D1*
X1311283Y488963D1*
X1311527Y487963D1*
X1311822Y486963D1*
X1312159Y485963D1*
X1312623Y484963D1*
X1313200Y483963D1*
X1313819Y482963D1*
X1314538Y481963D1*
X1315508Y480963D1*
X1316850Y479963D1*
X1318620Y478963D1*
X1320771Y477963D1*
X1323117Y476963D1*
X1470117Y514963D2*
Y513963D1*
Y512963D1*
Y511963D1*
Y510963D1*
Y509963D1*
Y508963D1*
Y507963D1*
Y506963D1*
Y505963D1*
Y504963D1*
Y503963D1*
Y502963D1*
Y501963D1*
Y500963D1*
Y499963D1*
Y498963D1*
Y497963D1*
Y496963D1*
Y495963D1*
Y494963D1*
Y493963D1*
Y492963D1*
Y491963D1*
Y490963D1*
Y489963D1*
Y488963D1*
Y487963D1*
Y486963D1*
Y485963D1*
Y484963D1*
Y483963D1*
Y482963D1*
Y481963D1*
Y480963D1*
Y479963D1*
Y478963D1*
Y477963D1*
X1465117Y514963D2*
X1476117Y513963D1*
X1487117Y512963D1*
X1351117Y508963D2*
X1350117Y507963D1*
X1352117Y508963D2*
Y507963D1*
Y506963D1*
Y505963D1*
Y504963D1*
Y503963D1*
Y502963D1*
Y501963D1*
Y500963D1*
Y499963D1*
Y498963D1*
Y497963D1*
Y496963D1*
Y495963D1*
X1352113Y494963D1*
X1352066Y493963D1*
X1351949Y492963D1*
X1351322Y491963D1*
X1349626Y490963D1*
X1347248Y489963D1*
X1344153Y488963D1*
X1340148Y487963D1*
X1334584Y486963D1*
X1326966Y485963D1*
X1318117Y484963D1*
X1382117Y508963D2*
Y507963D1*
Y506963D1*
Y505963D1*
Y504963D1*
Y503963D1*
Y502963D1*
Y501963D1*
Y500963D1*
Y499963D1*
Y498963D1*
Y497963D1*
Y496963D1*
Y495963D1*
Y494963D1*
Y493963D1*
Y492963D1*
Y491963D1*
Y490963D1*
Y489963D1*
Y488963D1*
Y487963D1*
Y486963D1*
Y485963D1*
Y484963D1*
Y483963D1*
Y482963D1*
Y481963D1*
Y480963D1*
Y479963D1*
Y478963D1*
Y477963D1*
X1387117Y508963D2*
X1388113Y507963D1*
X1389078Y506963D1*
X1389950Y505963D1*
X1390711Y504963D1*
X1391454Y503963D1*
X1392276Y502963D1*
X1393148Y501963D1*
X1393978Y500963D1*
X1394721Y499963D1*
X1395458Y498963D1*
X1396277Y497963D1*
X1397149Y496963D1*
X1397978Y495963D1*
X1398721Y494963D1*
X1399458Y493963D1*
X1400277Y492963D1*
X1401149Y491963D1*
X1401978Y490963D1*
X1402721Y489963D1*
X1403458Y488963D1*
X1404277Y487963D1*
X1405149Y486963D1*
X1405978Y485963D1*
X1406721Y484963D1*
X1407458Y483963D1*
X1408277Y482963D1*
X1409149Y481963D1*
X1409978Y480963D1*
X1410712Y479963D1*
X1411408Y478963D1*
X1412117Y477963D1*
X1337117Y507963D2*
X1336117Y506963D1*
X1326117D2*
X1324313Y505963D1*
X1322732Y504963D1*
X1321437Y503963D1*
X1320441Y502963D1*
X1319665Y501963D1*
X1319383Y500963D1*
X1319230Y499963D1*
X1319161Y498963D1*
X1319133Y497963D1*
X1319123Y496963D1*
X1319119Y495963D1*
X1319117Y494963D1*
Y493963D1*
Y492963D1*
X1319121Y491963D1*
X1319160Y490963D1*
X1319326Y489963D1*
X1319638Y488963D1*
X1320467Y487963D1*
X1322924Y486963D1*
X1326985Y485963D1*
X1332117Y484963D1*
X1638117Y494963D2*
X1637313Y493963D1*
X1636728Y492963D1*
X1636401Y491963D1*
X1636225Y490963D1*
X1636417Y489963D1*
X1637316Y488963D1*
X1638614Y487963D1*
X1640117Y486963D1*
X1703117Y494963D2*
X1702313Y493963D1*
X1701728Y492963D1*
X1701401Y491963D1*
X1701225Y490963D1*
X1701417Y489963D1*
X1702316Y488963D1*
X1703614Y487963D1*
X1705117Y486963D1*
X1670117D2*
X1672191Y485963D1*
X1673978Y484963D1*
X1675400Y483963D1*
X1676461Y482963D1*
X1677310Y481963D1*
X1678036Y480963D1*
X1678597Y479963D1*
X1679028Y478963D1*
X1679417Y477963D1*
X1679738Y476963D1*
X1679939Y475963D1*
X1680041Y474963D1*
X1680087Y473963D1*
X1680106Y472963D1*
X1680113Y471963D1*
X1680115Y470963D1*
X1680116Y469963D1*
X1680117Y468963D1*
Y467963D1*
Y466963D1*
Y465963D1*
Y464963D1*
Y463963D1*
Y462963D1*
Y461963D1*
Y460963D1*
X1680113Y459963D1*
X1680078Y458963D1*
X1679946Y457963D1*
X1679672Y456963D1*
X1679284Y455963D1*
X1678835Y454963D1*
X1678354Y453963D1*
X1677855Y452963D1*
X1677287Y451963D1*
X1676522Y450963D1*
X1675425Y449963D1*
X1673911Y448963D1*
X1671827Y447963D1*
X1669129Y446963D1*
X1666117Y445963D1*
X1735117Y486963D2*
X1737191Y485963D1*
X1738978Y484963D1*
X1740400Y483963D1*
X1741461Y482963D1*
X1742310Y481963D1*
X1743036Y480963D1*
X1743597Y479963D1*
X1744028Y478963D1*
X1744417Y477963D1*
X1744738Y476963D1*
X1744939Y475963D1*
X1745041Y474963D1*
X1745087Y473963D1*
X1745106Y472963D1*
X1745113Y471963D1*
X1745115Y470963D1*
X1745116Y469963D1*
X1745117Y468963D1*
Y467963D1*
Y466963D1*
Y465963D1*
Y464963D1*
Y463963D1*
Y462963D1*
Y461963D1*
Y460963D1*
X1745113Y459963D1*
X1745078Y458963D1*
X1744946Y457963D1*
X1744672Y456963D1*
X1744284Y455963D1*
X1743835Y454963D1*
X1743354Y453963D1*
X1742855Y452963D1*
X1742287Y451963D1*
X1741522Y450963D1*
X1740425Y449963D1*
X1738911Y448963D1*
X1736827Y447963D1*
X1734129Y446963D1*
X1731117Y445963D1*
X1269117Y484963D2*
X1268966Y483963D1*
X1268757Y482963D1*
X1268566Y481963D1*
X1268786Y480963D1*
X1269560Y479963D1*
X1271400Y478963D1*
X1274019Y477963D1*
X1277117Y476963D1*
X1274117Y484963D2*
X1275117Y483963D1*
X1353117Y484963D2*
X1350309Y483963D1*
X1347686Y482963D1*
X1345184Y481963D1*
X1342608Y480963D1*
X1339799Y479963D1*
X1336625Y478963D1*
X1333004Y477963D1*
X1329117Y476963D1*
X1353117Y484963D2*
X1353155Y483963D1*
X1353283Y482963D1*
X1353527Y481963D1*
X1353821Y480963D1*
X1354151Y479963D1*
X1354591Y478963D1*
X1355117Y477963D1*
X1606117Y484963D2*
X1604271Y483963D1*
X1602519Y482963D1*
X1600774Y481963D1*
X1598910Y480963D1*
X1596837Y479963D1*
X1594477Y478963D1*
X1591856Y477963D1*
X1589117Y476963D1*
X1605117Y484963D2*
X1605958Y483963D1*
X1606671Y482963D1*
X1607250Y481963D1*
X1607707Y480963D1*
X1608107Y479963D1*
X1608575Y478963D1*
X1609117Y477963D1*
X1635117Y479963D2*
Y478963D1*
Y477963D1*
Y476963D1*
Y475963D1*
Y474963D1*
Y473963D1*
Y472963D1*
Y471963D1*
Y470963D1*
Y469963D1*
Y468963D1*
Y467963D1*
Y466963D1*
Y465963D1*
X1635121Y464963D1*
X1635156Y463963D1*
X1635283Y462963D1*
X1635527Y461963D1*
X1635822Y460963D1*
X1636163Y459963D1*
X1636670Y458963D1*
X1637453Y457963D1*
X1638639Y456963D1*
X1640381Y455963D1*
X1642633Y454963D1*
X1645117Y453963D1*
X1638117Y479963D2*
X1639117Y478963D1*
X1700117Y479963D2*
Y478963D1*
Y477963D1*
Y476963D1*
Y475963D1*
Y474963D1*
Y473963D1*
Y472963D1*
Y471963D1*
Y470963D1*
Y469963D1*
Y468963D1*
Y467963D1*
Y466963D1*
Y465963D1*
X1700121Y464963D1*
X1700156Y463963D1*
X1700283Y462963D1*
X1700527Y461963D1*
X1700822Y460963D1*
X1701163Y459963D1*
X1701670Y458963D1*
X1702453Y457963D1*
X1703639Y456963D1*
X1705381Y455963D1*
X1707633Y454963D1*
X1710117Y453963D1*
X1703117Y479963D2*
X1704117Y478963D1*
X1669117D2*
X1670075Y477963D1*
X1670911Y476963D1*
X1671540Y475963D1*
X1672005Y474963D1*
X1672408Y473963D1*
X1672735Y472963D1*
X1672937Y471963D1*
X1673041Y470963D1*
X1673087Y469963D1*
X1673106Y468963D1*
X1673113Y467963D1*
X1673115Y466963D1*
X1673116Y465963D1*
X1673113Y464963D1*
X1673078Y463963D1*
X1672950Y462963D1*
X1672707Y461963D1*
X1672415Y460963D1*
X1672106Y459963D1*
X1671695Y458963D1*
X1671063Y457963D1*
X1670060Y456963D1*
X1668637Y455963D1*
X1666932Y454963D1*
X1665117Y453963D1*
X1734117Y478963D2*
X1735075Y477963D1*
X1735911Y476963D1*
X1736540Y475963D1*
X1737005Y474963D1*
X1737408Y473963D1*
X1737735Y472963D1*
X1737937Y471963D1*
X1738041Y470963D1*
X1738087Y469963D1*
X1738106Y468963D1*
X1738113Y467963D1*
X1738115Y466963D1*
X1738116Y465963D1*
X1738113Y464963D1*
X1738078Y463963D1*
X1737950Y462963D1*
X1737707Y461963D1*
X1737415Y460963D1*
X1737106Y459963D1*
X1736695Y458963D1*
X1736063Y457963D1*
X1735060Y456963D1*
X1733637Y455963D1*
X1731932Y454963D1*
X1730117Y453963D1*
X1462608Y5388963D2*
X1458419Y5387963D1*
X1454977Y5386963D1*
X1452245Y5385963D1*
X1450056Y5384963D1*
X1448317Y5383963D1*
X1446957Y5382963D1*
X1445900Y5381963D1*
X1445066Y5380963D1*
X1444326Y5379963D1*
X1443621Y5378963D1*
X1442988Y5377963D1*
X1442448Y5376963D1*
X1442011Y5375963D1*
X1441645Y5374963D1*
X1441283Y5373963D1*
X1440939Y5372963D1*
X1440617Y5371963D1*
X1440276Y5370963D1*
X1439971Y5369963D1*
X1439743Y5368963D1*
X1439515Y5367963D1*
X1439231Y5366963D1*
X1438956Y5365963D1*
X1438775Y5364963D1*
X1438676Y5363963D1*
X1438597Y5362963D1*
X1438452Y5361963D1*
X1438205Y5360963D1*
X1437947Y5359963D1*
X1437771Y5358963D1*
X1437678Y5357963D1*
X1437636Y5356963D1*
X1437618Y5355963D1*
X1437611Y5354963D1*
X1437609Y5353963D1*
X1437608Y5352963D1*
Y5351963D1*
Y5350963D1*
Y5349963D1*
Y5348963D1*
Y5347963D1*
Y5346963D1*
Y5345963D1*
Y5344963D1*
Y5343963D1*
Y5342963D1*
Y5341963D1*
Y5340963D1*
Y5339963D1*
Y5338963D1*
Y5337963D1*
Y5336963D1*
X1437612Y5335963D1*
X1437647Y5334963D1*
X1437774Y5333963D1*
X1438014Y5332963D1*
X1438270Y5331963D1*
X1438444Y5330963D1*
X1438541Y5329963D1*
X1438619Y5328963D1*
X1438764Y5327963D1*
X1439010Y5326963D1*
X1439273Y5325963D1*
X1439483Y5324963D1*
X1439704Y5323963D1*
X1439989Y5322963D1*
X1440299Y5321963D1*
X1440607Y5320963D1*
X1440946Y5319963D1*
X1441281Y5318963D1*
X1441604Y5317963D1*
X1441982Y5316963D1*
X1442446Y5315963D1*
X1443010Y5314963D1*
X1443645Y5313963D1*
X1444287Y5312963D1*
X1444978Y5311963D1*
X1445783Y5310963D1*
X1446682Y5309963D1*
X1447641Y5308963D1*
X1448662Y5307963D1*
X1449821Y5306963D1*
X1451236Y5305963D1*
X1453012Y5304963D1*
X1455312Y5303963D1*
X1458264Y5302963D1*
X1461608Y5301963D1*
X1469608Y5388963D2*
Y5387963D1*
X1233608D2*
Y5386963D1*
Y5385963D1*
Y5384963D1*
Y5383963D1*
Y5382963D1*
Y5381963D1*
Y5380963D1*
Y5379963D1*
Y5378963D1*
Y5377963D1*
Y5376963D1*
Y5375963D1*
Y5374963D1*
Y5373963D1*
Y5372963D1*
Y5371963D1*
Y5370963D1*
Y5369963D1*
Y5368963D1*
Y5367963D1*
Y5366963D1*
Y5365963D1*
Y5364963D1*
Y5363963D1*
Y5362963D1*
Y5361963D1*
Y5360963D1*
Y5359963D1*
Y5358963D1*
Y5357963D1*
Y5356963D1*
Y5355963D1*
Y5354963D1*
Y5353963D1*
Y5352963D1*
Y5351963D1*
Y5350963D1*
Y5349963D1*
Y5348963D1*
Y5347963D1*
Y5346963D1*
Y5345963D1*
Y5344963D1*
Y5343963D1*
Y5342963D1*
Y5341963D1*
Y5340963D1*
Y5339963D1*
Y5338963D1*
Y5337963D1*
Y5336963D1*
Y5335963D1*
Y5334963D1*
Y5333963D1*
Y5332963D1*
Y5331963D1*
Y5330963D1*
Y5329963D1*
Y5328963D1*
Y5327963D1*
Y5326963D1*
Y5325963D1*
Y5324963D1*
Y5323963D1*
Y5322963D1*
Y5321963D1*
Y5320963D1*
Y5319963D1*
Y5318963D1*
Y5317963D1*
Y5316963D1*
Y5315963D1*
Y5314963D1*
Y5313963D1*
Y5312963D1*
Y5311963D1*
Y5310963D1*
Y5309963D1*
Y5308963D1*
Y5307963D1*
Y5306963D1*
Y5305963D1*
Y5304963D1*
Y5303963D1*
Y5302963D1*
X1271608Y5387963D2*
X1274950Y5386963D1*
X1277645Y5385963D1*
X1279675Y5384963D1*
X1281202Y5383963D1*
X1282408Y5382963D1*
X1283377Y5381963D1*
X1284141Y5380963D1*
X1284767Y5379963D1*
X1285323Y5378963D1*
X1285844Y5377963D1*
X1286350Y5376963D1*
X1286817Y5375963D1*
X1287191Y5374963D1*
X1287451Y5373963D1*
X1287692Y5372963D1*
X1287981Y5371963D1*
X1288258Y5370963D1*
X1288440Y5369963D1*
X1288536Y5368963D1*
X1288579Y5367963D1*
X1288597Y5366963D1*
X1288604Y5365963D1*
X1288606Y5364963D1*
X1288607Y5363963D1*
Y5362963D1*
X1288608Y5361963D1*
Y5360963D1*
Y5359963D1*
Y5358963D1*
X1288604Y5357963D1*
X1288569Y5356963D1*
X1288441Y5355963D1*
X1288202Y5354963D1*
X1287941Y5353963D1*
X1287732Y5352963D1*
X1287512Y5351963D1*
X1287226Y5350963D1*
X1286917Y5349963D1*
X1286604Y5348963D1*
X1286234Y5347963D1*
X1285803Y5346963D1*
X1285332Y5345963D1*
X1284810Y5344963D1*
X1284181Y5343963D1*
X1283368Y5342963D1*
X1282315Y5341963D1*
X1280960Y5340963D1*
X1279319Y5339963D1*
X1277498Y5338963D1*
X1275608Y5337963D1*
X1360608Y5387963D2*
X1360228Y5386963D1*
X1359802Y5385963D1*
X1359369Y5384963D1*
X1358979Y5383963D1*
X1358633Y5382963D1*
X1358279Y5381963D1*
X1357938Y5380963D1*
X1357616Y5379963D1*
X1357272Y5378963D1*
X1356936Y5377963D1*
X1356611Y5376963D1*
X1356237Y5375963D1*
X1355808Y5374963D1*
X1355372Y5373963D1*
X1354981Y5372963D1*
X1354634Y5371963D1*
X1354279Y5370963D1*
X1353938Y5369963D1*
X1353612Y5368963D1*
X1353237Y5367963D1*
X1352808Y5366963D1*
X1352372Y5365963D1*
X1351981Y5364963D1*
X1351634Y5363963D1*
X1351279Y5362963D1*
X1350938Y5361963D1*
X1350616Y5360963D1*
X1350272Y5359963D1*
X1349936Y5358963D1*
X1349611Y5357963D1*
X1349237Y5356963D1*
X1348808Y5355963D1*
X1348372Y5354963D1*
X1347981Y5353963D1*
X1347634Y5352963D1*
X1347279Y5351963D1*
X1346938Y5350963D1*
X1346612Y5349963D1*
X1346237Y5348963D1*
X1345808Y5347963D1*
X1345372Y5346963D1*
X1344981Y5345963D1*
X1344634Y5344963D1*
X1344279Y5343963D1*
X1343938Y5342963D1*
X1343616Y5341963D1*
X1343272Y5340963D1*
X1342936Y5339963D1*
X1342611Y5338963D1*
X1342237Y5337963D1*
X1341808Y5336963D1*
X1341372Y5335963D1*
X1340981Y5334963D1*
X1340634Y5333963D1*
X1340279Y5332963D1*
X1339938Y5331963D1*
X1339616Y5330963D1*
X1339272Y5329963D1*
X1338936Y5328963D1*
X1338611Y5327963D1*
X1338237Y5326963D1*
X1337808Y5325963D1*
X1337372Y5324963D1*
X1336981Y5323963D1*
X1336634Y5322963D1*
X1336279Y5321963D1*
X1335938Y5320963D1*
X1335612Y5319963D1*
X1335237Y5318963D1*
X1334808Y5317963D1*
X1334372Y5316963D1*
X1333981Y5315963D1*
X1333634Y5314963D1*
X1333279Y5313963D1*
X1332938Y5312963D1*
X1332616Y5311963D1*
X1332272Y5310963D1*
X1331936Y5309963D1*
X1331611Y5308963D1*
X1331237Y5307963D1*
X1330808Y5306963D1*
X1330376Y5305963D1*
X1330017Y5304963D1*
X1329780Y5303963D1*
X1329608Y5302963D1*
X1368608Y5387963D2*
X1368953Y5386963D1*
X1369286Y5385963D1*
X1369603Y5384963D1*
X1369945Y5383963D1*
X1370280Y5382963D1*
X1370600Y5381963D1*
X1370943Y5380963D1*
X1371280Y5379963D1*
X1371600Y5378963D1*
X1371943Y5377963D1*
X1372280Y5376963D1*
X1372600Y5375963D1*
X1372943Y5374963D1*
X1373280Y5373963D1*
X1373604Y5372963D1*
X1373978Y5371963D1*
X1374407Y5370963D1*
X1374843Y5369963D1*
X1375235Y5368963D1*
X1375582Y5367963D1*
X1375936Y5366963D1*
X1376277Y5365963D1*
X1376599Y5364963D1*
X1376943Y5363963D1*
X1377280Y5362963D1*
X1377600Y5361963D1*
X1377943Y5360963D1*
X1378280Y5359963D1*
X1378600Y5358963D1*
X1378943Y5357963D1*
X1379280Y5356963D1*
X1379604Y5355963D1*
X1379978Y5354963D1*
X1380407Y5353963D1*
X1380843Y5352963D1*
X1381235Y5351963D1*
X1381582Y5350963D1*
X1381936Y5349963D1*
X1382277Y5348963D1*
X1382599Y5347963D1*
X1382943Y5346963D1*
X1383280Y5345963D1*
X1383600Y5344963D1*
X1383943Y5343963D1*
X1384280Y5342963D1*
X1384600Y5341963D1*
X1384943Y5340963D1*
X1385280Y5339963D1*
X1385600Y5338963D1*
X1385943Y5337963D1*
X1386280Y5336963D1*
X1386604Y5335963D1*
X1386978Y5334963D1*
X1387407Y5333963D1*
X1387843Y5332963D1*
X1388235Y5331963D1*
X1388582Y5330963D1*
X1388936Y5329963D1*
X1389277Y5328963D1*
X1389599Y5327963D1*
X1389943Y5326963D1*
X1390280Y5325963D1*
X1390600Y5324963D1*
X1390943Y5323963D1*
X1391280Y5322963D1*
X1391600Y5321963D1*
X1391943Y5320963D1*
X1392280Y5319963D1*
X1392600Y5318963D1*
X1392943Y5317963D1*
X1393280Y5316963D1*
X1393604Y5315963D1*
X1393978Y5314963D1*
X1394407Y5313963D1*
X1394843Y5312963D1*
X1395235Y5311963D1*
X1395582Y5310963D1*
X1395936Y5309963D1*
X1396277Y5308963D1*
X1396599Y5307963D1*
X1396943Y5306963D1*
X1397283Y5305963D1*
X1397631Y5304963D1*
X1398078Y5303963D1*
X1398608Y5302963D1*
X1481608Y5387963D2*
X1487670Y5386963D1*
X1493608Y5385963D1*
Y5384963D1*
Y5383963D1*
Y5382963D1*
Y5381963D1*
Y5380963D1*
Y5379963D1*
X1537608Y5387963D2*
Y5386963D1*
Y5385963D1*
Y5384963D1*
Y5383963D1*
Y5382963D1*
Y5381963D1*
Y5380963D1*
Y5379963D1*
Y5378963D1*
Y5377963D1*
Y5376963D1*
Y5375963D1*
Y5374963D1*
Y5373963D1*
Y5372963D1*
Y5371963D1*
Y5370963D1*
Y5369963D1*
Y5368963D1*
Y5367963D1*
Y5366963D1*
Y5365963D1*
Y5364963D1*
Y5363963D1*
Y5362963D1*
Y5361963D1*
Y5360963D1*
Y5359963D1*
Y5358963D1*
Y5357963D1*
Y5356963D1*
Y5355963D1*
Y5354963D1*
Y5353963D1*
Y5352963D1*
Y5351963D1*
Y5350963D1*
Y5349963D1*
Y5348963D1*
Y5347963D1*
Y5346963D1*
Y5345963D1*
Y5344963D1*
Y5343963D1*
Y5342963D1*
Y5341963D1*
Y5340963D1*
Y5339963D1*
Y5338963D1*
Y5337963D1*
Y5336963D1*
Y5335963D1*
Y5334963D1*
Y5333963D1*
Y5332963D1*
Y5331963D1*
Y5330963D1*
Y5329963D1*
Y5328963D1*
Y5327963D1*
Y5326963D1*
Y5325963D1*
Y5324963D1*
Y5323963D1*
Y5322963D1*
Y5321963D1*
Y5320963D1*
Y5319963D1*
Y5318963D1*
Y5317963D1*
Y5316963D1*
Y5315963D1*
Y5314963D1*
Y5313963D1*
Y5312963D1*
Y5311963D1*
Y5310963D1*
Y5309963D1*
Y5308963D1*
Y5307963D1*
Y5306963D1*
Y5305963D1*
Y5304963D1*
Y5303963D1*
Y5302963D1*
X1544608Y5387963D2*
Y5386963D1*
Y5385963D1*
Y5384963D1*
Y5383963D1*
Y5382963D1*
Y5381963D1*
Y5380963D1*
Y5379963D1*
Y5378963D1*
Y5377963D1*
Y5376963D1*
Y5375963D1*
Y5374963D1*
Y5373963D1*
Y5372963D1*
Y5371963D1*
Y5370963D1*
Y5369963D1*
Y5368963D1*
Y5367963D1*
Y5366963D1*
Y5365963D1*
Y5364963D1*
Y5363963D1*
Y5362963D1*
Y5361963D1*
Y5360963D1*
Y5359963D1*
Y5358963D1*
Y5357963D1*
Y5356963D1*
Y5355963D1*
Y5354963D1*
Y5353963D1*
Y5352963D1*
Y5351963D1*
Y5350963D1*
Y5349963D1*
Y5348963D1*
Y5347963D1*
X1586608Y5387963D2*
Y5386963D1*
Y5385963D1*
Y5384963D1*
Y5383963D1*
Y5382963D1*
Y5381963D1*
Y5380963D1*
Y5379963D1*
Y5378963D1*
Y5377963D1*
Y5376963D1*
Y5375963D1*
Y5374963D1*
Y5373963D1*
Y5372963D1*
Y5371963D1*
Y5370963D1*
Y5369963D1*
Y5368963D1*
Y5367963D1*
Y5366963D1*
Y5365963D1*
Y5364963D1*
Y5363963D1*
Y5362963D1*
Y5361963D1*
Y5360963D1*
Y5359963D1*
Y5358963D1*
Y5357963D1*
Y5356963D1*
Y5355963D1*
Y5354963D1*
Y5353963D1*
Y5352963D1*
Y5351963D1*
Y5350963D1*
Y5349963D1*
Y5348963D1*
Y5347963D1*
X1594608Y5387963D2*
Y5386963D1*
Y5385963D1*
Y5384963D1*
Y5383963D1*
Y5382963D1*
Y5381963D1*
Y5380963D1*
Y5379963D1*
Y5378963D1*
Y5377963D1*
Y5376963D1*
Y5375963D1*
Y5374963D1*
Y5373963D1*
Y5372963D1*
Y5371963D1*
Y5370963D1*
Y5369963D1*
Y5368963D1*
Y5367963D1*
Y5366963D1*
Y5365963D1*
Y5364963D1*
Y5363963D1*
Y5362963D1*
Y5361963D1*
Y5360963D1*
Y5359963D1*
Y5358963D1*
Y5357963D1*
Y5356963D1*
Y5355963D1*
Y5354963D1*
Y5353963D1*
Y5352963D1*
Y5351963D1*
Y5350963D1*
Y5349963D1*
Y5348963D1*
Y5347963D1*
Y5346963D1*
Y5345963D1*
Y5344963D1*
Y5343963D1*
Y5342963D1*
Y5341963D1*
Y5340963D1*
Y5339963D1*
Y5338963D1*
Y5337963D1*
Y5336963D1*
Y5335963D1*
Y5334963D1*
Y5333963D1*
Y5332963D1*
Y5331963D1*
Y5330963D1*
Y5329963D1*
Y5328963D1*
Y5327963D1*
Y5326963D1*
Y5325963D1*
Y5324963D1*
Y5323963D1*
Y5322963D1*
Y5321963D1*
Y5320963D1*
Y5319963D1*
Y5318963D1*
Y5317963D1*
Y5316963D1*
Y5315963D1*
Y5314963D1*
Y5313963D1*
Y5312963D1*
Y5311963D1*
Y5310963D1*
Y5309963D1*
Y5308963D1*
Y5307963D1*
Y5306963D1*
Y5305963D1*
Y5304963D1*
Y5303963D1*
Y5302963D1*
X1641608Y5387963D2*
Y5386963D1*
Y5385963D1*
Y5384963D1*
Y5383963D1*
Y5382963D1*
Y5381963D1*
Y5380963D1*
Y5379963D1*
Y5378963D1*
Y5377963D1*
Y5376963D1*
Y5375963D1*
Y5374963D1*
Y5373963D1*
Y5372963D1*
Y5371963D1*
Y5370963D1*
Y5369963D1*
Y5368963D1*
Y5367963D1*
Y5366963D1*
Y5365963D1*
Y5364963D1*
Y5363963D1*
Y5362963D1*
Y5361963D1*
Y5360963D1*
Y5359963D1*
Y5358963D1*
Y5357963D1*
Y5356963D1*
Y5355963D1*
Y5354963D1*
Y5353963D1*
Y5352963D1*
Y5351963D1*
Y5350963D1*
Y5349963D1*
Y5348963D1*
Y5347963D1*
Y5346963D1*
Y5345963D1*
Y5344963D1*
Y5343963D1*
Y5342963D1*
Y5341963D1*
Y5340963D1*
Y5339963D1*
Y5338963D1*
Y5337963D1*
Y5336963D1*
Y5335963D1*
Y5334963D1*
Y5333963D1*
Y5332963D1*
Y5331963D1*
Y5330963D1*
Y5329963D1*
Y5328963D1*
Y5327963D1*
Y5326963D1*
Y5325963D1*
Y5324963D1*
Y5323963D1*
Y5322963D1*
Y5321963D1*
Y5320963D1*
Y5319963D1*
Y5318963D1*
Y5317963D1*
Y5316963D1*
Y5315963D1*
Y5314963D1*
Y5313963D1*
Y5312963D1*
Y5311963D1*
Y5310963D1*
Y5309963D1*
Y5308963D1*
Y5307963D1*
Y5306963D1*
Y5305963D1*
Y5304963D1*
Y5303963D1*
Y5302963D1*
X1648608Y5387963D2*
Y5386963D1*
Y5385963D1*
Y5384963D1*
Y5383963D1*
Y5382963D1*
Y5381963D1*
Y5380963D1*
Y5379963D1*
Y5378963D1*
Y5377963D1*
Y5376963D1*
Y5375963D1*
Y5374963D1*
Y5373963D1*
Y5372963D1*
Y5371963D1*
Y5370963D1*
Y5369963D1*
Y5368963D1*
Y5367963D1*
Y5366963D1*
Y5365963D1*
Y5364963D1*
Y5363963D1*
Y5362963D1*
Y5361963D1*
Y5360963D1*
Y5359963D1*
Y5358963D1*
Y5357963D1*
Y5356963D1*
Y5355963D1*
Y5354963D1*
Y5353963D1*
Y5352963D1*
Y5351963D1*
Y5350963D1*
Y5349963D1*
Y5348963D1*
Y5347963D1*
Y5346963D1*
Y5345963D1*
Y5344963D1*
Y5343963D1*
Y5342963D1*
Y5341963D1*
Y5340963D1*
Y5339963D1*
Y5338963D1*
Y5337963D1*
Y5336963D1*
Y5335963D1*
Y5334963D1*
Y5333963D1*
Y5332963D1*
Y5331963D1*
Y5330963D1*
Y5329963D1*
Y5328963D1*
Y5327963D1*
Y5326963D1*
Y5325963D1*
Y5324963D1*
Y5323963D1*
Y5322963D1*
Y5321963D1*
Y5320963D1*
Y5319963D1*
Y5318963D1*
Y5317963D1*
Y5316963D1*
Y5315963D1*
Y5314963D1*
Y5313963D1*
Y5312963D1*
Y5311963D1*
Y5310963D1*
Y5309963D1*
Y5308963D1*
Y5307963D1*
Y5306963D1*
Y5305963D1*
Y5304963D1*
Y5303963D1*
Y5302963D1*
X1695608Y5387963D2*
Y5386963D1*
Y5385963D1*
Y5384963D1*
Y5383963D1*
Y5382963D1*
Y5381963D1*
Y5380963D1*
Y5379963D1*
Y5378963D1*
Y5377963D1*
Y5376963D1*
Y5375963D1*
Y5374963D1*
Y5373963D1*
Y5372963D1*
Y5371963D1*
Y5370963D1*
Y5369963D1*
Y5368963D1*
Y5367963D1*
Y5366963D1*
Y5365963D1*
Y5364963D1*
Y5363963D1*
Y5362963D1*
Y5361963D1*
Y5360963D1*
Y5359963D1*
Y5358963D1*
Y5357963D1*
Y5356963D1*
Y5355963D1*
Y5354963D1*
Y5353963D1*
Y5352963D1*
Y5351963D1*
Y5350963D1*
Y5349963D1*
Y5348963D1*
Y5347963D1*
Y5346963D1*
Y5345963D1*
Y5344963D1*
Y5343963D1*
Y5342963D1*
Y5341963D1*
Y5340963D1*
Y5339963D1*
Y5338963D1*
Y5337963D1*
Y5336963D1*
Y5335963D1*
Y5334963D1*
Y5333963D1*
Y5332963D1*
Y5331963D1*
Y5330963D1*
Y5329963D1*
Y5328963D1*
Y5327963D1*
Y5326963D1*
Y5325963D1*
Y5324963D1*
Y5323963D1*
Y5322963D1*
Y5321963D1*
Y5320963D1*
Y5319963D1*
Y5318963D1*
Y5317963D1*
Y5316963D1*
Y5315963D1*
Y5314963D1*
Y5313963D1*
Y5312963D1*
Y5311963D1*
Y5310963D1*
Y5309963D1*
Y5308963D1*
Y5307963D1*
Y5306963D1*
Y5305963D1*
Y5304963D1*
Y5303963D1*
Y5302963D1*
X1703608Y5387963D2*
X1704108Y5386963D1*
X1704693Y5385963D1*
X1705304Y5384963D1*
X1705948Y5383963D1*
X1706620Y5382963D1*
X1707274Y5381963D1*
X1707936Y5380963D1*
X1708615Y5379963D1*
X1709272Y5378963D1*
X1709936Y5377963D1*
X1710615Y5376963D1*
X1711272Y5375963D1*
X1711936Y5374963D1*
X1712615Y5373963D1*
X1713272Y5372963D1*
X1713936Y5371963D1*
X1714615Y5370963D1*
X1715272Y5369963D1*
X1715936Y5368963D1*
X1716615Y5367963D1*
X1717272Y5366963D1*
X1717936Y5365963D1*
X1718611Y5364963D1*
X1719237Y5363963D1*
X1719808Y5362963D1*
X1720372Y5361963D1*
X1720981Y5360963D1*
X1721634Y5359963D1*
X1722279Y5358963D1*
X1722938Y5357963D1*
X1723616Y5356963D1*
X1724272Y5355963D1*
X1724936Y5354963D1*
X1725615Y5353963D1*
X1726272Y5352963D1*
X1726936Y5351963D1*
X1727615Y5350963D1*
X1728272Y5349963D1*
X1728936Y5348963D1*
X1729615Y5347963D1*
X1730272Y5346963D1*
X1730936Y5345963D1*
X1731615Y5344963D1*
X1732272Y5343963D1*
X1732936Y5342963D1*
X1733615Y5341963D1*
X1734272Y5340963D1*
X1734936Y5339963D1*
X1735615Y5338963D1*
X1736272Y5337963D1*
X1736936Y5336963D1*
X1737615Y5335963D1*
X1738272Y5334963D1*
X1738936Y5333963D1*
X1739611Y5332963D1*
X1740237Y5331963D1*
X1740808Y5330963D1*
X1741372Y5329963D1*
X1741981Y5328963D1*
X1742634Y5327963D1*
X1743279Y5326963D1*
X1743938Y5325963D1*
X1744616Y5324963D1*
X1745272Y5323963D1*
X1745936Y5322963D1*
X1746615Y5321963D1*
X1747267Y5320963D1*
X1747922Y5319963D1*
X1748608Y5318963D1*
X1749608Y5387963D2*
Y5386963D1*
Y5385963D1*
Y5384963D1*
Y5383963D1*
Y5382963D1*
Y5381963D1*
Y5380963D1*
Y5379963D1*
Y5378963D1*
Y5377963D1*
Y5376963D1*
Y5375963D1*
Y5374963D1*
Y5373963D1*
Y5372963D1*
Y5371963D1*
Y5370963D1*
Y5369963D1*
Y5368963D1*
Y5367963D1*
Y5366963D1*
Y5365963D1*
Y5364963D1*
Y5363963D1*
Y5362963D1*
Y5361963D1*
Y5360963D1*
Y5359963D1*
Y5358963D1*
Y5357963D1*
Y5356963D1*
Y5355963D1*
Y5354963D1*
Y5353963D1*
Y5352963D1*
Y5351963D1*
Y5350963D1*
Y5349963D1*
Y5348963D1*
Y5347963D1*
Y5346963D1*
Y5345963D1*
Y5344963D1*
Y5343963D1*
Y5342963D1*
Y5341963D1*
Y5340963D1*
Y5339963D1*
Y5338963D1*
Y5337963D1*
Y5336963D1*
Y5335963D1*
Y5334963D1*
Y5333963D1*
Y5332963D1*
Y5331963D1*
Y5330963D1*
Y5329963D1*
Y5328963D1*
Y5327963D1*
Y5326963D1*
Y5325963D1*
Y5324963D1*
Y5323963D1*
X1749604Y5322963D1*
X1749566Y5321963D1*
X1749411Y5320963D1*
X1749069Y5319963D1*
X1748608Y5318963D1*
X1757608Y5387963D2*
Y5386963D1*
Y5385963D1*
Y5384963D1*
Y5383963D1*
Y5382963D1*
Y5381963D1*
Y5380963D1*
Y5379963D1*
Y5378963D1*
Y5377963D1*
Y5376963D1*
Y5375963D1*
Y5374963D1*
Y5373963D1*
Y5372963D1*
Y5371963D1*
Y5370963D1*
Y5369963D1*
Y5368963D1*
Y5367963D1*
Y5366963D1*
Y5365963D1*
Y5364963D1*
Y5363963D1*
Y5362963D1*
Y5361963D1*
Y5360963D1*
Y5359963D1*
Y5358963D1*
Y5357963D1*
Y5356963D1*
Y5355963D1*
Y5354963D1*
Y5353963D1*
Y5352963D1*
Y5351963D1*
Y5350963D1*
Y5349963D1*
Y5348963D1*
Y5347963D1*
Y5346963D1*
Y5345963D1*
Y5344963D1*
Y5343963D1*
Y5342963D1*
Y5341963D1*
Y5340963D1*
Y5339963D1*
Y5338963D1*
Y5337963D1*
Y5336963D1*
Y5335963D1*
Y5334963D1*
Y5333963D1*
Y5332963D1*
Y5331963D1*
Y5330963D1*
Y5329963D1*
Y5328963D1*
Y5327963D1*
Y5326963D1*
Y5325963D1*
Y5324963D1*
Y5323963D1*
Y5322963D1*
Y5321963D1*
Y5320963D1*
Y5319963D1*
Y5318963D1*
Y5317963D1*
Y5316963D1*
Y5315963D1*
Y5314963D1*
Y5313963D1*
Y5312963D1*
Y5311963D1*
Y5310963D1*
Y5309963D1*
Y5308963D1*
Y5307963D1*
Y5306963D1*
Y5305963D1*
Y5304963D1*
Y5303963D1*
Y5302963D1*
X1804608Y5387963D2*
Y5386963D1*
Y5385963D1*
Y5384963D1*
Y5383963D1*
Y5382963D1*
Y5381963D1*
Y5380963D1*
Y5379963D1*
Y5378963D1*
Y5377963D1*
Y5376963D1*
Y5375963D1*
Y5374963D1*
Y5373963D1*
Y5372963D1*
Y5371963D1*
Y5370963D1*
Y5369963D1*
Y5368963D1*
Y5367963D1*
Y5366963D1*
Y5365963D1*
Y5364963D1*
Y5363963D1*
Y5362963D1*
Y5361963D1*
Y5360963D1*
Y5359963D1*
Y5358963D1*
Y5357963D1*
Y5356963D1*
Y5355963D1*
Y5354963D1*
Y5353963D1*
Y5352963D1*
Y5351963D1*
Y5350963D1*
Y5349963D1*
Y5348963D1*
Y5347963D1*
Y5346963D1*
Y5345963D1*
Y5344963D1*
Y5343963D1*
Y5342963D1*
Y5341963D1*
Y5340963D1*
Y5339963D1*
Y5338963D1*
Y5337963D1*
Y5336963D1*
Y5335963D1*
Y5334963D1*
Y5333963D1*
Y5332963D1*
Y5331963D1*
Y5330963D1*
Y5329963D1*
Y5328963D1*
Y5327963D1*
Y5326963D1*
Y5325963D1*
Y5324963D1*
Y5323963D1*
Y5322963D1*
Y5321963D1*
Y5320963D1*
Y5319963D1*
Y5318963D1*
Y5317963D1*
Y5316963D1*
Y5315963D1*
Y5314963D1*
Y5313963D1*
Y5312963D1*
Y5311963D1*
Y5310963D1*
Y5309963D1*
Y5308963D1*
Y5307963D1*
Y5306963D1*
Y5305963D1*
Y5304963D1*
Y5303963D1*
Y5302963D1*
X1811608Y5387963D2*
Y5386963D1*
Y5385963D1*
Y5384963D1*
Y5383963D1*
Y5382963D1*
Y5381963D1*
Y5380963D1*
Y5379963D1*
Y5378963D1*
Y5377963D1*
Y5376963D1*
Y5375963D1*
Y5374963D1*
Y5373963D1*
Y5372963D1*
Y5371963D1*
Y5370963D1*
Y5369963D1*
Y5368963D1*
Y5367963D1*
Y5366963D1*
Y5365963D1*
Y5364963D1*
Y5363963D1*
Y5362963D1*
Y5361963D1*
Y5360963D1*
Y5359963D1*
Y5358963D1*
Y5357963D1*
Y5356963D1*
Y5355963D1*
Y5354963D1*
Y5353963D1*
Y5352963D1*
Y5351963D1*
Y5350963D1*
Y5349963D1*
X1821608Y5348963D1*
X1849608Y5387963D2*
X1848762Y5386963D1*
X1848010Y5385963D1*
X1847273Y5384963D1*
X1846483Y5383963D1*
X1845704Y5382963D1*
X1844989Y5381963D1*
X1844299Y5380963D1*
X1843607Y5379963D1*
X1842946Y5378963D1*
X1842281Y5377963D1*
X1841600Y5376963D1*
X1840939Y5375963D1*
X1840245Y5374963D1*
X1839473Y5373963D1*
X1838700Y5372963D1*
X1837988Y5371963D1*
X1837298Y5370963D1*
X1836607Y5369963D1*
X1835946Y5368963D1*
X1835281Y5367963D1*
X1834600Y5366963D1*
X1833939Y5365963D1*
X1833245Y5364963D1*
X1832473Y5363963D1*
X1831700Y5362963D1*
X1830988Y5361963D1*
X1830298Y5360963D1*
X1829607Y5359963D1*
X1828946Y5358963D1*
X1828281Y5357963D1*
X1827600Y5356963D1*
X1826939Y5355963D1*
X1826245Y5354963D1*
X1825473Y5353963D1*
X1824661Y5352963D1*
X1823818Y5351963D1*
X1821360Y5350963D1*
X1817090Y5349963D1*
X1811608Y5348963D1*
X1858608Y5387963D2*
X1858107Y5386963D1*
X1857523Y5385963D1*
X1856912Y5384963D1*
X1856268Y5383963D1*
X1855596Y5382963D1*
X1854938Y5381963D1*
X1854244Y5380963D1*
X1853472Y5379963D1*
X1852700Y5378963D1*
X1851988Y5377963D1*
X1851298Y5376963D1*
X1850607Y5375963D1*
X1849946Y5374963D1*
X1849281Y5373963D1*
X1848600Y5372963D1*
X1847943Y5371963D1*
X1847280Y5370963D1*
X1846600Y5369963D1*
X1845939Y5368963D1*
X1845245Y5367963D1*
X1844473Y5366963D1*
X1843700Y5365963D1*
X1842988Y5364963D1*
X1842298Y5363963D1*
X1841607Y5362963D1*
X1840946Y5361963D1*
X1840281Y5360963D1*
X1839600Y5359963D1*
X1838943Y5358963D1*
X1838280Y5357963D1*
X1837600Y5356963D1*
X1836943Y5355963D1*
X1836280Y5354963D1*
X1835600Y5353963D1*
X1834939Y5352963D1*
X1834245Y5351963D1*
X1833473Y5350963D1*
X1832700Y5349963D1*
X1831988Y5348963D1*
X1831306Y5347963D1*
X1830693Y5346963D1*
X1830215Y5345963D1*
X1830305Y5344963D1*
X1830791Y5343963D1*
X1831345Y5342963D1*
X1831963Y5341963D1*
X1832625Y5340963D1*
X1833275Y5339963D1*
X1833937Y5338963D1*
X1834616Y5337963D1*
X1835276Y5336963D1*
X1835971Y5335963D1*
X1836743Y5334963D1*
X1837515Y5333963D1*
X1838227Y5332963D1*
X1838917Y5331963D1*
X1839608Y5330963D1*
X1840269Y5329963D1*
X1840935Y5328963D1*
X1841615Y5327963D1*
X1842272Y5326963D1*
X1842935Y5325963D1*
X1843615Y5324963D1*
X1844272Y5323963D1*
X1844936Y5322963D1*
X1845615Y5321963D1*
X1846276Y5320963D1*
X1846971Y5319963D1*
X1847743Y5318963D1*
X1848515Y5317963D1*
X1849227Y5316963D1*
X1849917Y5315963D1*
X1850608Y5314963D1*
X1851269Y5313963D1*
X1851935Y5312963D1*
X1852615Y5311963D1*
X1853272Y5310963D1*
X1853935Y5309963D1*
X1854615Y5308963D1*
X1855272Y5307963D1*
X1855936Y5306963D1*
X1856615Y5305963D1*
X1857267Y5304963D1*
X1857922Y5303963D1*
X1858608Y5302963D1*
X1922608Y5387963D2*
X1919346Y5386963D1*
X1916513Y5385963D1*
X1914200Y5384963D1*
X1912383Y5383963D1*
X1910984Y5382963D1*
X1909910Y5381963D1*
X1909069Y5380963D1*
X1908328Y5379963D1*
X1907621Y5378963D1*
X1906984Y5377963D1*
X1906413Y5376963D1*
X1905879Y5375963D1*
X1905366Y5374963D1*
X1904864Y5373963D1*
X1904394Y5372963D1*
X1903989Y5371963D1*
X1903637Y5370963D1*
X1903284Y5369963D1*
X1902974Y5368963D1*
X1902744Y5367963D1*
X1902516Y5366963D1*
X1902231Y5365963D1*
X1901956Y5364963D1*
X1901775Y5363963D1*
X1901679Y5362963D1*
X1901632Y5361963D1*
X1901579Y5360963D1*
X1901445Y5359963D1*
X1901203Y5358963D1*
X1900946Y5357963D1*
X1900771Y5356963D1*
X1900678Y5355963D1*
X1900636Y5354963D1*
X1900618Y5353963D1*
X1900611Y5352963D1*
X1900609Y5351963D1*
X1900608Y5350963D1*
Y5349963D1*
Y5348963D1*
Y5347963D1*
Y5346963D1*
Y5345963D1*
Y5344963D1*
Y5343963D1*
Y5342963D1*
Y5341963D1*
Y5340963D1*
Y5339963D1*
Y5338963D1*
Y5337963D1*
Y5336963D1*
Y5335963D1*
Y5334963D1*
X1900612Y5333963D1*
X1900647Y5332963D1*
X1900774Y5331963D1*
X1901014Y5330963D1*
X1901270Y5329963D1*
X1901444Y5328963D1*
X1901537Y5327963D1*
X1901583Y5326963D1*
X1901636Y5325963D1*
X1901770Y5324963D1*
X1902012Y5323963D1*
X1902273Y5322963D1*
X1902483Y5321963D1*
X1902708Y5320963D1*
X1903025Y5319963D1*
X1903426Y5318963D1*
X1903851Y5317963D1*
X1904241Y5316963D1*
X1904622Y5315963D1*
X1905103Y5314963D1*
X1905683Y5313963D1*
X1906265Y5312963D1*
X1906819Y5311963D1*
X1907380Y5310963D1*
X1908025Y5309963D1*
X1908844Y5308963D1*
X1909899Y5307963D1*
X1911263Y5306963D1*
X1912981Y5305963D1*
X1915119Y5304963D1*
X1917727Y5303963D1*
X1920608Y5302963D1*
X1943608Y5387963D2*
X1946989Y5386963D1*
X1949811Y5385963D1*
X1952081Y5384963D1*
X1953868Y5383963D1*
X1955284Y5382963D1*
X1956473Y5381963D1*
X1957519Y5380963D1*
X1958419Y5379963D1*
X1959156Y5378963D1*
X1959773Y5377963D1*
X1960325Y5376963D1*
X1960845Y5375963D1*
X1961350Y5374963D1*
X1961821Y5373963D1*
X1962226Y5372963D1*
X1962578Y5371963D1*
X1962931Y5370963D1*
X1963238Y5369963D1*
X1963436Y5368963D1*
X1963572Y5367963D1*
X1963745Y5366963D1*
X1964003Y5365963D1*
X1964266Y5364963D1*
X1964443Y5363963D1*
X1964541Y5362963D1*
X1964618Y5361963D1*
X1964764Y5360963D1*
X1965010Y5359963D1*
X1965269Y5358963D1*
X1965444Y5357963D1*
X1965537Y5356963D1*
X1965580Y5355963D1*
X1965597Y5354963D1*
X1965604Y5353963D1*
X1965606Y5352963D1*
X1965607Y5351963D1*
Y5350963D1*
X1965608Y5349963D1*
Y5348963D1*
Y5347963D1*
Y5346963D1*
Y5345963D1*
Y5344963D1*
Y5343963D1*
Y5342963D1*
Y5341963D1*
Y5340963D1*
Y5339963D1*
Y5338963D1*
Y5337963D1*
Y5336963D1*
Y5335963D1*
Y5334963D1*
X1965604Y5333963D1*
X1965569Y5332963D1*
X1965441Y5331963D1*
X1965202Y5330963D1*
X1964945Y5329963D1*
X1964771Y5328963D1*
X1964674Y5327963D1*
X1964597Y5326963D1*
X1964452Y5325963D1*
X1964205Y5324963D1*
X1963943Y5323963D1*
X1963732Y5322963D1*
X1963512Y5321963D1*
X1963226Y5320963D1*
X1962917Y5319963D1*
X1962608Y5318963D1*
X1962269Y5317963D1*
X1961935Y5316963D1*
X1961611Y5315963D1*
X1961233Y5314963D1*
X1960769Y5313963D1*
X1960205Y5312963D1*
X1959571Y5311963D1*
X1958924Y5310963D1*
X1958198Y5309963D1*
X1957262Y5308963D1*
X1956080Y5307963D1*
X1954663Y5306963D1*
X1952935Y5305963D1*
X1950785Y5304963D1*
X1948275Y5303963D1*
X1945608Y5302963D1*
X1463608Y5380963D2*
X1460043Y5379963D1*
X1457040Y5378963D1*
X1454777Y5377963D1*
X1453118Y5376963D1*
X1451850Y5375963D1*
X1450855Y5374963D1*
X1450080Y5373963D1*
X1449450Y5372963D1*
X1448897Y5371963D1*
X1448406Y5370963D1*
X1447993Y5369963D1*
X1447638Y5368963D1*
X1447285Y5367963D1*
X1446978Y5366963D1*
X1446779Y5365963D1*
X1446643Y5364963D1*
X1446471Y5363963D1*
X1446213Y5362963D1*
X1445949Y5361963D1*
X1445772Y5360963D1*
X1445679Y5359963D1*
X1445636Y5358963D1*
X1445618Y5357963D1*
X1445611Y5356963D1*
X1445609Y5355963D1*
X1445608Y5354963D1*
Y5353963D1*
Y5352963D1*
Y5351963D1*
Y5350963D1*
Y5349963D1*
Y5348963D1*
Y5347963D1*
Y5346963D1*
Y5345963D1*
Y5344963D1*
Y5343963D1*
Y5342963D1*
Y5341963D1*
Y5340963D1*
Y5339963D1*
Y5338963D1*
Y5337963D1*
Y5336963D1*
Y5335963D1*
X1445612Y5334963D1*
X1445647Y5333963D1*
X1445774Y5332963D1*
X1446014Y5331963D1*
X1446270Y5330963D1*
X1446448Y5329963D1*
X1446576Y5328963D1*
X1446746Y5327963D1*
X1447007Y5326963D1*
X1447305Y5325963D1*
X1447614Y5324963D1*
X1447982Y5323963D1*
X1448412Y5322963D1*
X1448879Y5321963D1*
X1449366Y5320963D1*
X1449864Y5319963D1*
X1450398Y5318963D1*
X1451028Y5317963D1*
X1451803Y5316963D1*
X1452694Y5315963D1*
X1453687Y5314963D1*
X1454872Y5313963D1*
X1456436Y5312963D1*
X1458498Y5311963D1*
X1460965Y5310963D1*
X1463608Y5309963D1*
X1479608Y5380963D2*
X1480608Y5379963D1*
X1934608Y5380963D2*
X1928594Y5379963D1*
X1923709Y5378963D1*
X1920201Y5377963D1*
X1917795Y5376963D1*
X1916110Y5375963D1*
X1914842Y5374963D1*
X1913851Y5373963D1*
X1913078Y5372963D1*
X1912449Y5371963D1*
X1911896Y5370963D1*
X1911406Y5369963D1*
X1910993Y5368963D1*
X1910638Y5367963D1*
X1910285Y5366963D1*
X1909978Y5365963D1*
X1909783Y5364963D1*
X1909678Y5363963D1*
X1909598Y5362963D1*
X1909452Y5361963D1*
X1909206Y5360963D1*
X1908947Y5359963D1*
X1908771Y5358963D1*
X1908678Y5357963D1*
X1908636Y5356963D1*
X1908618Y5355963D1*
X1908611Y5354963D1*
X1908609Y5353963D1*
X1908608Y5352963D1*
Y5351963D1*
Y5350963D1*
Y5349963D1*
Y5348963D1*
Y5347963D1*
Y5346963D1*
Y5345963D1*
Y5344963D1*
Y5343963D1*
Y5342963D1*
Y5341963D1*
Y5340963D1*
Y5339963D1*
Y5338963D1*
Y5337963D1*
Y5336963D1*
Y5335963D1*
Y5334963D1*
Y5333963D1*
Y5332963D1*
X1908612Y5331963D1*
X1908647Y5330963D1*
X1908774Y5329963D1*
X1909014Y5328963D1*
X1909270Y5327963D1*
X1909448Y5326963D1*
X1909576Y5325963D1*
X1909746Y5324963D1*
X1910007Y5323963D1*
X1910305Y5322963D1*
X1910614Y5321963D1*
X1910986Y5320963D1*
X1911451Y5319963D1*
X1912049Y5318963D1*
X1912811Y5317963D1*
X1913693Y5316963D1*
X1914649Y5315963D1*
X1915714Y5314963D1*
X1917117Y5313963D1*
X1919258Y5312963D1*
X1922385Y5311963D1*
X1926322Y5310963D1*
X1930608Y5309963D1*
Y5380963D2*
X1937390Y5379963D1*
X1942767Y5378963D1*
X1946494Y5377963D1*
X1949010Y5376963D1*
X1950720Y5375963D1*
X1951858Y5374963D1*
X1952654Y5373963D1*
X1953280Y5372963D1*
X1953829Y5371963D1*
X1954348Y5370963D1*
X1954854Y5369963D1*
X1955353Y5368963D1*
X1955818Y5367963D1*
X1956187Y5366963D1*
X1956412Y5365963D1*
X1956529Y5364963D1*
X1956614Y5363963D1*
X1956762Y5362963D1*
X1957009Y5361963D1*
X1957269Y5360963D1*
X1957444Y5359963D1*
X1957537Y5358963D1*
X1957580Y5357963D1*
X1957597Y5356963D1*
X1957604Y5355963D1*
X1957606Y5354963D1*
X1957607Y5353963D1*
Y5352963D1*
X1957608Y5351963D1*
Y5350963D1*
Y5349963D1*
Y5348963D1*
Y5347963D1*
Y5346963D1*
Y5345963D1*
Y5344963D1*
Y5343963D1*
Y5342963D1*
Y5341963D1*
Y5340963D1*
Y5339963D1*
Y5338963D1*
Y5337963D1*
Y5336963D1*
Y5335963D1*
Y5334963D1*
Y5333963D1*
X1957604Y5332963D1*
X1957569Y5331963D1*
X1957441Y5330963D1*
X1957202Y5329963D1*
X1956945Y5328963D1*
X1956767Y5327963D1*
X1956639Y5326963D1*
X1956469Y5325963D1*
X1956208Y5324963D1*
X1955910Y5323963D1*
X1955606Y5322963D1*
X1955269Y5321963D1*
X1954930Y5320963D1*
X1954572Y5319963D1*
X1954066Y5318963D1*
X1953359Y5317963D1*
X1952500Y5316963D1*
X1951524Y5315963D1*
X1950372Y5314963D1*
X1948858Y5313963D1*
X1946700Y5312963D1*
X1943658Y5311963D1*
X1939812Y5310963D1*
X1935608Y5309963D1*
X1241608Y5379963D2*
Y5378963D1*
Y5377963D1*
Y5376963D1*
Y5375963D1*
Y5374963D1*
Y5373963D1*
Y5372963D1*
Y5371963D1*
Y5370963D1*
Y5369963D1*
Y5368963D1*
Y5367963D1*
Y5366963D1*
Y5365963D1*
Y5364963D1*
Y5363963D1*
Y5362963D1*
Y5361963D1*
Y5360963D1*
Y5359963D1*
Y5358963D1*
Y5357963D1*
Y5356963D1*
Y5355963D1*
Y5354963D1*
Y5353963D1*
Y5352963D1*
Y5351963D1*
Y5350963D1*
Y5349963D1*
Y5348963D1*
Y5347963D1*
Y5346963D1*
Y5345963D1*
X1270608Y5379963D2*
X1272566Y5378963D1*
X1274394Y5377963D1*
X1275953Y5376963D1*
X1277159Y5375963D1*
X1278044Y5374963D1*
X1278692Y5373963D1*
X1279143Y5372963D1*
X1279434Y5371963D1*
X1279686Y5370963D1*
X1279979Y5369963D1*
X1280257Y5368963D1*
X1280440Y5367963D1*
X1280536Y5366963D1*
X1280579Y5365963D1*
X1280597Y5364963D1*
X1280604Y5363963D1*
X1280606Y5362963D1*
X1280607Y5361963D1*
Y5360963D1*
X1280608Y5359963D1*
Y5358963D1*
X1280604Y5357963D1*
X1280569Y5356963D1*
X1280441Y5355963D1*
X1280198Y5354963D1*
X1279906Y5353963D1*
X1279600Y5352963D1*
X1279229Y5351963D1*
X1278760Y5350963D1*
X1278123Y5349963D1*
X1277195Y5348963D1*
X1275911Y5347963D1*
X1274325Y5346963D1*
X1272608Y5345963D1*
X1363608Y5374963D2*
X1363453Y5373963D1*
X1363201Y5372963D1*
X1362907Y5371963D1*
X1362605Y5370963D1*
X1362268Y5369963D1*
X1361934Y5368963D1*
X1361611Y5367963D1*
X1361237Y5366963D1*
X1360808Y5365963D1*
X1360372Y5364963D1*
X1359981Y5363963D1*
X1359634Y5362963D1*
X1359279Y5361963D1*
X1358938Y5360963D1*
X1358616Y5359963D1*
X1358272Y5358963D1*
X1357936Y5357963D1*
X1357615Y5356963D1*
X1357272Y5355963D1*
X1356936Y5354963D1*
X1356615Y5353963D1*
X1356272Y5352963D1*
X1355936Y5351963D1*
X1355611Y5350963D1*
X1355237Y5349963D1*
X1354808Y5348963D1*
X1354372Y5347963D1*
X1353981Y5346963D1*
X1353634Y5345963D1*
X1353279Y5344963D1*
X1352938Y5343963D1*
X1352616Y5342963D1*
X1352272Y5341963D1*
X1351936Y5340963D1*
X1351615Y5339963D1*
X1351276Y5338963D1*
X1350975Y5337963D1*
X1350781Y5336963D1*
X1350676Y5335963D1*
X1350608Y5334963D1*
X1365608Y5374963D2*
X1365646Y5373963D1*
X1365774Y5372963D1*
X1366017Y5371963D1*
X1366309Y5370963D1*
X1366611Y5369963D1*
X1366947Y5368963D1*
X1367281Y5367963D1*
X1367600Y5366963D1*
X1367943Y5365963D1*
X1368280Y5364963D1*
X1368600Y5363963D1*
X1368943Y5362963D1*
X1369280Y5361963D1*
X1369600Y5360963D1*
X1369943Y5359963D1*
X1370280Y5358963D1*
X1370600Y5357963D1*
X1370943Y5356963D1*
X1371280Y5355963D1*
X1371600Y5354963D1*
X1371943Y5353963D1*
X1372280Y5352963D1*
X1372604Y5351963D1*
X1372978Y5350963D1*
X1373407Y5349963D1*
X1373843Y5348963D1*
X1374235Y5347963D1*
X1374582Y5346963D1*
X1374936Y5345963D1*
X1375277Y5344963D1*
X1375599Y5343963D1*
X1375943Y5342963D1*
X1376280Y5341963D1*
X1376600Y5340963D1*
X1376943Y5339963D1*
X1377284Y5338963D1*
X1377643Y5337963D1*
X1378145Y5336963D1*
X1378831Y5335963D1*
X1379608Y5334963D1*
X1703608Y5370963D2*
Y5369963D1*
Y5368963D1*
Y5367963D1*
Y5366963D1*
Y5365963D1*
Y5364963D1*
Y5363963D1*
Y5362963D1*
Y5361963D1*
Y5360963D1*
Y5359963D1*
Y5358963D1*
Y5357963D1*
Y5356963D1*
Y5355963D1*
Y5354963D1*
Y5353963D1*
Y5352963D1*
Y5351963D1*
Y5350963D1*
Y5349963D1*
Y5348963D1*
Y5347963D1*
Y5346963D1*
Y5345963D1*
Y5344963D1*
Y5343963D1*
Y5342963D1*
Y5341963D1*
Y5340963D1*
Y5339963D1*
Y5338963D1*
Y5337963D1*
Y5336963D1*
Y5335963D1*
Y5334963D1*
Y5333963D1*
Y5332963D1*
Y5331963D1*
Y5330963D1*
Y5329963D1*
Y5328963D1*
Y5327963D1*
Y5326963D1*
Y5325963D1*
Y5324963D1*
Y5323963D1*
Y5322963D1*
Y5321963D1*
Y5320963D1*
Y5319963D1*
Y5318963D1*
Y5317963D1*
Y5316963D1*
Y5315963D1*
Y5314963D1*
Y5313963D1*
Y5312963D1*
Y5311963D1*
Y5310963D1*
Y5309963D1*
Y5308963D1*
Y5307963D1*
Y5306963D1*
Y5305963D1*
Y5304963D1*
Y5303963D1*
Y5302963D1*
X1705608Y5370963D2*
X1705800Y5369963D1*
X1706180Y5368963D1*
X1706718Y5367963D1*
X1707312Y5366963D1*
X1707950Y5365963D1*
X1708620Y5364963D1*
X1709274Y5363963D1*
X1709936Y5362963D1*
X1710615Y5361963D1*
X1711272Y5360963D1*
X1711936Y5359963D1*
X1712615Y5358963D1*
X1713272Y5357963D1*
X1713936Y5356963D1*
X1714615Y5355963D1*
X1715272Y5354963D1*
X1715936Y5353963D1*
X1716615Y5352963D1*
X1717272Y5351963D1*
X1717936Y5350963D1*
X1718611Y5349963D1*
X1719237Y5348963D1*
X1719808Y5347963D1*
X1720372Y5346963D1*
X1720981Y5345963D1*
X1721634Y5344963D1*
X1722279Y5343963D1*
X1722938Y5342963D1*
X1723616Y5341963D1*
X1724272Y5340963D1*
X1724936Y5339963D1*
X1725615Y5338963D1*
X1726272Y5337963D1*
X1726936Y5336963D1*
X1727615Y5335963D1*
X1728272Y5334963D1*
X1728936Y5333963D1*
X1729615Y5332963D1*
X1730272Y5331963D1*
X1730936Y5330963D1*
X1731615Y5329963D1*
X1732272Y5328963D1*
X1732936Y5327963D1*
X1733615Y5326963D1*
X1734272Y5325963D1*
X1734936Y5324963D1*
X1735615Y5323963D1*
X1736272Y5322963D1*
X1736936Y5321963D1*
X1737615Y5320963D1*
X1738272Y5319963D1*
X1738936Y5318963D1*
X1739615Y5317963D1*
X1740272Y5316963D1*
X1740936Y5315963D1*
X1741615Y5314963D1*
X1742272Y5313963D1*
X1742936Y5312963D1*
X1743615Y5311963D1*
X1744272Y5310963D1*
X1744936Y5309963D1*
X1745611Y5308963D1*
X1746237Y5307963D1*
X1746808Y5306963D1*
X1747376Y5305963D1*
X1748017Y5304963D1*
X1748780Y5303963D1*
X1749608Y5302963D1*
X1812608Y5341963D2*
Y5340963D1*
Y5339963D1*
Y5338963D1*
Y5337963D1*
Y5336963D1*
Y5335963D1*
Y5334963D1*
Y5333963D1*
Y5332963D1*
Y5331963D1*
Y5330963D1*
Y5329963D1*
Y5328963D1*
Y5327963D1*
Y5326963D1*
Y5325963D1*
Y5324963D1*
Y5323963D1*
Y5322963D1*
Y5321963D1*
Y5320963D1*
Y5319963D1*
Y5318963D1*
Y5317963D1*
Y5316963D1*
Y5315963D1*
Y5314963D1*
Y5313963D1*
Y5312963D1*
Y5311963D1*
Y5310963D1*
Y5309963D1*
Y5308963D1*
Y5307963D1*
Y5306963D1*
Y5305963D1*
Y5304963D1*
Y5303963D1*
Y5302963D1*
X1821608Y5341963D2*
X1822453Y5340963D1*
X1823201Y5339963D1*
X1823907Y5338963D1*
X1824605Y5337963D1*
X1825272Y5336963D1*
X1825969Y5335963D1*
X1826742Y5334963D1*
X1827515Y5333963D1*
X1828227Y5332963D1*
X1828917Y5331963D1*
X1829608Y5330963D1*
X1830269Y5329963D1*
X1830935Y5328963D1*
X1831615Y5327963D1*
X1832272Y5326963D1*
X1832935Y5325963D1*
X1833615Y5324963D1*
X1834276Y5323963D1*
X1834971Y5322963D1*
X1835743Y5321963D1*
X1836515Y5320963D1*
X1837227Y5319963D1*
X1837917Y5318963D1*
X1838608Y5317963D1*
X1839269Y5316963D1*
X1839935Y5315963D1*
X1840615Y5314963D1*
X1841276Y5313963D1*
X1841971Y5312963D1*
X1842743Y5311963D1*
X1843515Y5310963D1*
X1844227Y5309963D1*
X1844917Y5308963D1*
X1845608Y5307963D1*
X1846269Y5306963D1*
X1846932Y5305963D1*
X1847584Y5304963D1*
X1848137Y5303963D1*
X1848608Y5302963D1*
X1241608Y5339963D2*
Y5338963D1*
Y5337963D1*
Y5336963D1*
Y5335963D1*
Y5334963D1*
Y5333963D1*
Y5332963D1*
Y5331963D1*
Y5330963D1*
Y5329963D1*
Y5328963D1*
Y5327963D1*
Y5326963D1*
Y5325963D1*
Y5324963D1*
Y5323963D1*
Y5322963D1*
Y5321963D1*
Y5320963D1*
Y5319963D1*
Y5318963D1*
Y5317963D1*
Y5316963D1*
Y5315963D1*
Y5314963D1*
Y5313963D1*
Y5312963D1*
Y5311963D1*
Y5310963D1*
Y5309963D1*
Y5308963D1*
Y5307963D1*
Y5306963D1*
Y5305963D1*
Y5304963D1*
Y5303963D1*
Y5302963D1*
X1236608Y5339963D2*
X1247608Y5338963D1*
X1258608Y5337963D1*
X1544608Y5339963D2*
Y5338963D1*
Y5337963D1*
Y5336963D1*
Y5335963D1*
Y5334963D1*
Y5333963D1*
Y5332963D1*
Y5331963D1*
Y5330963D1*
Y5329963D1*
Y5328963D1*
Y5327963D1*
Y5326963D1*
Y5325963D1*
Y5324963D1*
Y5323963D1*
Y5322963D1*
Y5321963D1*
Y5320963D1*
Y5319963D1*
Y5318963D1*
Y5317963D1*
Y5316963D1*
Y5315963D1*
Y5314963D1*
Y5313963D1*
Y5312963D1*
Y5311963D1*
Y5310963D1*
Y5309963D1*
Y5308963D1*
Y5307963D1*
Y5306963D1*
Y5305963D1*
Y5304963D1*
Y5303963D1*
Y5302963D1*
X1586608Y5339963D2*
Y5338963D1*
Y5337963D1*
Y5336963D1*
Y5335963D1*
Y5334963D1*
Y5333963D1*
Y5332963D1*
Y5331963D1*
Y5330963D1*
Y5329963D1*
Y5328963D1*
Y5327963D1*
Y5326963D1*
Y5325963D1*
Y5324963D1*
Y5323963D1*
Y5322963D1*
Y5321963D1*
Y5320963D1*
Y5319963D1*
Y5318963D1*
Y5317963D1*
Y5316963D1*
Y5315963D1*
Y5314963D1*
Y5313963D1*
Y5312963D1*
Y5311963D1*
Y5310963D1*
Y5309963D1*
Y5308963D1*
Y5307963D1*
Y5306963D1*
Y5305963D1*
Y5304963D1*
Y5303963D1*
Y5302963D1*
X1346608Y5326963D2*
X1346453Y5325963D1*
X1346201Y5324963D1*
X1345907Y5323963D1*
X1345605Y5322963D1*
X1345268Y5321963D1*
X1344934Y5320963D1*
X1344615Y5319963D1*
X1344272Y5318963D1*
X1343935Y5317963D1*
X1343615Y5316963D1*
X1343272Y5315963D1*
X1342936Y5314963D1*
X1342615Y5313963D1*
X1342272Y5312963D1*
X1341936Y5311963D1*
X1341615Y5310963D1*
X1341272Y5309963D1*
X1340936Y5308963D1*
X1340615Y5307963D1*
X1340272Y5306963D1*
X1339933Y5305963D1*
X1339584Y5304963D1*
X1339137Y5303963D1*
X1338608Y5302963D1*
X1381608Y5326963D2*
X1381762Y5325963D1*
X1382014Y5324963D1*
X1382308Y5323963D1*
X1382611Y5322963D1*
X1382947Y5321963D1*
X1383281Y5320963D1*
X1383600Y5319963D1*
X1383943Y5318963D1*
X1384280Y5317963D1*
X1384600Y5316963D1*
X1384939Y5315963D1*
X1385245Y5314963D1*
X1385473Y5313963D1*
X1385700Y5312963D1*
X1385988Y5311963D1*
X1386298Y5310963D1*
X1386607Y5309963D1*
X1386946Y5308963D1*
X1387281Y5307963D1*
X1387600Y5306963D1*
X1387940Y5305963D1*
X1388243Y5304963D1*
X1388452Y5303963D1*
X1388608Y5302963D1*
X1484608Y5310963D2*
Y5309963D1*
X1493608Y5310963D2*
Y5309963D1*
Y5308963D1*
X1493600Y5307963D1*
X1493502Y5306963D1*
X1493256Y5305963D1*
X1491819Y5304963D1*
X1487373Y5303963D1*
X1481027Y5302963D1*
X1473608Y5301963D1*
X1886656Y561727D2*
Y560727D1*
Y559727D1*
Y558727D1*
Y557727D1*
Y556727D1*
Y555727D1*
Y554727D1*
Y553727D1*
Y552727D1*
Y551727D1*
Y550727D1*
Y549727D1*
Y548727D1*
Y547727D1*
Y546727D1*
Y545727D1*
Y544727D1*
Y543727D1*
Y542727D1*
Y541727D1*
Y540727D1*
Y539727D1*
Y538727D1*
Y537727D1*
Y536727D1*
Y535727D1*
Y534727D1*
Y533727D1*
Y532727D1*
Y531727D1*
Y530727D1*
Y529727D1*
Y528727D1*
Y527727D1*
Y526727D1*
Y525727D1*
Y524727D1*
Y523727D1*
Y522727D1*
Y521727D1*
Y520727D1*
Y519727D1*
Y518727D1*
Y517727D1*
Y516727D1*
Y515727D1*
Y514727D1*
Y513727D1*
Y512727D1*
Y511727D1*
Y510727D1*
Y509727D1*
Y508727D1*
Y507727D1*
Y506727D1*
X1880656Y505727D1*
X1818656Y560727D2*
Y559727D1*
Y558727D1*
Y557727D1*
Y556727D1*
Y555727D1*
Y554727D1*
Y553727D1*
Y552727D1*
Y551727D1*
Y550727D1*
Y549727D1*
Y548727D1*
Y547727D1*
Y546727D1*
Y545727D1*
Y544727D1*
Y543727D1*
Y542727D1*
Y541727D1*
Y540727D1*
Y539727D1*
Y538727D1*
Y537727D1*
Y536727D1*
Y535727D1*
Y534727D1*
Y533727D1*
Y532727D1*
Y531727D1*
Y530727D1*
Y529727D1*
Y528727D1*
Y527727D1*
Y526727D1*
Y525727D1*
Y524727D1*
Y523727D1*
Y522727D1*
Y521727D1*
Y520727D1*
Y519727D1*
Y518727D1*
Y517727D1*
Y516727D1*
Y515727D1*
Y514727D1*
Y513727D1*
Y512727D1*
Y511727D1*
Y510727D1*
Y509727D1*
Y508727D1*
Y507727D1*
Y506727D1*
Y505727D1*
Y504727D1*
Y503727D1*
Y502727D1*
Y501727D1*
Y500727D1*
Y499727D1*
Y498727D1*
Y497727D1*
Y496727D1*
Y495727D1*
Y494727D1*
Y493727D1*
Y492727D1*
Y491727D1*
Y490727D1*
Y489727D1*
Y488727D1*
Y487727D1*
Y486727D1*
Y485727D1*
Y484727D1*
Y483727D1*
Y482727D1*
Y481727D1*
Y480727D1*
Y479727D1*
Y478727D1*
X1819656Y560727D2*
X1820656Y559727D1*
X1821656Y558727D1*
X1822656Y557727D1*
X1823656Y556727D1*
X1824656Y555727D1*
X1825656Y554727D1*
X1826656Y553727D1*
X1827656Y552727D1*
X1828656Y551727D1*
X1829656Y550727D1*
X1830656Y549727D1*
X1831656Y548727D1*
X1832656Y547727D1*
X1833656Y546727D1*
X1834656Y545727D1*
X1835656Y544727D1*
X1836656Y543727D1*
X1837656Y542727D1*
X1838656Y541727D1*
X1839656Y540727D1*
X1840656Y539727D1*
X1841656Y538727D1*
X1842656Y537727D1*
X1843652Y536727D1*
X1844613Y535727D1*
X1845447Y534727D1*
X1846041Y533727D1*
X1846378Y532727D1*
X1846541Y531727D1*
X1846612Y530727D1*
X1846640Y529727D1*
X1846650Y528727D1*
X1846654Y527727D1*
X1846656Y526727D1*
Y525727D1*
Y524727D1*
Y523727D1*
Y522727D1*
Y521727D1*
Y520727D1*
Y519727D1*
Y518727D1*
Y517727D1*
Y516727D1*
Y515727D1*
Y514727D1*
Y513727D1*
Y512727D1*
Y511727D1*
Y510727D1*
Y509727D1*
Y508727D1*
Y507727D1*
Y506727D1*
Y505727D1*
Y504727D1*
Y503727D1*
Y502727D1*
Y501727D1*
Y500727D1*
Y499727D1*
Y498727D1*
Y497727D1*
Y496727D1*
Y495727D1*
Y494727D1*
Y493727D1*
Y492727D1*
Y491727D1*
Y490727D1*
Y489727D1*
Y488727D1*
Y487727D1*
Y486727D1*
Y485727D1*
Y484727D1*
Y483727D1*
Y482727D1*
Y481727D1*
Y480727D1*
Y479727D1*
Y478727D1*
X1887656Y560727D2*
X1888656Y559727D1*
X1889656Y558727D1*
X1890656Y557727D1*
X1891656Y556727D1*
X1892656Y555727D1*
X1893656Y554727D1*
X1894656Y553727D1*
X1895656Y552727D1*
X1896656Y551727D1*
X1897656Y550727D1*
X1898656Y549727D1*
X1899656Y548727D1*
X1900656Y547727D1*
X1901656Y546727D1*
X1902656Y545727D1*
X1903656Y544727D1*
X1904656Y543727D1*
X1905656Y542727D1*
X1906656Y541727D1*
X1907656Y540727D1*
X1908656Y539727D1*
X1909656Y538727D1*
X1910656Y537727D1*
X1911652Y536727D1*
X1912613Y535727D1*
X1913447Y534727D1*
X1914041Y533727D1*
X1914378Y532727D1*
X1914541Y531727D1*
X1914612Y530727D1*
X1914640Y529727D1*
X1914650Y528727D1*
X1914654Y527727D1*
X1914656Y526727D1*
Y525727D1*
Y524727D1*
Y523727D1*
Y522727D1*
Y521727D1*
Y520727D1*
Y519727D1*
Y518727D1*
Y517727D1*
Y516727D1*
Y515727D1*
Y514727D1*
Y513727D1*
Y512727D1*
Y511727D1*
Y510727D1*
Y509727D1*
Y508727D1*
Y507727D1*
Y506727D1*
Y505727D1*
Y504727D1*
Y503727D1*
Y502727D1*
Y501727D1*
Y500727D1*
Y499727D1*
Y498727D1*
Y497727D1*
Y496727D1*
Y495727D1*
Y494727D1*
Y493727D1*
Y492727D1*
Y491727D1*
Y490727D1*
Y489727D1*
Y488727D1*
Y487727D1*
Y486727D1*
Y485727D1*
Y484727D1*
Y483727D1*
Y482727D1*
Y481727D1*
Y480727D1*
Y479727D1*
Y478727D1*
X1852656Y532727D2*
Y531727D1*
Y530727D1*
Y529727D1*
Y528727D1*
Y527727D1*
Y526727D1*
Y525727D1*
Y524727D1*
Y523727D1*
Y522727D1*
Y521727D1*
Y520727D1*
Y519727D1*
Y518727D1*
Y517727D1*
Y516727D1*
Y515727D1*
Y514727D1*
Y513727D1*
Y512727D1*
Y511727D1*
Y510727D1*
X1852660Y509727D1*
X1852699Y508727D1*
X1852866Y507727D1*
X1853272Y506727D1*
X1853934Y505727D1*
X1854771Y504727D1*
X1855700Y503727D1*
X1856672Y502727D1*
X1857662Y501727D1*
X1858658Y500727D1*
X1859657Y499727D1*
X1860656Y498727D1*
X1861656Y497727D1*
X1862656Y496727D1*
X1863656Y495727D1*
X1864656Y494727D1*
X1865656Y493727D1*
X1866656Y492727D1*
X1867656Y491727D1*
X1868656Y490727D1*
X1869656Y489727D1*
X1870656Y488727D1*
X1871656Y487727D1*
X1872656Y486727D1*
X1873656Y485727D1*
X1874656Y484727D1*
X1875656Y483727D1*
X1876656Y482727D1*
X1877656Y481727D1*
X1878656Y480727D1*
X1879656Y479727D1*
X1880656Y478727D1*
X1853656Y532727D2*
X1854656Y531727D1*
X1855656Y530727D1*
X1856656Y529727D1*
X1857656Y528727D1*
X1858656Y527727D1*
X1859656Y526727D1*
X1860656Y525727D1*
X1861656Y524727D1*
X1862656Y523727D1*
X1863656Y522727D1*
X1864656Y521727D1*
X1865656Y520727D1*
X1866656Y519727D1*
X1867656Y518727D1*
X1868656Y517727D1*
X1869656Y516727D1*
X1870656Y515727D1*
X1871656Y514727D1*
X1872656Y513727D1*
X1873656Y512727D1*
X1874656Y511727D1*
X1875656Y510727D1*
X1876680Y509727D1*
X1877908Y508727D1*
X1879835Y507727D1*
X1882887Y506727D1*
X1886656Y505727D1*
M02*
